<?xml version="1.0" encoding="utf-8"?>
<!DOCTYPE svg PUBLIC "-//W3C//DTD SVG 1.0//EN" "http://www.w3.org/TR/2001/REC-SVG-20010904/DTD/svg10.dtd">
<svg version="1.0" xmlns="http://www.w3.org/2000/svg" width="512px" height="512px" viewBox="0 0 512 512" preserveAspectRatio="xMidYMid meet">
 <g fill="#4f93ff">
  <path d="M0 256 l0 -256 256 0 256 0 0 256 0 256 -56.25 0 -56.25 0 0 -21.20 c0 -18.40 -0.10 -21.25 -0.75 -21.50 -0.40 -0.15 -0.75 -0.85 -0.75 -1.55 0 -0.70 -0.20 -1.25 -0.50 -1.25 -0.25 0 -0.50 -0.45 -0.50 -0.95 0 -0.55 -0.20 -1.15 -0.50 -1.30 -0.25 -0.15 -0.50 -0.85 -0.50 -1.55 0 -0.65 -0.20 -1.20 -0.50 -1.20 -0.25 0 -0.50 -0.45 -0.50 -1 0 -0.55 -0.20 -1 -0.50 -1 -0.25 0 -0.50 -0.45 -0.50 -1 0 -0.55 -0.20 -1 -0.50 -1 -0.25 0 -0.50 -0.45 -0.50 -1 0 -0.55 -0.20 -1 -0.50 -1 -0.25 0 -0.50 -0.45 -0.50 -1 0 -0.55 -0.45 -1.40 -1 -1.85 -0.55 -0.50 -1 -1.15 -1 -1.50 0 -0.35 -0.20 -0.65 -0.50 -0.65 -0.25 0 -0.50 -0.35 -0.50 -0.80 0 -0.40 -0.35 -1.10 -0.75 -1.50 -0.40 -0.45 -0.75 -1.15 -0.75 -1.60 -0.05 -0.45 -1.05 -1.95 -2.25 -3.30 -1.25 -1.40 -2.25 -2.80 -2.25 -3.15 0 -0.35 -0.20 -0.65 -0.50 -0.65 -0.25 0 -0.50 -0.30 -0.50 -0.65 0 -0.40 -0.60 -1.20 -1.30 -1.90 -0.75 -0.65 -2.20 -2.30 -3.20 -3.70 -1.05 -1.35 -3 -3.65 -4.35 -5.05 -1.30 -1.40 -3.75 -4.05 -5.40 -5.90 -1.65 -1.80 -3.25 -3.30 -3.60 -3.30 -0.35 0 -0.65 -0.35 -0.65 -0.75 0 -0.40 -0.25 -0.75 -0.55 -0.75 -0.25 0 -1.70 -1.10 -3.10 -2.40 -1.45 -1.30 -3.10 -2.70 -3.70 -3.10 -0.55 -0.40 -2.35 -1.75 -4 -3 -3.20 -2.50 -12.40 -8.70 -14.70 -9.95 -3.55 -1.95 -14.95 -7.50 -17.45 -8.55 -1.50 -0.60 -3.55 -1.45 -4.50 -1.85 -0.95 -0.40 -3.75 -1.40 -6.20 -2.20 -2.45 -0.80 -4.70 -1.70 -5 -1.90 -0.30 -0.25 -1.10 -0.55 -1.80 -0.65 -1.05 -0.10 -1.25 -0.45 -1.40 -2.15 l-0.15 -2.05 4.15 -2.20 c2.30 -1.20 4.45 -2.45 4.80 -2.80 0.30 -0.35 1.05 -0.80 1.60 -0.95 0.55 -0.15 1 -0.50 1 -0.75 0 -0.25 0.40 -0.55 0.95 -0.75 0.50 -0.15 1.40 -0.65 1.95 -1.15 0.60 -0.45 1.65 -1.30 2.35 -1.85 0.75 -0.55 2.05 -1.60 2.90 -2.35 0.90 -0.75 2.20 -1.85 3 -2.45 3.40 -2.60 13.20 -14.75 14.60 -18.20 0.40 -0.90 0.95 -1.80 1.20 -1.95 0.90 -0.60 6.05 -11.70 7.75 -16.80 2.80 -8.50 4.30 -17.95 4.30 -26.75 l0 -6.10 2.65 -0.30 c2.65 -0.30 7.90 -1.80 8.35 -2.40 0.15 -0.15 0.80 -0.60 1.45 -0.95 1.80 -0.90 2.45 -1.45 5.15 -4.20 1.30 -1.30 2.40 -2.70 2.40 -3.05 0 -0.30 0.45 -1 0.95 -1.45 0.50 -0.45 1.05 -1.35 1.20 -1.95 1.90 -7.90 2.25 -10.55 1.35 -11.10 -0.30 -0.15 -0.50 -1 -0.50 -1.80 0 -2.05 -2.70 -7.30 -5.05 -9.70 l-1.90 -2 -0.25 -27.75 c-0.20 -28.80 -0.45 -32.05 -2.70 -41.75 -0.75 -3.25 -3.30 -10.50 -3.70 -10.65 -0.20 -0.10 -0.40 -0.50 -0.40 -0.90 0 -0.65 -3.15 -7.10 -4.65 -9.45 -4.25 -6.75 -7 -10.60 -9.40 -13 -1.05 -1.15 -1.95 -2.25 -1.95 -2.55 0 -1 -11.50 -11.55 -19.25 -17.70 -6.25 -4.95 -5.75 -4.30 -5.75 -7.55 0 -1.60 0.20 -2.95 0.45 -2.95 0.25 0 0.55 -0.95 0.70 -2.10 0.30 -2.15 0.40 -2.75 1.45 -9 0.40 -2.45 0.40 -3.90 -0.05 -5.75 -1.15 -4.90 -2.80 -7.30 -3.80 -5.65 -0.15 0.25 -1.05 0.50 -2 0.50 -0.95 0 -1.85 0.20 -2 0.50 -0.15 0.25 -1.50 0.50 -2.95 0.50 -1.40 0 -2.85 0.25 -3.15 0.55 -0.60 0.60 -27.70 0.80 -28.65 0.20 -0.30 -0.20 -2.50 -0.55 -4.90 -0.80 -2.40 -0.25 -6.15 -0.70 -8.35 -1 -2.20 -0.25 -6.25 -0.70 -9 -0.95 -12.25 -1.10 -13.60 -1.15 -13.95 -0.55 -0.20 0.35 -1.95 0.55 -4.55 0.55 -2.30 0 -4.35 0.20 -4.50 0.50 -0.15 0.25 -1.30 0.50 -2.50 0.50 -1.20 0 -2.35 0.25 -2.50 0.50 -0.15 0.30 -1.05 0.50 -2 0.50 -0.95 0 -1.85 0.25 -2 0.50 -0.15 0.30 -0.95 0.50 -1.75 0.50 -0.80 0 -1.60 0.25 -1.75 0.50 -0.15 0.30 -0.75 0.50 -1.30 0.50 -0.95 0 -1.40 0.20 -3.80 1.40 -0.65 0.35 -1.45 0.60 -1.85 0.60 -0.40 0 -1.55 0.45 -2.65 0.95 -1.05 0.50 -3.60 1.75 -5.65 2.75 -4.05 2 -7.10 3.70 -10.25 5.75 -1.10 0.70 -2.40 1.55 -2.80 1.80 -6.40 4 -14.80 11.10 -21.85 18.55 -7.25 7.70 -8.10 8.70 -8.10 9.45 0 0.35 -0.35 0.90 -0.80 1.30 -0.90 0.75 -3.90 5.15 -4.75 7.10 -0.35 0.75 -0.80 1.35 -1.05 1.35 -0.20 0 -0.40 0.45 -0.40 1 0 0.55 -0.15 1 -0.40 1 -0.20 0 -0.60 0.75 -0.90 1.65 -1 2.75 -1.95 5.10 -2.20 5.35 -0.60 0.50 -3.15 8.95 -4.05 13.25 -2.05 9.70 -2.45 17.40 -2.45 49.55 l0 30.50 -1.75 1.70 c-2 1.95 -5.25 8.15 -5.25 10.05 0 0.70 -0.25 1.50 -0.55 1.80 -0.60 0.60 -0.40 3.90 0.40 7.40 0.80 3.40 3.45 7.90 6.25 10.65 2.85 2.80 8.75 6.10 10.95 6.10 0.75 0 1.55 0.25 1.70 0.50 0.15 0.30 1.20 0.50 2.30 0.50 l1.95 0 0 6.15 c0 5.40 0.70 12.15 1.75 17.10 1.05 5 3.40 12.75 3.90 12.75 0.20 0 0.35 0.35 0.35 0.75 0 0.40 0.45 1.70 0.95 2.85 2.60 5.80 3.30 7.05 6.50 11.85 1 1.45 2.05 3 2.30 3.50 0.30 0.45 1 1.55 1.60 2.50 0.60 0.90 2.55 3.20 4.35 5.05 1.80 1.85 3.30 3.60 3.30 3.85 0 0.30 0.70 1.05 1.60 1.70 0.90 0.65 2.95 2.45 4.55 3.95 1.60 1.50 3.30 2.95 3.75 3.20 0.45 0.30 1.40 1 2.10 1.65 0.70 0.65 1.50 1.15 1.80 1.15 0.30 0 0.95 0.45 1.45 1 0.50 0.55 1.20 1 1.50 1 0.35 0 0.90 0.35 1.25 0.75 0.35 0.45 1.45 1.15 2.45 1.60 1 0.45 2.40 1.25 3.15 1.75 0.70 0.50 1.65 0.90 2.10 0.90 0.60 0 0.80 0.50 0.80 1.90 l0 1.90 -3.25 0.70 c-1.80 0.35 -3.25 0.85 -3.25 1.10 0 0.20 -0.65 0.40 -1.50 0.40 -0.80 0 -1.50 0.25 -1.50 0.50 0 0.30 -0.65 0.50 -1.40 0.50 -0.80 0 -1.95 0.45 -2.60 1 -0.65 0.55 -1.75 1 -2.50 1 -0.75 0 -1.85 0.45 -2.50 1 -0.65 0.55 -1.80 1 -2.60 1 -0.75 0 -1.40 0.25 -1.40 0.50 0 0.30 -0.45 0.50 -0.95 0.50 -0.55 0 -1.30 0.35 -1.75 0.75 -0.40 0.40 -1.10 0.75 -1.50 0.75 -0.45 0 -0.80 0.25 -0.80 0.50 0 0.30 -0.45 0.50 -1 0.50 -0.55 0 -1 0.25 -1 0.50 0 0.30 -0.45 0.50 -1 0.50 -0.55 0 -1 0.25 -1 0.50 0 0.30 -0.35 0.50 -0.80 0.50 -0.40 0 -1.10 0.35 -1.50 0.75 -0.45 0.40 -1.20 0.75 -1.75 0.75 -0.50 0 -0.95 0.25 -0.95 0.50 0 0.30 -0.45 0.50 -1 0.50 -0.55 0 -1 0.35 -1 0.75 0 0.40 -0.45 0.75 -1 0.75 -0.50 0 -1.20 0.45 -1.50 1 -0.30 0.55 -1 1 -1.50 1 -0.55 0 -1 0.20 -1 0.50 0 0.25 -0.55 0.60 -1.25 0.80 -0.70 0.15 -1.25 0.50 -1.25 0.75 0 0.25 -0.60 0.75 -1.30 1.05 -0.75 0.35 -2 1.25 -2.80 2 -0.85 0.75 -1.70 1.40 -1.90 1.40 -0.20 0 -1.10 0.70 -2 1.50 -0.90 0.85 -2.05 1.50 -2.55 1.50 -0.55 0 -1.10 0.40 -1.30 0.90 -0.50 1.35 -3.65 4.10 -4.75 4.10 -0.50 0 -1.10 0.40 -1.25 0.85 -0.40 1.10 -8.45 9.15 -9.15 9.15 -0.25 0 -0.80 0.75 -1.20 1.70 -0.40 0.95 -1 1.90 -1.40 2.10 -0.35 0.25 -1.05 1.05 -1.55 1.85 -0.50 0.75 -1.20 1.35 -1.60 1.35 -0.40 0 -0.75 0.45 -0.75 1 0 0.55 -0.65 1.70 -1.50 2.60 -0.80 0.85 -1.50 1.75 -1.50 2 0 0.20 -0.65 1.15 -1.50 2.05 -0.80 0.85 -1.75 1.95 -2.15 2.35 -0.35 0.40 -1.20 1.95 -1.85 3.40 -0.70 1.40 -1.35 2.60 -1.55 2.60 -0.50 0 -8.55 16.45 -9.10 18.65 -0.30 1.25 -0.60 10.70 -0.70 23 l-0.15 20.85 -57.25 0 -57.25 0 0 -256z"/>
 </g>
 <g fill="#fad09e">
  <path d="M250.75 433.20 c-2.20 -0.40 -4.20 -0.95 -4.45 -1.25 -0.30 -0.25 -0.90 -0.45 -1.35 -0.45 -1.05 0 -5.35 -2.25 -8.85 -4.60 -2.65 -1.75 -6.60 -5.90 -6.60 -6.85 0 -0.30 -0.20 -0.55 -0.45 -0.55 -0.25 0 -1.05 -1.20 -1.75 -2.60 -0.75 -1.45 -1.50 -3 -1.75 -3.40 -2.50 -4.55 -3.05 -7.70 -3.05 -17.20 0 -7.50 -0.10 -8.35 -0.85 -8.60 -1.65 -0.55 -2.90 -1.10 -7.40 -3.25 -3.75 -1.85 -4.25 -2.25 -3.10 -2.35 1.45 -0.20 1.90 -1.10 0.55 -1.10 -0.45 0 -1.40 -0.40 -2.10 -0.90 -0.75 -0.50 -2.15 -1.30 -3.15 -1.75 -1 -0.45 -2.10 -1.15 -2.45 -1.60 -0.35 -0.40 -0.90 -0.75 -1.25 -0.75 -0.30 0 -1 -0.45 -1.50 -1 -0.50 -0.55 -1.15 -1 -1.45 -1 -0.30 0 -1.10 -0.50 -1.80 -1.15 -0.70 -0.65 -1.60 -1.35 -2.10 -1.65 -0.45 -0.25 -2.30 -1.85 -4.15 -3.55 -1.95 -1.85 -3.80 -3.15 -4.40 -3.15 -0.80 0 -0.90 -0.15 -0.45 -0.45 0.55 -0.35 0.55 -0.45 -0.10 -0.70 -0.45 -0.20 -0.80 -0.60 -0.80 -0.90 0 -0.35 -1.50 -2.10 -3.30 -3.95 -1.80 -1.85 -3.75 -4.15 -4.35 -5.05 -0.60 -0.95 -1.30 -2.05 -1.60 -2.50 -0.25 -0.50 -1.30 -2.05 -2.30 -3.50 -3.20 -4.80 -3.90 -6.05 -6.50 -11.85 -0.50 -1.15 -0.95 -2.45 -0.95 -2.85 0 -0.40 -0.15 -0.75 -0.35 -0.75 -0.50 0 -2.85 -7.75 -3.90 -12.75 -1.05 -4.95 -1.75 -11.70 -1.75 -17.10 l0 -6.15 -1.90 0 c-1.05 0 -2.10 -0.15 -2.25 -0.35 -0.20 -0.15 -0.95 -0.40 -1.70 -0.45 -2.50 -0.30 -8.35 -3.60 -11.05 -6.30 -2.80 -2.75 -5.40 -7.20 -6.25 -10.65 -0.75 -3.15 -1 -9.80 -0.40 -10.40 0.30 -0.30 0.55 -1.10 0.55 -1.80 0 -1.90 3.25 -8.10 5.25 -10.05 1.20 -1.15 1.75 -2.15 1.75 -3.10 0 -1.05 0.35 -1.60 1.25 -2 0.70 -0.30 1.25 -0.75 1.25 -1 0 -0.20 0.45 -0.40 0.95 -0.40 0.55 0 1.05 -0.15 1.15 -0.40 0.25 -0.60 6.65 -2.60 8.35 -2.60 l1.55 0 0 -16.50 0 -16.50 1.90 0 c1.65 0 2.25 0.40 5.35 3.50 1.90 1.95 3.65 3.50 3.90 3.50 0.20 0 1.10 0.65 2 1.50 0.90 0.80 1.90 1.50 2.25 1.50 0.30 0 0.60 0.25 0.60 0.50 0 0.30 0.45 0.50 1 0.50 0.55 0 1 0.20 1 0.45 0 0.25 0.70 0.70 1.50 1.05 0.85 0.35 1.50 0.80 1.50 1.05 0 0.25 0.35 0.45 0.70 0.45 0.40 0 1.75 0.70 2.95 1.50 1.25 0.85 2.70 1.50 3.30 1.50 0.60 0 1.05 0.25 1.05 0.50 0 0.30 0.35 0.50 0.75 0.50 0.65 0 3.75 1.25 6.35 2.55 0.50 0.25 1.35 0.45 1.85 0.45 0.55 0 1.15 0.25 1.30 0.50 0.15 0.30 0.75 0.50 1.30 0.50 0.50 0 1.35 0.20 1.85 0.45 0.95 0.55 7.95 2.20 13.10 3.10 4.55 0.85 19.40 0.85 24 0 7.40 -1.30 16.50 -3.85 20.15 -5.60 1.10 -0.55 2.35 -0.95 2.85 -0.95 0.55 0 1.10 -0.20 1.25 -0.50 0.15 -0.25 0.75 -0.50 1.30 -0.50 0.50 0 0.95 -0.15 0.95 -0.35 0 -0.25 1.15 -0.95 2.50 -1.60 1.40 -0.70 2.50 -1.45 2.50 -1.65 0 -0.20 0.45 -0.40 0.95 -0.40 0.55 0 1.05 -0.15 1.15 -0.40 0.10 -0.20 2.10 -1.65 4.45 -3.20 2.35 -1.60 4.60 -3.20 4.95 -3.65 0.35 -0.40 0.90 -0.75 1.20 -0.75 0.65 0 13.30 -12.55 13.30 -13.15 0 -0.25 0.65 -1.10 1.50 -2 0.80 -0.90 1.50 -1.80 1.50 -2 0 -0.20 0.25 -0.65 0.55 -1 1.15 -1.30 7 -12.35 7.65 -14.45 0.45 -1.45 3.85 -1.20 5.30 0.35 0.65 0.70 1.45 1.25 1.85 1.25 0.35 0 0.65 0.15 0.65 0.40 0 0.20 0.85 0.90 1.90 1.60 1 0.65 2.80 2 3.95 3 1.20 0.95 3 2.50 4.10 3.40 1.05 0.85 2.15 1.60 2.40 1.60 0.25 0 1.25 0.80 2.20 1.80 0.90 1 2.20 2 2.85 2.25 0.60 0.25 1.35 1 1.60 1.70 0.30 0.80 0.85 1.25 1.55 1.25 0.60 0 2.05 0.85 3.25 1.85 4.60 4 6.10 5.15 6.55 5.15 0.25 0 1.25 0.80 2.20 1.80 0.90 1 2.20 2 2.85 2.25 0.60 0.25 1.35 1 1.60 1.70 0.25 0.70 0.80 1.25 1.25 1.25 0.65 0 0.75 1.75 0.75 13.50 l0 13.50 1.65 0 c2.40 0 6.20 1.15 9.75 2.95 2.85 1.45 3.10 1.70 3.10 3.20 0 1.25 0.45 2.10 1.80 3.40 2.15 2.05 5.20 7.85 5.20 9.90 0 0.80 0.25 1.65 0.50 1.80 1.10 0.65 0.55 6.30 -1.35 14.10 -0.15 0.60 -0.70 1.50 -1.20 1.95 -0.50 0.45 -0.95 1.15 -0.95 1.45 0 0.35 -1.10 1.75 -2.40 3.05 -2.70 2.75 -3.35 3.30 -5.15 4.20 -0.65 0.35 -1.30 0.80 -1.45 0.95 -0.45 0.60 -5.70 2.10 -8.35 2.40 l-2.65 0.30 0 6.10 c0 8.80 -1.50 18.25 -4.30 26.75 -1.70 5.10 -6.85 16.20 -7.75 16.80 -0.25 0.15 -0.80 1.05 -1.20 1.95 -1.40 3.45 -11.20 15.60 -14.60 18.20 -0.80 0.60 -2.10 1.70 -3 2.45 -0.85 0.75 -2.15 1.80 -2.90 2.35 -0.70 0.55 -1.75 1.40 -2.35 1.85 -0.55 0.50 -1.45 1 -1.95 1.15 -0.55 0.20 -0.95 0.50 -0.95 0.75 0 0.25 -0.45 0.60 -1 0.75 -0.55 0.15 -1.30 0.60 -1.60 0.95 -0.35 0.35 -2.50 1.60 -4.75 2.80 -4.15 2.20 -4.75 2.80 -3.45 3.30 1.15 0.45 0.35 1.70 -1.05 1.70 -1.20 0 -2 0.30 -6.90 2.50 -1.10 0.50 -2.35 1 -2.80 1.15 -0.70 0.25 -0.85 1.60 -1.05 10.25 -0.15 8.30 -0.35 10.20 -1.05 11.25 -0.45 0.75 -0.85 1.75 -0.85 2.30 0 0.55 -0.20 1.10 -0.45 1.25 -0.25 0.15 -0.60 0.85 -0.75 1.55 -0.30 1.25 -2.70 4.85 -5.30 8.05 -1.90 2.40 -6.90 6.20 -10.10 7.80 -0.50 0.20 -1.35 0.65 -1.90 0.90 -0.55 0.30 -1.45 0.50 -1.95 0.50 -0.55 0 -1.15 0.25 -1.30 0.50 -0.15 0.30 -1.05 0.50 -1.95 0.50 -0.85 0 -1.80 0.20 -2.05 0.45 -0.95 0.85 -8.85 1 -13 0.25z m-35.65 -155.60 c2.40 -0.90 5.90 -3.75 6.90 -5.65 2 -3.65 1.40 -6.85 -1.80 -10.15 -3.70 -3.85 -7.15 -4.90 -10.45 -3.15 -2.25 1.15 -5.70 4.75 -6.05 6.25 -0.20 0.75 -0.55 1.60 -0.80 1.95 -0.30 0.35 -0.15 1.50 0.35 3.10 0.95 2.80 5.45 7.55 7.20 7.55 0.55 0 1.15 0.25 1.30 0.50 0.40 0.65 0.60 0.65 3.35 -0.40z m88.65 -0.15 c1.95 -0.60 6.15 -4.65 6.55 -6.35 0.20 -0.75 0.55 -1.60 0.80 -1.95 0.30 -0.35 0.15 -1.50 -0.40 -3.10 -1.85 -5.65 -8.35 -9.80 -12.35 -7.90 -2.05 1 -5.55 4.35 -6.55 6.20 -1.45 2.85 -1.50 4.85 -0.15 6.95 2.70 4.20 7.70 7.70 9.85 6.85 0.40 -0.15 1.45 -0.45 2.25 -0.70z"/>
  <path d="M343.10 148.40 c-0.35 -0.35 -0.60 -1.40 -0.60 -2.35 l0 -1.75 1.75 1.70 c0.95 0.95 1.75 2 1.75 2.35 0 0.80 -2.10 0.85 -2.90 0.05z"/>
  <path d="M165.45 137.60 c0.25 -0.45 0.95 -1.30 1.50 -1.80 1.05 -0.95 1.05 -0.95 1.05 0.85 0 1.70 -0.10 1.85 -1.50 1.85 -1.30 0 -1.45 -0.15 -1.05 -0.90z"/>
 </g>
 <g fill="#2f6cff">
  <path d="M113 490.05 c0.05 -12.85 0.25 -22.05 0.50 -22.15 0.25 -0.10 0.50 -1 0.60 -2 0.05 -1.05 0.30 -1.90 0.55 -1.90 0.25 0 0.35 -0.35 0.15 -0.75 -0.15 -0.40 -0.05 -0.75 0.15 -0.75 0.45 0 4.90 -8.60 5.15 -10 0.10 -0.40 0.50 -1 0.90 -1.35 0.40 -0.35 0.55 -0.65 0.35 -0.65 -0.25 0 -0.05 -0.35 0.35 -0.80 0.45 -0.40 0.70 -1 0.55 -1.25 -0.20 -0.25 0 -0.45 0.35 -0.45 0.60 0 2.60 -3.50 2.65 -4.60 0 -0.20 0.50 -0.80 1.15 -1.40 0.60 -0.60 1 -1.25 0.85 -1.55 -0.20 -0.25 0.05 -0.45 0.50 -0.45 0.85 0 2.85 -2.95 2.45 -3.60 -0.15 -0.20 0.10 -0.40 0.50 -0.40 0.85 0 2.40 -2.10 2.20 -2.95 -0.10 -0.30 0.40 -0.85 1.05 -1.20 0.65 -0.30 1.20 -0.80 1.20 -1.10 0 -0.25 0.65 -1.05 1.45 -1.75 0.80 -0.70 1.50 -1.75 1.60 -2.25 0.10 -0.55 0.60 -1.25 1.20 -1.55 0.60 -0.30 0.95 -0.70 0.75 -0.85 -0.15 -0.20 0.05 -0.35 0.55 -0.35 0.45 0 0.70 -0.20 0.55 -0.50 -0.15 -0.25 0.05 -0.50 0.50 -0.50 0.45 0 0.65 -0.20 0.50 -0.50 -0.15 -0.25 0.05 -0.50 0.50 -0.50 0.45 0 0.65 -0.20 0.50 -0.50 -0.15 -0.25 0.05 -0.50 0.50 -0.50 0.45 0 0.65 -0.20 0.50 -0.50 -0.15 -0.25 0.05 -0.50 0.50 -0.50 0.45 0 0.65 -0.20 0.50 -0.50 -0.15 -0.25 0.05 -0.50 0.50 -0.50 0.45 0 0.65 -0.20 0.50 -0.50 -0.15 -0.25 0.05 -0.50 0.50 -0.50 0.45 0 0.65 -0.20 0.50 -0.50 -0.15 -0.25 0.10 -0.50 0.55 -0.50 0.50 0 0.70 -0.15 0.55 -0.35 -0.50 -0.45 0.60 -1.65 1.50 -1.65 1.05 0 3.70 -2 3.40 -2.55 -0.20 -0.25 0.10 -0.45 0.55 -0.45 0.50 0 0.70 -0.15 0.55 -0.35 -0.50 -0.45 0.60 -1.65 1.50 -1.65 1.05 0 3.70 -2 3.40 -2.55 -0.20 -0.25 0.05 -0.45 0.50 -0.45 1 0 3.90 -2 3.50 -2.40 -0.15 -0.15 0.45 -0.55 1.35 -0.85 0.90 -0.30 1.60 -0.80 1.55 -1.10 -0.05 -0.30 0.55 -0.65 1.40 -0.85 0.85 -0.15 1.40 -0.50 1.20 -0.80 -0.20 -0.30 0.25 -0.50 0.95 -0.50 0.75 0 1.50 -0.40 1.80 -1 0.30 -0.55 1 -1 1.50 -1 0.55 0 1 -0.35 1 -0.75 0 -0.40 0.45 -0.75 1 -0.75 0.55 0 1 -0.20 1 -0.45 0 -0.25 0.70 -0.55 1.55 -0.75 0.85 -0.15 1.40 -0.50 1.20 -0.80 -0.20 -0.30 0.25 -0.50 1 -0.50 0.75 0 1.20 -0.20 1 -0.50 -0.20 -0.30 0.25 -0.50 1 -0.50 0.75 0 1.20 -0.20 1 -0.50 -0.20 -0.30 0.25 -0.50 1 -0.50 0.75 0 1.20 -0.20 1 -0.50 -0.20 -0.30 0.25 -0.50 1 -0.50 0.70 0 1.20 -0.20 1 -0.45 -0.15 -0.30 0.50 -0.65 1.50 -0.85 0.95 -0.15 1.75 -0.50 1.75 -0.75 0 -0.25 0.55 -0.45 1.20 -0.45 1.60 0 2.85 -0.50 2.55 -1.05 -0.15 -0.20 0.55 -0.55 1.60 -0.70 2.90 -0.50 3.70 -0.80 3.40 -1.25 -0.25 -0.45 1.40 -1 3.15 -1 0.60 0 1.10 -0.20 1.10 -0.50 0 -0.25 0.65 -0.50 1.45 -0.50 0.80 0 1.55 -0.20 1.65 -0.40 0.20 -0.50 6.50 -2.05 7.05 -1.70 0.50 0.25 0.20 2.90 -0.60 5.85 -0.95 3.45 -2.05 9.90 -2.05 12.25 0 5.60 2.45 14.65 5.60 20.75 4.60 8.95 12.15 16.15 21.90 21 3.90 1.95 9.25 3.50 14.90 4.30 5.10 0.70 10.25 0.10 17.20 -2.15 4.40 -1.40 12.35 -5.35 14.35 -7.10 4.95 -4.40 8.35 -8 10.25 -10.75 2.30 -3.45 5.30 -8.95 5.30 -9.70 0 -0.25 0.30 -1.15 0.70 -2 0.80 -1.85 1.50 -4.70 2.35 -9.55 0.70 -4.15 0.30 -9.60 -1.10 -15.05 -1.55 -5.95 -1.75 -7.70 -0.70 -8.05 0.45 -0.20 1.05 -0.10 1.40 0.25 0.30 0.30 0.95 0.55 1.45 0.55 0.50 0 1.45 0.35 2.10 0.75 0.65 0.45 1.40 0.75 1.60 0.65 0.25 -0.05 0.95 0.15 1.55 0.50 0.60 0.35 1.30 0.55 1.50 0.50 0.20 -0.05 0.90 0.15 1.50 0.50 0.60 0.35 1.30 0.55 1.50 0.50 0.20 -0.05 1.35 0.40 2.50 1 1.20 0.60 2.30 1.05 2.50 1 0.25 -0.05 1.55 0.45 2.90 1.10 3.15 1.50 15.30 7.50 17.20 8.55 2.30 1.25 11.50 7.45 14.70 9.95 1.65 1.25 3.45 2.60 4 3 0.60 0.40 2.25 1.80 3.70 3.10 1.40 1.30 2.85 2.40 3.10 2.40 0.30 0 0.55 0.35 0.55 0.75 0 0.40 0.25 0.75 0.60 0.75 0.55 0 7.50 6.95 7.45 7.50 0 0.15 0.50 0.50 1.10 0.85 0.60 0.30 1.05 0.70 0.95 0.90 -0.10 0.20 0.95 1.55 2.35 3.05 1.40 1.50 2.35 2.70 2.20 2.70 -0.20 0 0.70 1.10 2 2.40 1.30 1.35 2.20 2.55 2.05 2.75 -0.20 0.20 -0.10 0.35 0.20 0.35 0.35 0 0.60 0.35 0.60 0.75 0 0.35 0.40 0.95 0.90 1.20 0.45 0.30 0.65 0.55 0.45 0.55 -0.25 0 0.40 0.85 1.35 1.90 1 1 1.80 2.25 1.80 2.75 0 0.45 0.25 0.85 0.60 0.85 0.30 0 0.45 0.15 0.25 0.30 -0.15 0.20 0.05 0.65 0.45 1.05 0.40 0.40 0.60 0.95 0.45 1.20 -0.20 0.25 -0.05 0.45 0.20 0.45 0.30 0 0.55 0.35 0.55 0.75 0 0.35 0.30 0.90 0.70 1.10 0.80 0.50 2 2.65 1.45 2.65 -0.20 0 -0.15 0.20 0.20 0.40 0.30 0.20 0.65 0.70 0.75 1.10 0.10 0.40 0.45 1.05 0.80 1.40 0.35 0.40 0.50 0.85 0.35 1.10 -0.15 0.25 -0.05 0.50 0.20 0.60 0.25 0.05 0.55 0.50 0.65 0.90 0.10 0.40 0.45 1.05 0.80 1.45 0.35 0.35 0.55 1 0.40 1.35 -0.15 0.35 0.10 0.85 0.55 1.10 0.40 0.25 0.70 0.75 0.55 1.15 -0.15 0.40 0.10 1 0.45 1.40 0.40 0.35 0.60 1 0.45 1.40 -0.15 0.35 0.05 0.80 0.45 0.95 0.65 0.25 0.75 3.30 0.75 22.25 l0 21.95 -144 0 -144 0 0 -21.95z"/>
  <path d="M188.75 365.05 c-0.30 -0.25 -0.95 -0.55 -1.50 -0.70 -0.95 -0.20 -0.95 -0.25 0.05 -0.30 0.60 0 1.35 0.30 1.70 0.70 0.70 0.80 0.50 1 -0.25 0.30z"/>
  <path d="M145.70 185.90 c0.15 -0.65 0.25 -1.45 0.25 -1.75 0.05 -0.35 0.40 -0.65 0.80 -0.65 0.50 0 0.75 0.55 0.75 1.75 0 1.40 -0.20 1.75 -1 1.75 -0.75 0 -0.95 -0.25 -0.80 -1.10z"/>
  <path d="M320.50 119.75 c0 -1.40 0.20 -1.75 1 -1.75 0.75 0 0.95 0.25 0.80 1.15 -0.15 0.60 -0.25 1.40 -0.25 1.75 -0.05 0.30 -0.40 0.60 -0.80 0.60 -0.50 0 -0.75 -0.55 -0.75 -1.75z"/>
 </g>
 <g fill="#232444">
  <path d="M210.25 279.50 c-0.15 -0.25 -0.75 -0.50 -1.30 -0.50 -1.75 0 -6.25 -4.75 -7.15 -7.50 -0.95 -2.80 -1.05 -5.80 -0.25 -6.30 0.30 -0.20 0.45 -0.95 0.25 -1.90 -0.20 -1.10 -0.15 -1.35 0.20 -0.80 0.30 0.45 0.50 0.50 0.50 0.15 0 -0.75 3.90 -4.55 5.65 -5.45 0.75 -0.40 1.35 -1 1.35 -1.35 0 -0.35 0.15 -0.40 0.40 -0.10 0.40 0.60 6.10 0.70 5.75 0.10 -0.10 -0.20 0.60 0.20 1.65 0.90 2 1.35 2.70 1.55 2.70 0.75 0 -0.25 -0.20 -0.50 -0.50 -0.50 -0.25 0 -0.50 -0.25 -0.50 -0.60 0 -0.30 0.45 -0.15 1 0.35 0.75 0.70 0.85 1.05 0.40 1.30 -1 0.60 0.55 2.05 1.80 1.70 0.75 -0.25 0.85 -0.20 0.35 0.15 -0.55 0.40 -0.50 0.70 0.35 1.60 2.20 2.35 2.60 8.15 0.80 11.60 -1.15 2.20 -4.50 5.05 -7.10 6 -2.60 1 -5.85 1.20 -6.35 0.40z"/>
  <path d="M297.30 279.30 c-2.20 -0.80 -5.20 -3.55 -7.25 -6.60 -1.25 -1.80 -1.35 -2.30 -1.05 -4.60 0.20 -1.60 0.10 -2.80 -0.20 -3.15 -0.40 -0.45 -0.40 -0.50 0 -0.30 0.35 0.20 0.85 -0.30 1.20 -1.20 0.70 -1.65 5.35 -6.45 6.30 -6.45 0.30 0 0.85 -0.35 1.20 -0.75 0.35 -0.45 1.15 -0.60 2.05 -0.50 0.80 0.15 2.15 0.35 2.95 0.50 1.15 0.15 1.45 0.05 1.20 -0.40 -0.20 -0.30 0.10 -0.20 0.65 0.30 0.55 0.45 1.20 0.85 1.50 0.85 0.30 0 1.25 0.70 2.15 1.50 1.50 1.40 2.90 2.20 1.60 0.90 -0.90 -0.90 -0.75 -1.65 0.15 -0.90 0.45 0.35 0.65 1 0.50 1.40 -0.15 0.40 0.05 1.10 0.45 1.55 1.75 1.95 2.85 7.55 1.85 9.45 -0.25 0.45 -0.75 1.55 -1.05 2.35 -0.35 0.85 -1.65 2.40 -2.95 3.50 -1.35 1.10 -2.35 2.10 -2.25 2.25 0.05 0.15 -0.50 0.30 -1.20 0.35 -0.75 0.05 -2.35 0.25 -3.60 0.40 -1.35 0.15 -3 -0.05 -4.20 -0.45z"/>
  <path d="M145.05 221.85 c0.05 -32.55 0.20 -35.10 2 -45.35 0.95 -5.05 3.70 -14.80 4.45 -15.50 0.25 -0.25 1.25 -2.65 2.20 -5.35 0.30 -0.90 0.70 -1.65 0.90 -1.65 0.25 0 0.40 -0.45 0.40 -1 0 -0.55 0.20 -1 0.40 -1 0.25 0 0.70 -0.60 1.05 -1.35 0.85 -1.95 3.85 -6.35 4.75 -7.10 0.45 -0.40 0.80 -0.95 0.80 -1.30 0 -0.70 0.55 -1.40 8.15 -9.45 6.95 -7.40 15.35 -14.55 21.80 -18.55 0.40 -0.25 1.70 -1.10 2.80 -1.80 3.15 -2.05 6.20 -3.75 10.25 -5.75 2.05 -1 4.60 -2.25 5.65 -2.75 1.10 -0.50 2.25 -0.95 2.65 -0.95 0.40 0 1.15 -0.20 1.70 -0.50 0.55 -0.25 1.45 -0.75 2 -1 0.55 -0.30 1.45 -0.50 1.95 -0.50 0.55 0 1.15 -0.25 1.30 -0.50 0.15 -0.30 0.95 -0.50 1.75 -0.50 0.80 0 1.60 -0.25 1.75 -0.50 0.15 -0.30 1.05 -0.50 2 -0.50 0.95 0 1.85 -0.20 2 -0.50 0.15 -0.25 1.30 -0.50 2.50 -0.50 1.20 0 2.35 -0.25 2.50 -0.50 0.15 -0.30 2.20 -0.50 4.50 -0.50 2.50 0 4.35 -0.20 4.55 -0.55 0.50 -0.80 13.60 -0.05 25.95 1.50 2.20 0.30 5.95 0.75 8.35 1 2.40 0.25 4.60 0.60 4.85 0.75 0.90 0.55 25.20 0.35 25.75 -0.20 0.25 -0.25 1.70 -0.50 3.10 -0.50 1.45 0 2.80 -0.20 2.95 -0.50 0.15 -0.25 1.05 -0.50 2 -0.50 0.95 0 1.85 -0.25 2 -0.50 0.15 -0.30 0.95 -0.50 1.80 -0.50 0.80 0 1.45 -0.20 1.45 -0.50 0 -1.20 0.90 -0.30 1.90 1.85 2.30 5.10 2.50 8.10 1.05 17.15 -0.25 1.80 -0.60 4.20 -0.75 5.35 -0.15 1.20 -0.50 2.15 -0.75 2.15 -0.25 0 -0.45 0.65 -0.45 1.45 0 1.50 -0.05 1.50 5.75 6.05 7.80 6.15 19.25 16.80 19.25 17.95 0 0.15 0.90 1.15 1.95 2.30 2.40 2.40 5.15 6.25 9.40 13 1.50 2.35 4.65 8.80 4.65 9.45 0 0.40 0.20 0.80 0.40 0.90 0.40 0.15 2.95 7.40 3.70 10.65 2.25 9.70 2.50 12.95 2.70 41.75 l0.25 27.70 -1.15 -1.05 c-2.60 -2.40 -9.70 -5.15 -13.25 -5.15 l-1.65 0 0 -13.50 c0 -11.75 -0.10 -13.50 -0.75 -13.50 -0.45 0 -1 -0.55 -1.25 -1.25 -0.25 -0.70 -1 -1.45 -1.60 -1.70 -0.65 -0.25 -1.95 -1.25 -2.85 -2.25 -0.95 -1 -1.95 -1.80 -2.20 -1.80 -0.45 0 -1.95 -1.15 -6.55 -5.10 -1.20 -1.05 -2.65 -1.90 -3.25 -1.90 -0.70 0 -1.25 -0.45 -1.55 -1.25 -0.25 -0.70 -1 -1.45 -1.60 -1.70 -0.65 -0.25 -1.95 -1.25 -2.85 -2.25 -0.95 -1 -1.95 -1.80 -2.20 -1.80 -0.25 0 -1.35 -0.75 -2.40 -1.60 -1.10 -0.90 -2.90 -2.45 -4.10 -3.40 -1.15 -1 -2.95 -2.35 -3.95 -3 -1.05 -0.70 -1.90 -1.40 -1.90 -1.60 0 -0.25 -0.25 -0.40 -0.60 -0.40 -0.35 0 -1.20 -0.60 -1.95 -1.30 -1.35 -1.30 -2.45 -1.25 -2.45 0.10 0 1.05 -6.10 12.55 -7.45 14.05 -0.30 0.35 -0.55 0.80 -0.55 1 0 0.20 -0.70 1.10 -1.50 2 -0.85 0.90 -1.50 1.80 -1.50 2 0 0.65 -12.70 13.15 -13.30 13.15 -0.35 0 -0.85 0.35 -1.20 0.75 -0.35 0.45 -2.60 2.05 -4.95 3.65 -2.35 1.55 -4.35 3 -4.45 3.20 -0.10 0.25 -0.60 0.40 -1.15 0.40 -0.50 0 -0.95 0.20 -0.95 0.40 0 0.20 -1.10 0.95 -2.50 1.65 -1.35 0.65 -2.50 1.50 -2.50 1.80 0 0.35 -0.50 0.60 -1.10 0.50 -0.75 -0.05 -1.10 0.15 -1 0.55 0.10 0.50 -0.20 0.55 -0.95 0.35 -0.65 -0.20 -1.85 0.05 -3.15 0.65 -5.40 2.55 -19.75 6.10 -24.75 6.10 -0.95 0 -2.15 0.40 -2.65 0.85 -0.65 0.55 -1.10 0.70 -1.30 0.35 -0.20 -0.35 -3.55 -0.70 -8.10 -0.85 -9.05 -0.40 -20.65 -2.30 -23.60 -3.90 -0.50 -0.25 -1.35 -0.45 -1.85 -0.45 -0.55 0 -1.15 -0.20 -1.30 -0.50 -0.15 -0.25 -0.75 -0.50 -1.30 -0.50 -0.50 0 -1.35 -0.20 -1.85 -0.45 -2.60 -1.30 -5.70 -2.55 -6.35 -2.55 -0.40 0 -0.75 -0.25 -0.75 -0.55 0 -0.35 -0.55 -0.45 -1.50 -0.30 -0.80 0.20 -1.45 0.15 -1.35 -0.10 0.15 -0.55 -3.45 -3.05 -4.40 -3.05 -0.40 0 -0.75 -0.20 -0.75 -0.45 0 -0.25 -0.70 -0.70 -1.50 -1.05 -0.80 -0.35 -1.50 -0.85 -1.50 -1.10 0 -0.25 -0.45 -0.30 -1 -0.15 -0.70 0.25 -1 0.10 -1 -0.45 0 -0.45 -0.30 -0.80 -0.60 -0.80 -0.35 0 -1.35 -0.70 -2.25 -1.50 -0.90 -0.85 -1.80 -1.50 -2 -1.50 -0.25 0 -2 -1.55 -3.90 -3.50 -1.90 -1.90 -3.65 -3.50 -3.85 -3.50 -0.25 0 -0.40 7.45 -0.40 16.50 l0 16.50 -1.55 0 c-1.70 0 -8.10 2 -8.35 2.60 -0.10 0.25 -0.60 0.40 -1.10 0.40 -0.50 0 -1 0.20 -1.10 0.40 -0.05 0.20 -1 0.90 -2.05 1.50 l-1.85 1.10 0.05 -32.15z"/>
 </g>
 <g fill="#ffffff">
  <path d="M250.25 447.45 c-9.95 -1.60 -18.90 -5.90 -25.95 -12.50 -13 -12.10 -18.20 -30.55 -13.55 -47.70 1.75 -6.35 1.25 -6.05 6.25 -3.65 3.35 1.55 4.60 2.10 6.15 2.60 0.75 0.25 0.85 1.10 0.85 8 0 5.10 0.20 7.85 0.55 8.10 0.40 0.20 0.35 0.45 -0.10 0.75 -0.45 0.30 -0.50 0.60 -0.20 0.85 0.30 0.20 0.55 1.10 0.60 2.05 0.05 0.95 0.40 1.90 0.70 2.10 0.30 0.20 0.45 0.55 0.25 0.85 -0.15 0.25 0.05 0.75 0.45 1.10 0.35 0.30 0.60 0.85 0.45 1.20 -0.15 0.35 0.10 0.95 0.55 1.30 0.40 0.35 0.75 0.85 0.75 1.10 0 0.30 0.45 1.10 1 1.90 0.55 0.75 0.85 1.50 0.65 1.65 -0.15 0.20 0.10 0.45 0.55 0.65 0.45 0.15 0.80 0.55 0.80 0.80 0 2.40 12.25 11.40 15.50 11.40 0.55 0 1.05 0.20 1.20 0.45 0.80 1.30 13.35 2.20 14.50 1.05 0.30 -0.30 1.25 -0.50 2.10 -0.50 0.90 0 1.80 -0.20 1.95 -0.50 0.15 -0.25 0.75 -0.50 1.30 -0.50 0.50 0 1.40 -0.20 1.95 -0.50 0.55 -0.25 1.45 -0.70 2 -1 2.25 -1.15 3.35 -1.85 5.75 -3.70 1.35 -1.10 3 -2.55 3.65 -3.25 1.35 -1.50 4.95 -6.60 5.05 -7.15 0.05 -0.25 0.50 -1.20 1.05 -2.15 0.55 -1 1 -2.20 1 -2.65 0 -0.50 0.25 -1.15 0.60 -1.50 0.80 -0.80 0.95 -2.55 1.25 -12.75 0.20 -7.75 0.35 -8.95 1.05 -9.20 0.90 -0.25 3.20 -1.25 7.75 -3.40 1.60 -0.75 3.05 -1.20 3.20 -1.05 0.20 0.15 0.15 0.30 0 0.30 -0.20 0 0 0.85 0.35 1.90 1.75 4.50 2.45 8.95 2.50 15.10 0.05 7.85 -0.65 12.55 -2.50 16.85 -0.40 0.85 -0.70 1.75 -0.70 2 0 0.75 -3 6.25 -5.30 9.70 -2 2.95 -6.40 7.50 -10.40 10.80 -4 3.30 -15.35 8.20 -20.55 8.85 -4.70 0.60 -12 0.70 -15 0.25z"/>
  <path d="M309.50 259.25 c-0.35 -0.45 -0.55 -0.90 -0.40 -1 0.15 -0.15 0.55 0.05 0.90 0.50 0.35 0.45 0.55 0.90 0.40 1 -0.15 0.15 -0.55 -0.05 -0.90 -0.50z"/>
  <path d="M219.55 257.20 c-0.35 -0.40 -0.55 -0.85 -0.45 -1 0.15 -0.10 0.65 0.25 1.15 0.80 0.50 0.55 0.70 1 0.45 1 -0.25 -0.05 -0.75 -0.40 -1.15 -0.80z"/>
  <path d="M333.25 206.45 c-0.55 -0.85 -0.10 -0.90 0.95 -0.15 0.85 0.60 0.85 0.70 0.20 0.70 -0.45 0 -1 -0.25 -1.15 -0.55z"/>
 </g>
</svg>