<?xml version="1.0" encoding="UTF-8" standalone="no"?>
<!DOCTYPE svg PUBLIC "-//W3C//DTD SVG 1.1//EN" "http://www.w3.org/Graphics/SVG/1.1/DTD/svg11.dtd">
<svg xmlns="http://www.w3.org/2000/svg" version="1.1" viewBox="0.00 0.00 300.00 300.00">
<g stroke-width="0.00" fill="none" stroke-linecap="butt">
<path stroke="#63c39e" vector-effect="non-scaling-stroke" d="
  M 1.11 0.00
  C 0.60 12.80 1.03 29.53 0.99 38.32
  C 0.91 60.69 0.59 83.06 0.99 105.43
  C 1.32 124.08 0.76 143.16 0.77 161.32
  C 0.79 205.78 1.38 250.29 0.83 294.75
  Q 0.81 296.67 0.99 298.76
  Q 1.03 299.28 1.55 299.28
  C 100.47 298.54 185.90 299.44 298.51 299.19
  Q 299.00 299.19 299.00 298.69
  L 299.01 0.00"
/>
<path stroke="#38bbbf" vector-effect="non-scaling-stroke" d="
  M 222.49 2.96
  A 1.52 1.52 0.0 0 0 220.97 1.44
  A 1.52 1.52 0.0 0 0 219.45 2.96
  A 1.52 1.52 0.0 0 0 220.97 4.48
  A 1.52 1.52 0.0 0 0 222.49 2.96"
/>
<path stroke="#38bbbf" vector-effect="non-scaling-stroke" d="
  M 212.86 3.01
  L 213.98 4.45
  A 0.49 0.49 0.0 0 0 214.67 4.54
  L 214.78 4.46
  A 1.97 1.26 -37.7 0 0 215.56 2.26
  L 215.39 2.03
  A 1.97 1.26 -37.7 0 0 213.06 2.24
  L 212.95 2.33
  A 0.49 0.49 0.0 0 0 212.86 3.01"
/>
<path stroke="#38bbbf" vector-effect="non-scaling-stroke" d="
  M 228.11 4.17
  L 228.30 2.58
  A 0.98 0.98 0.0 0 0 226.41 2.13
  Q 225.72 4.02 227.54 4.55
  A 0.45 0.45 0.0 0 0 228.11 4.17"
/>
<path stroke="#9ad4bf" vector-effect="non-scaling-stroke" d="
  M 3.28 80.29
  L 3.26 122.47
  Q 3.26 122.98 3.61 123.35
  L 36.61 158.61
  Q 36.73 158.73 36.73 158.90
  Q 36.74 159.08 36.74 159.20"
/>
<path stroke="#95cfbb" vector-effect="non-scaling-stroke" d="
  M 36.74 159.20
  C 25.32 170.42 14.57 182.33 3.77 193.96
  A 1.92 1.88 -24.0 0 0 3.26 195.25
  L 3.26 258.29"
/>
<path stroke="#9ad4bf" vector-effect="non-scaling-stroke" d="
  M 3.26 258.29
  L 3.26 295.97
  Q 3.26 296.99 4.27 296.99
  L 174.71 296.98"
/>
<path stroke="#a1dbc5" vector-effect="non-scaling-stroke" d="
  M 174.71 296.98
  L 295.81 296.99
  A 0.70 0.70 0.0 0 0 296.51 296.29
  C 297.21 198.44 296.36 117.51 296.55 3.30
  Q 296.55 2.75 296.00 2.75
  L 278.50 2.75
  A 1.69 1.63 -66.5 0 0 277.34 3.23
  L 241.98 38.39"
/>
<path stroke="#9ad4bf" vector-effect="non-scaling-stroke" d="
  M 241.98 38.39
  L 228.44 24.82"
/>
<path stroke="#38bbbf" vector-effect="non-scaling-stroke" d="
  M 228.44 24.82
  Q 229.22 22.94 227.60 21.56
  Q 227.23 21.24 226.74 21.25
  L 224.98 21.28"
/>
<path stroke="#9ad4bf" vector-effect="non-scaling-stroke" d="
  M 224.98 21.28
  L 215.79 12.07"
/>
<path stroke="#38bbbf" vector-effect="non-scaling-stroke" d="
  M 215.79 12.07
  C 217.03 8.45 214.41 8.13 211.66 8.05"
/>
<path stroke="#9ad4bf" vector-effect="non-scaling-stroke" d="
  M 211.66 8.05
  L 206.77 3.12
  Q 206.41 2.76 205.90 2.76
  L 100.00 2.79"
/>
<path stroke="#95cfbb" vector-effect="non-scaling-stroke" d="
  M 100.00 2.79
  L 3.80 2.78
  Q 3.28 2.78 3.28 3.31
  L 3.28 80.29"
/>
<path stroke="#ecebef" vector-effect="non-scaling-stroke" d="
  M 100.00 2.79
  Q 85.13 3.21 70.25 2.94
  Q 68.89 2.91 68.25 4.40
  Q 68.06 4.82 67.61 4.72
  C 64.99 4.18 62.42 3.96 60.08 5.60
  C 58.67 6.60 52.49 11.66 54.83 13.16
  Q 55.31 13.46 54.75 13.49
  L 53.81 13.54
  A 0.03 0.03 0.0 0 0 53.79 13.59
  L 54.00 13.78
  Q 54.27 14.01 53.91 13.99
  C 52.87 13.91 52.78 14.95 53.12 15.59"
/>
<path stroke="#95cfbb" vector-effect="non-scaling-stroke" d="
  M 53.12 15.59
  L 56.52 24.00
  A 1.24 1.20 -44.1 0 1 56.49 24.98
  Q 54.67 28.79 53.38 32.81
  Q 53.26 33.17 53.62 33.30
  L 54.02 33.45"
/>
<path stroke="#ecebef" vector-effect="non-scaling-stroke" d="
  M 54.02 33.45
  L 51.67 33.35"
/>
<path stroke="#969598" vector-effect="non-scaling-stroke" d="
  M 51.67 33.35
  Q 52.25 31.52 51.96 30.31
  A 0.74 0.73 82.9 0 0 51.25 29.75
  L 41.80 29.75
  Q 41.10 29.75 41.08 30.45
  L 41.02 32.87
  Q 41.01 33.51 41.65 33.51
  L 47.49 33.51"
/>
<path stroke="#ecebef" vector-effect="non-scaling-stroke" d="
  M 47.49 33.51
  Q 47.08 34.09 47.84 34.58
  Q 48.62 35.10 47.99 35.02
  Q 47.48 34.95 46.94 35.67
  A 0.90 0.90 0.0 0 0 47.65 37.12
  L 62.91 37.31
  Q 63.60 37.32 63.34 37.96
  L 62.79 39.34
  Q 62.53 39.97 61.91 39.70
  Q 59.20 38.54 56.38 39.24
  Q 55.84 39.38 55.37 39.07
  Q 54.42 38.43 53.59 39.08
  Q 53.19 39.39 52.68 39.36
  Q 48.14 39.05 43.83 40.10
  A 1.18 1.17 -84.2 0 0 43.02 40.77
  L 41.24 44.78
  Q 41.11 45.06 40.84 45.21
  C 37.49 46.96 35.62 50.71 31.69 53.43
  Q 31.32 53.69 31.16 54.10
  Q 30.23 56.51 27.93 57.64
  Q 27.46 57.86 27.23 58.32
  C 24.30 64.04 19.54 66.06 15.74 70.43
  C 12.22 74.48 10.28 76.47 7.23 79.49
  Q 4.78 81.91 4.37 78.49
  Q 4.23 77.33 4.52 76.36
  Q 4.60 76.10 4.35 76.03
  Q 4.19 75.98 4.02 75.92
  Q 3.63 75.77 3.71 76.18
  Q 4.12 78.58 3.28 80.29"
/>
<path stroke="#8ed8f3" vector-effect="non-scaling-stroke" d="
  M 211.66 8.05
  Q 213.29 10.42 215.79 12.07"
/>
<path stroke="#8ed8f3" vector-effect="non-scaling-stroke" d="
  M 224.98 21.28
  L 228.44 24.82"
/>
<path stroke="#f8f8f9" vector-effect="non-scaling-stroke" d="
  M 241.98 38.39
  L 221.14 59.33"
/>
<path stroke="#9a9a9c" vector-effect="non-scaling-stroke" d="
  M 221.14 59.33
  Q 191.61 59.80 162.47 59.27"
/>
<path stroke="#9ad4bf" vector-effect="non-scaling-stroke" d="
  M 162.47 59.27
  L 162.44 50.18
  Q 162.44 49.50 161.76 49.50
  L 70.25 49.50
  Q 69.75 49.50 69.75 50.00
  L 69.75 148.02
  A 0.61 0.60 3.2 0 0 70.29 148.62
  Q 74.62 149.11 79.01 148.50"
/>
<path stroke="#9a9a9c" vector-effect="non-scaling-stroke" d="
  M 79.01 148.50
  L 79.00 200.00"
/>
<path stroke="#ecebef" vector-effect="non-scaling-stroke" d="
  M 79.00 200.00
  L 78.44 200.00
  Q 77.95 199.99 77.60 199.65
  L 37.44 159.39
  Q 37.31 159.25 37.12 159.26
  Q 36.93 159.26 36.74 159.20"
/>
<path stroke="#9a9a9c" vector-effect="non-scaling-stroke" d="
  M 47.49 33.51
  L 51.67 33.35"
/>
<path stroke="#9ad4bf" vector-effect="non-scaling-stroke" d="
  M 54.02 33.45
  C 57.35 34.12 56.92 31.22 58.45 29.35"
/>
<path stroke="#9a9a9c" vector-effect="non-scaling-stroke" d="
  M 58.45 29.35
  L 60.04 32.92
  Q 60.25 33.37 60.74 33.40
  L 63.15 33.54
  Q 63.89 33.58 63.61 32.90
  L 60.41 24.98"
/>
<path stroke="#9ad4bf" vector-effect="non-scaling-stroke" d="
  M 60.41 24.98
  L 60.59 23.25"
/>
<path stroke="#9a9a9c" vector-effect="non-scaling-stroke" d="
  M 60.59 23.25
  L 63.59 15.88
  A 0.44 0.44 0.0 0 0 63.18 15.27
  L 60.80 15.33
  Q 60.19 15.35 59.95 15.91
  L 58.54 19.26"
/>
<path stroke="#9ad4bf" vector-effect="non-scaling-stroke" d="
  M 58.54 19.26
  L 56.56 15.68
  Q 56.27 15.16 55.69 15.24
  L 53.12 15.59"
/>
<path stroke="#447e67" vector-effect="non-scaling-stroke" d="
  M 58.54 19.26
  Q 58.42 21.20 60.59 23.25"
/>
<path stroke="#447e67" vector-effect="non-scaling-stroke" d="
  M 60.41 24.98
  Q 58.83 27.12 58.45 29.35"
/>
<path stroke="#447e67" vector-effect="non-scaling-stroke" d="
  M 162.47 59.27
  L 79.49 59.51
  A 0.50 0.49 -90.0 0 0 79.00 60.01
  L 79.01 148.50"
/>
<path stroke="#ecebef" vector-effect="non-scaling-stroke" d="
  M 111.70 233.94
  L 107.96 235.91
  Q 107.45 236.18 107.00 235.82
  Q 102.98 232.64 97.76 232.00
  A 1.56 1.56 0.0 0 0 96.17 234.24
  C 98.39 238.77 102.66 243.04 101.12 248.31
  Q 100.96 248.88 100.50 248.50
  Q 97.83 246.22 95.23 247.92
  Q 94.70 248.27 94.62 247.64
  Q 94.51 246.73 94.01 246.63"
/>
<path stroke="#8ad3ef" vector-effect="non-scaling-stroke" d="
  M 94.01 246.63
  Q 94.42 245.24 94.22 244.26
  A 0.98 0.98 0.0 0 0 93.26 243.49
  L 40.15 243.51
  Q 39.57 243.51 39.57 244.09
  L 39.58 246.69"
/>
<path stroke="#ecebef" vector-effect="non-scaling-stroke" d="
  M 39.58 246.69
  Q 39.46 246.23 39.55 246.93
  A 0.02 0.02 0.0 0 0 39.57 246.95
  L 40.05 247.02
  Q 40.51 247.08 40.06 247.18
  Q 39.79 247.24 39.65 247.31
  Q 38.95 247.66 39.75 247.63
  L 44.06 247.46
  A 0.34 0.34 0.0 0 1 44.21 248.11
  Q 43.08 248.61 41.77 248.68
  A 1.68 1.68 0.0 0 0 40.93 248.97
  Q 33.31 254.23 24.58 251.55
  C 19.35 249.94 19.05 254.04 14.91 254.67
  C 10.75 255.29 7.68 252.11 4.02 255.24
  Q 3.63 255.57 3.72 256.07
  Q 4.00 257.71 3.26 258.29"
/>
<path stroke="#f8f8f9" vector-effect="non-scaling-stroke" d="
  M 174.71 296.98
  C 155.27 277.02 131.64 256.21 111.70 233.94"
/>
<path stroke="#f3f3f5" vector-effect="non-scaling-stroke" d="
  M 111.70 233.94
  L 81.85 203.85
  A 0.97 0.97 0.0 0 1 82.52 202.20
  L 91.76 202.03"
/>
<path stroke="#a2a2a2" vector-effect="non-scaling-stroke" d="
  M 91.76 202.03
  L 137.69 202.03"
/>
<path stroke="#a1dbc5" vector-effect="non-scaling-stroke" d="
  M 137.69 202.03
  L 137.55 211.79
  Q 137.54 212.25 138.01 212.25
  L 229.97 212.25
  A 0.54 0.53 0.0 0 0 230.51 211.72
  L 230.51 135.74"
/>
<path stroke="#96dff9" vector-effect="non-scaling-stroke" d="
  M 230.51 135.74
  Q 231.37 135.38 231.88 135.42
  A 1.15 1.15 0.0 0 0 232.57 133.29
  Q 231.64 132.73 230.56 133.28"
/>
<path stroke="#a1dbc5" vector-effect="non-scaling-stroke" d="
  M 230.56 133.28
  L 230.53 129.23"
/>
<path stroke="#96dff9" vector-effect="non-scaling-stroke" d="
  M 230.53 129.23
  L 232.45 128.76
  A 1.15 1.14 -51.9 0 0 232.18 126.50
  L 230.53 126.51"
/>
<path stroke="#a1dbc5" vector-effect="non-scaling-stroke" d="
  M 230.53 126.51
  L 230.53 122.48"
/>
<path stroke="#96dff9" vector-effect="non-scaling-stroke" d="
  M 230.53 122.48
  Q 232.27 122.69 232.93 121.64
  A 1.22 1.22 0.0 0 0 231.91 119.77
  L 230.54 119.76"
/>
<path stroke="#a1dbc5" vector-effect="non-scaling-stroke" d="
  M 230.54 119.76
  L 230.51 113.82
  A 0.87 0.87 0.0 0 0 229.65 112.95
  L 221.24 112.82"
/>
<path stroke="#a2a2a2" vector-effect="non-scaling-stroke" d="
  M 221.24 112.82
  L 221.14 59.33"
/>
<path stroke="#447e67" vector-effect="non-scaling-stroke" d="
  M 221.24 112.82
  L 221.25 201.43
  A 0.58 0.58 0.0 0 1 220.67 202.01
  L 137.69 202.03"
/>
<path stroke="#969598" vector-effect="non-scaling-stroke" d="
  M 91.76 202.03
  L 79.73 201.98
  Q 79.18 201.98 79.03 201.45
  Q 78.87 200.85 79.00 200.00"
/>
<path stroke="#8ed8f3" vector-effect="non-scaling-stroke" d="
  M 39.58 246.69
  L 94.01 246.63"
/>
<path stroke="#38bbbf" vector-effect="non-scaling-stroke" d="
  M 230.54 119.76
  Q 230.12 121.25 230.53 122.48"
/>
<path stroke="#38bbbf" vector-effect="non-scaling-stroke" d="
  M 230.53 126.51
  L 230.53 129.23"
/>
<path stroke="#38bbbf" vector-effect="non-scaling-stroke" d="
  M 230.56 133.28
  Q 230.10 134.72 230.51 135.74"
/>
<path stroke="#38bbbf" vector-effect="non-scaling-stroke" d="
  M 222.42 9.58
  A 1.45 1.45 0.0 0 0 220.97 8.13
  A 1.45 1.45 0.0 0 0 219.52 9.58
  A 1.45 1.45 0.0 0 0 220.97 11.03
  A 1.45 1.45 0.0 0 0 222.42 9.58"
/>
<path stroke="#38bbbf" vector-effect="non-scaling-stroke" d="
  M 227.8288 10.9389
  A 1.39 1.12 71.6 0 0 228.4527 9.2665
  A 1.39 1.12 71.6 0 0 226.9512 8.3011
  A 1.39 1.12 71.6 0 0 226.3273 9.9735
  A 1.39 1.12 71.6 0 0 227.8288 10.9389"
/>
<path stroke="#38bbbf" vector-effect="non-scaling-stroke" d="
  M 228.0655 17.3286
  A 1.37 1.17 64.7 0 0 228.5378 15.5900
  A 1.37 1.17 64.7 0 0 226.8945 14.8514
  A 1.37 1.17 64.7 0 0 226.4222 16.5900
  A 1.37 1.17 64.7 0 0 228.0655 17.3286"
/>
<path stroke="#95cfbb" vector-effect="non-scaling-stroke" d="
  M 16.21 11.12
  A 2.46 2.46 0.0 0 0 13.75 8.66
  A 2.46 2.46 0.0 0 0 11.29 11.12
  A 2.46 2.46 0.0 0 0 13.75 13.58
  A 2.46 2.46 0.0 0 0 16.21 11.12"
/>
<path stroke="#969598" vector-effect="non-scaling-stroke" d="
  M 15.50 15.82
  A 0.31 0.31 0.0 0 0 15.19 15.51
  L 12.31 15.51
  A 0.31 0.31 0.0 0 0 12.00 15.82
  L 12.00 33.20
  A 0.31 0.31 0.0 0 0 12.31 33.51
  L 15.19 33.51
  A 0.31 0.31 0.0 0 0 15.50 33.20
  L 15.50 15.82"
/>
<path stroke="#969598" vector-effect="non-scaling-stroke" d="
  M 24.24 22.22
  A 0.29 0.29 0.0 0 1 23.68 22.34
  L 20.78 16.05
  Q 20.53 15.50 19.92 15.50
  L 17.50 15.50
  Q 16.99 15.50 17.01 16.01
  Q 17.24 24.42 16.91 32.84
  Q 16.88 33.55 17.60 33.52
  L 19.95 33.44
  Q 20.50 33.42 20.50 32.87
  L 20.50 24.96
  A 0.30 0.30 0.0 0 1 21.06 24.81
  Q 23.28 28.73 24.47 33.06
  Q 24.59 33.50 25.04 33.50
  L 26.87 33.50
  Q 27.50 33.50 27.50 32.87
  L 27.50 16.00
  Q 27.50 15.50 27.00 15.50
  L 24.75 15.50
  Q 24.25 15.50 24.25 16.00
  L 24.24 22.22"
/>
<path stroke="#969598" vector-effect="non-scaling-stroke" d="
  M 29.14 15.69
  L 29.14 33.27
  A 0.22 0.22 0.0 0 0 29.36 33.49
  L 36.26 33.49
  A 3.73 3.52 90.0 0 0 39.78 29.76
  L 39.78 19.20
  A 3.73 3.52 90.0 0 0 36.26 15.47
  L 29.36 15.47
  A 0.22 0.22 0.0 0 0 29.14 15.69"
/>
<path stroke="#969598" vector-effect="non-scaling-stroke" d="
  M 51.7721 16.0294
  A 0.52 0.52 0.0 0 0 51.2530 15.5085
  L 41.5531 15.4915
  A 0.52 0.52 0.0 0 0 41.0322 16.0106
  L 41.0279 18.4706
  A 0.52 0.52 0.0 0 0 41.5470 18.9915
  L 51.2469 19.0085
  A 0.52 0.52 0.0 0 0 51.7678 18.4894
  L 51.7721 16.0294"
/>
<path stroke="#95cfbb" vector-effect="non-scaling-stroke" d="
  M 52.0150 23.5688
  A 1.02 1.02 0.0 0 0 51.0004 22.5435
  L 42.0405 22.4966
  A 1.02 1.02 0.0 0 0 41.0152 23.5112
  L 41.0050 25.4512
  A 1.02 1.02 0.0 0 0 42.0196 26.4765
  L 50.9795 26.5234
  A 1.02 1.02 0.0 0 0 52.0048 25.5088
  L 52.0150 23.5688"
/>
<path stroke="#8ed8f3" vector-effect="non-scaling-stroke" d="
  M 215.3151 17.3210
  A 1.48 1.32 52.3 0 0 215.4544 15.3428
  A 1.48 1.32 52.3 0 0 213.5049 14.9790
  A 1.48 1.32 52.3 0 0 213.3656 16.9572
  A 1.48 1.32 52.3 0 0 215.3151 17.3210"
/>
<path stroke="#8ed8f3" vector-effect="non-scaling-stroke" d="
  M 215.86 22.77
  A 1.44 1.44 0.0 0 0 214.42 21.33
  A 1.44 1.44 0.0 0 0 212.98 22.77
  A 1.44 1.44 0.0 0 0 214.42 24.21
  A 1.44 1.44 0.0 0 0 215.86 22.77"
/>
<path stroke="#8ed8f3" vector-effect="non-scaling-stroke" d="
  M 222.1418 23.7159
  A 1.57 1.40 38.9 0 0 221.7991 21.6405
  A 1.57 1.40 38.9 0 0 219.6982 21.7441
  A 1.57 1.40 38.9 0 0 220.0409 23.8195
  A 1.57 1.40 38.9 0 0 222.1418 23.7159"
/>
<path stroke="#8ed8f3" vector-effect="non-scaling-stroke" d="
  M 215.89 29.36
  A 1.44 1.44 0.0 0 0 214.45 27.92
  A 1.44 1.44 0.0 0 0 213.01 29.36
  A 1.44 1.44 0.0 0 0 214.45 30.80
  A 1.44 1.44 0.0 0 0 215.89 29.36"
/>
<path stroke="#8ed8f3" vector-effect="non-scaling-stroke" d="
  M 222.40 29.39
  A 1.47 1.47 0.0 0 0 220.93 27.92
  A 1.47 1.47 0.0 0 0 219.46 29.39
  A 1.47 1.47 0.0 0 0 220.93 30.86
  A 1.47 1.47 0.0 0 0 222.40 29.39"
/>
<path stroke="#8ed8f3" vector-effect="non-scaling-stroke" d="
  M 228.86 29.40
  A 1.38 1.38 0.0 0 0 227.48 28.02
  A 1.38 1.38 0.0 0 0 226.10 29.40
  A 1.38 1.38 0.0 0 0 227.48 30.78
  A 1.38 1.38 0.0 0 0 228.86 29.40"
/>
<path stroke="#8ed8f3" vector-effect="non-scaling-stroke" d="
  M 215.95 36.00
  A 1.49 1.49 0.0 0 0 214.46 34.51
  A 1.49 1.49 0.0 0 0 212.97 36.00
  A 1.49 1.49 0.0 0 0 214.46 37.49
  A 1.49 1.49 0.0 0 0 215.95 36.00"
/>
<path stroke="#8ed8f3" vector-effect="non-scaling-stroke" d="
  M 222.45 36.05
  A 1.47 1.47 0.0 0 0 220.98 34.58
  A 1.47 1.47 0.0 0 0 219.51 36.05
  A 1.47 1.47 0.0 0 0 220.98 37.52
  A 1.47 1.47 0.0 0 0 222.45 36.05"
/>
<path stroke="#8ed8f3" vector-effect="non-scaling-stroke" d="
  M 228.87 36.08
  A 1.37 1.37 0.0 0 0 227.50 34.71
  A 1.37 1.37 0.0 0 0 226.13 36.08
  A 1.37 1.37 0.0 0 0 227.50 37.45
  A 1.37 1.37 0.0 0 0 228.87 36.08"
/>
<path stroke="#8ed8f3" vector-effect="non-scaling-stroke" d="
  M 51.60 63.68
  A 0.61 0.60 44.1 0 0 50.72 63.69
  L 47.31 67.40
  Q 46.74 68.01 47.49 68.39
  L 48.13 68.71
  A 0.81 0.80 35.8 0 0 49.06 68.56
  L 50.84 66.79
  A 0.61 0.60 46.9 0 1 51.73 66.82
  L 52.98 68.24
  Q 53.28 68.58 53.71 68.71
  Q 54.84 69.05 55.11 67.97
  Q 55.26 67.40 54.84 66.98
  L 51.60 63.68"
/>
<path stroke="#8ed8f3" vector-effect="non-scaling-stroke" d="
  M 50.56 69.81
  L 47.36 73.05
  Q 46.86 73.56 47.39 74.04
  L 48.04 74.62
  Q 48.40 74.95 48.76 74.60
  L 50.92 72.48
  A 0.56 0.56 0.0 0 1 51.80 72.60
  Q 52.46 73.72 53.52 74.60
  A 1.13 1.13 0.0 0 0 55.04 72.93
  L 51.94 69.81
  Q 51.25 69.11 50.56 69.81"
/>
<path stroke="#8ed8f3" vector-effect="non-scaling-stroke" d="
  M 52.21 78.96
  Q 52.72 80.02 53.71 80.52
  A 1.07 1.06 -9.0 0 0 54.95 78.82
  L 51.62 75.49
  A 0.71 0.71 0.0 0 0 50.61 75.50
  L 47.36 78.82
  A 1.05 1.05 0.0 0 0 48.57 80.50
  Q 49.63 79.98 50.10 78.97
  A 1.17 1.17 0.0 0 1 52.21 78.96"
/>
<path stroke="#8ed8f3" vector-effect="non-scaling-stroke" d="
  M 53.37 83.29
  L 51.72 81.31
  A 0.63 0.62 -42.4 0 0 50.79 81.27
  L 47.44 84.72
  A 1.04 1.04 0.0 0 0 48.84 86.26
  Q 49.74 85.53 50.23 84.62
  A 0.77 0.77 0.0 0 1 51.07 84.22
  Q 52.33 84.47 52.79 85.64
  A 1.15 1.14 -52.9 0 0 55.00 85.33
  Q 55.09 84.35 54.12 83.88
  Q 53.68 83.67 53.37 83.29"
/>
<path stroke="#8ed8f3" vector-effect="non-scaling-stroke" d="
  M 50.57 87.29
  L 47.26 90.77
  A 0.88 0.87 11.3 0 0 48.21 92.19
  Q 49.82 91.59 50.74 89.94
  A 0.32 0.32 0.0 0 1 51.19 89.82
  C 52.31 90.50 53.85 93.56 55.01 91.51
  Q 55.30 90.99 54.89 90.55
  L 51.76 87.28
  Q 51.16 86.66 50.57 87.29"
/>
<path stroke="#8ed8f3" vector-effect="non-scaling-stroke" d="
  M 56.9900 157.9697
  A 1.07 1.07 0.0 0 0 55.8058 157.0277
  L 55.4282 157.0708
  A 1.07 1.07 0.0 0 0 54.4862 158.2550
  L 54.5700 158.9903
  A 1.07 1.07 0.0 0 0 55.7542 159.9323
  L 56.1318 159.8892
  A 1.07 1.07 0.0 0 0 57.0738 158.7050
  L 56.9900 157.9697"
/>
<path stroke="#8ed8f3" vector-effect="non-scaling-stroke" d="
  M 63.77 158.41
  A 1.49 1.49 0.0 0 0 62.28 156.92
  A 1.49 1.49 0.0 0 0 60.79 158.41
  A 1.49 1.49 0.0 0 0 62.28 159.90
  A 1.49 1.49 0.0 0 0 63.77 158.41"
/>
<path stroke="#8ed8f3" vector-effect="non-scaling-stroke" d="
  M 70.31 158.44
  A 1.46 1.46 0.0 0 0 68.85 156.98
  A 1.46 1.46 0.0 0 0 67.39 158.44
  A 1.46 1.46 0.0 0 0 68.85 159.90
  A 1.46 1.46 0.0 0 0 70.31 158.44"
/>
<path stroke="#8ed8f3" vector-effect="non-scaling-stroke" d="
  M 76.87 158.41
  A 1.51 1.51 0.0 0 0 75.36 156.90
  A 1.51 1.51 0.0 0 0 73.85 158.41
  A 1.51 1.51 0.0 0 0 75.36 159.92
  A 1.51 1.51 0.0 0 0 76.87 158.41"
/>
<path stroke="#8ed8f3" vector-effect="non-scaling-stroke" d="
  M 57.24 165.05
  A 1.44 1.44 0.0 0 0 55.80 163.61
  A 1.44 1.44 0.0 0 0 54.36 165.05
  A 1.44 1.44 0.0 0 0 55.80 166.49
  A 1.44 1.44 0.0 0 0 57.24 165.05"
/>
<path stroke="#8ed8f3" vector-effect="non-scaling-stroke" d="
  M 63.78 164.99
  A 1.47 1.47 0.0 0 0 62.31 163.52
  A 1.47 1.47 0.0 0 0 60.84 164.99
  A 1.47 1.47 0.0 0 0 62.31 166.46
  A 1.47 1.47 0.0 0 0 63.78 164.99"
/>
<path stroke="#8ed8f3" vector-effect="non-scaling-stroke" d="
  M 70.33 165.01
  A 1.50 1.50 0.0 0 0 68.83 163.51
  A 1.50 1.50 0.0 0 0 67.33 165.01
  A 1.50 1.50 0.0 0 0 68.83 166.51
  A 1.50 1.50 0.0 0 0 70.33 165.01"
/>
<path stroke="#8ed8f3" vector-effect="non-scaling-stroke" d="
  M 76.87 165.03
  A 1.44 1.44 0.0 0 0 75.43 163.59
  A 1.44 1.44 0.0 0 0 73.99 165.03
  A 1.44 1.44 0.0 0 0 75.43 166.47
  A 1.44 1.44 0.0 0 0 76.87 165.03"
/>
<path stroke="#8ed8f3" vector-effect="non-scaling-stroke" d="
  M 57.15 171.63
  A 1.42 1.42 0.0 0 0 55.73 170.21
  A 1.42 1.42 0.0 0 0 54.31 171.63
  A 1.42 1.42 0.0 0 0 55.73 173.05
  A 1.42 1.42 0.0 0 0 57.15 171.63"
/>
<path stroke="#8ed8f3" vector-effect="non-scaling-stroke" d="
  M 63.79 171.61
  A 1.46 1.46 0.0 0 0 62.33 170.15
  A 1.46 1.46 0.0 0 0 60.87 171.61
  A 1.46 1.46 0.0 0 0 62.33 173.07
  A 1.46 1.46 0.0 0 0 63.79 171.61"
/>
<path stroke="#8ed8f3" vector-effect="non-scaling-stroke" d="
  M 70.31 171.65
  A 1.46 1.46 0.0 0 0 68.85 170.19
  A 1.46 1.46 0.0 0 0 67.39 171.65
  A 1.46 1.46 0.0 0 0 68.85 173.11
  A 1.46 1.46 0.0 0 0 70.31 171.65"
/>
<path stroke="#8ed8f3" vector-effect="non-scaling-stroke" d="
  M 76.87 171.66
  A 1.44 1.44 0.0 0 0 75.43 170.22
  A 1.44 1.44 0.0 0 0 73.99 171.66
  A 1.44 1.44 0.0 0 0 75.43 173.10
  A 1.44 1.44 0.0 0 0 76.87 171.66"
/>
<path stroke="#96dff9" vector-effect="non-scaling-stroke" d="
  M 239.54 121.04
  A 1.42 1.42 0.0 0 0 238.12 119.62
  A 1.42 1.42 0.0 0 0 236.70 121.04
  A 1.42 1.42 0.0 0 0 238.12 122.46
  A 1.42 1.42 0.0 0 0 239.54 121.04"
/>
<path stroke="#96dff9" vector-effect="non-scaling-stroke" d="
  M 239.63 127.67
  A 1.47 1.47 0.0 0 0 238.16 126.20
  A 1.47 1.47 0.0 0 0 236.69 127.67
  A 1.47 1.47 0.0 0 0 238.16 129.14
  A 1.47 1.47 0.0 0 0 239.63 127.67"
/>
<path stroke="#96dff9" vector-effect="non-scaling-stroke" d="
  M 239.57 134.29
  A 1.41 1.41 0.0 0 0 238.16 132.88
  A 1.41 1.41 0.0 0 0 236.75 134.29
  A 1.41 1.41 0.0 0 0 238.16 135.70
  A 1.41 1.41 0.0 0 0 239.57 134.29"
/>
<path stroke="#96dff9" vector-effect="non-scaling-stroke" d="
  M 274.17 221.04
  C 272.90 221.69 271.49 223.53 270.61 224.53
  Q 270.24 224.95 270.62 225.37
  L 273.45 228.54
  A 1.06 0.93 24.7 0 0 275.26 228.00
  L 275.24 227.68
  Q 275.20 227.25 274.89 226.95
  L 273.39 225.53
  A 0.69 0.69 0.0 0 1 273.37 224.55
  L 275.29 222.55
  A 0.95 0.95 0.0 0 0 274.17 221.04"
/>
<path stroke="#96dff9" vector-effect="non-scaling-stroke" d="
  M 250.19 224.58
  L 252.08 222.48
  A 0.73 0.73 0.0 0 0 251.68 221.27
  C 250.33 221.02 248.08 223.65 247.42 224.72
  Q 247.11 225.24 247.54 225.66
  L 250.42 228.55
  A 1.05 1.04 -52.2 0 0 252.06 228.34
  L 252.22 228.08
  A 0.64 0.63 36.1 0 0 252.09 227.28
  L 250.24 225.64
  A 0.75 0.74 -48.0 0 1 250.19 224.58"
/>
<path stroke="#96dff9" vector-effect="non-scaling-stroke" d="
  M 256.07 224.43
  L 257.83 222.49
  A 0.80 0.80 0.0 0 0 256.87 221.24
  Q 254.64 222.42 253.29 224.58
  A 0.71 0.71 0.0 0 0 253.37 225.44
  C 254.32 226.50 256.45 229.81 257.99 228.36
  Q 258.37 228.00 258.02 227.62
  L 256.07 225.50
  A 0.80 0.79 -45.3 0 1 256.07 224.43"
/>
<path stroke="#96dff9" vector-effect="non-scaling-stroke" d="
  M 262.24 224.08
  L 263.68 222.32
  A 0.92 0.92 0.0 0 0 262.32 221.09
  L 259.01 224.40
  A 0.69 0.69 0.0 0 0 259.01 225.38
  L 262.19 228.56
  A 0.96 0.95 39.8 0 0 263.65 228.43
  C 264.38 227.39 262.26 226.25 262.00 225.09
  A 1.22 1.21 -31.9 0 1 262.24 224.08"
/>
<path stroke="#96dff9" vector-effect="non-scaling-stroke" d="
  M 269.58 221.81
  C 268.50 219.82 265.57 223.69 264.78 224.47
  Q 264.31 224.94 264.78 225.41
  L 268.22 228.82
  A 0.80 0.80 0.0 0 0 269.55 228.03
  Q 269.08 226.46 267.61 225.59
  A 0.62 0.62 0.0 0 1 267.47 224.64
  L 269.50 222.46
  Q 269.77 222.17 269.58 221.81"
/>
<path stroke="#96dff9" vector-effect="non-scaling-stroke" d="
  M 254.06 243.94
  Q 230.14 243.12 206.19 243.62
  Q 205.71 243.63 205.73 244.11
  L 205.81 246.40
  A 0.48 0.47 -1.2 0 0 206.30 246.86
  C 224.20 246.32 242.04 247.01 259.95 246.06
  Q 260.52 246.03 260.51 245.45
  L 260.47 244.15
  Q 260.46 243.63 259.94 243.67
  Q 255.91 244.00 254.06 243.94"
/>
<path stroke="#96dff9" vector-effect="non-scaling-stroke" d="
  M 266.59 267.59
  A 1.50 1.50 0.0 0 0 265.09 266.09
  A 1.50 1.50 0.0 0 0 263.59 267.59
  A 1.50 1.50 0.0 0 0 265.09 269.09
  A 1.50 1.50 0.0 0 0 266.59 267.59"
/>
<path stroke="#96dff9" vector-effect="non-scaling-stroke" d="
  M 292.79 267.53
  A 1.46 1.46 0.0 0 0 291.33 266.07
  A 1.46 1.46 0.0 0 0 289.87 267.53
  A 1.46 1.46 0.0 0 0 291.33 268.99
  A 1.46 1.46 0.0 0 0 292.79 267.53"
/>
<path stroke="#96dff9" vector-effect="non-scaling-stroke" d="
  M 273.19 267.57
  A 1.47 1.47 0.0 0 0 271.72 266.10
  A 1.47 1.47 0.0 0 0 270.25 267.57
  A 1.47 1.47 0.0 0 0 271.72 269.04
  A 1.47 1.47 0.0 0 0 273.19 267.57"
/>
<path stroke="#96dff9" vector-effect="non-scaling-stroke" d="
  M 279.70 267.54
  A 1.47 1.47 0.0 0 0 278.23 266.07
  A 1.47 1.47 0.0 0 0 276.76 267.54
  A 1.47 1.47 0.0 0 0 278.23 269.01
  A 1.47 1.47 0.0 0 0 279.70 267.54"
/>
<path stroke="#96dff9" vector-effect="non-scaling-stroke" d="
  M 286.29 267.58
  A 1.47 1.47 0.0 0 0 284.82 266.11
  A 1.47 1.47 0.0 0 0 283.35 267.58
  A 1.47 1.47 0.0 0 0 284.82 269.05
  A 1.47 1.47 0.0 0 0 286.29 267.58"
/>
<path stroke="#96dff9" vector-effect="non-scaling-stroke" d="
  M 286.37 274.17
  A 1.56 1.56 0.0 0 0 284.81 272.61
  A 1.56 1.56 0.0 0 0 283.25 274.17
  A 1.56 1.56 0.0 0 0 284.81 275.73
  A 1.56 1.56 0.0 0 0 286.37 274.17"
/>
<path stroke="#96dff9" vector-effect="non-scaling-stroke" d="
  M 266.7293 274.2281
  A 1.62 1.48 1.7 0 0 265.1539 272.7007
  A 1.62 1.48 1.7 0 0 263.4907 274.1319
  A 1.62 1.48 1.7 0 0 265.0661 275.6593
  A 1.62 1.48 1.7 0 0 266.7293 274.2281"
/>
<path stroke="#96dff9" vector-effect="non-scaling-stroke" d="
  M 273.25 274.14
  A 1.52 1.52 0.0 0 0 271.73 272.62
  A 1.52 1.52 0.0 0 0 270.21 274.14
  A 1.52 1.52 0.0 0 0 271.73 275.66
  A 1.52 1.52 0.0 0 0 273.25 274.14"
/>
<path stroke="#96dff9" vector-effect="non-scaling-stroke" d="
  M 279.81 274.14
  A 1.55 1.55 0.0 0 0 278.26 272.59
  A 1.55 1.55 0.0 0 0 276.71 274.14
  A 1.55 1.55 0.0 0 0 278.26 275.69
  A 1.55 1.55 0.0 0 0 279.81 274.14"
/>
<path stroke="#96dff9" vector-effect="non-scaling-stroke" d="
  M 292.83 274.16
  A 1.44 1.44 0.0 0 0 291.39 272.72
  A 1.44 1.44 0.0 0 0 289.95 274.16
  A 1.44 1.44 0.0 0 0 291.39 275.60
  A 1.44 1.44 0.0 0 0 292.83 274.16"
/>
<path stroke="#96dff9" vector-effect="non-scaling-stroke" d="
  M 266.66 280.82
  A 1.55 1.55 0.0 0 0 265.11 279.27
  A 1.55 1.55 0.0 0 0 263.56 280.82
  A 1.55 1.55 0.0 0 0 265.11 282.37
  A 1.55 1.55 0.0 0 0 266.66 280.82"
/>
<path stroke="#96dff9" vector-effect="non-scaling-stroke" d="
  M 273.23 280.83
  A 1.52 1.52 0.0 0 0 271.71 279.31
  A 1.52 1.52 0.0 0 0 270.19 280.83
  A 1.52 1.52 0.0 0 0 271.71 282.35
  A 1.52 1.52 0.0 0 0 273.23 280.83"
/>
<path stroke="#96dff9" vector-effect="non-scaling-stroke" d="
  M 279.77 280.80
  A 1.52 1.52 0.0 0 0 278.25 279.28
  A 1.52 1.52 0.0 0 0 276.73 280.80
  A 1.52 1.52 0.0 0 0 278.25 282.32
  A 1.52 1.52 0.0 0 0 279.77 280.80"
/>
<path stroke="#96dff9" vector-effect="non-scaling-stroke" d="
  M 286.33 280.81
  A 1.52 1.52 0.0 0 0 284.81 279.29
  A 1.52 1.52 0.0 0 0 283.29 280.81
  A 1.52 1.52 0.0 0 0 284.81 282.33
  A 1.52 1.52 0.0 0 0 286.33 280.81"
/>
<path stroke="#96dff9" vector-effect="non-scaling-stroke" d="
  M 292.82 280.78
  A 1.52 1.52 0.0 0 0 291.30 279.26
  A 1.52 1.52 0.0 0 0 289.78 280.78
  A 1.52 1.52 0.0 0 0 291.30 282.30
  A 1.52 1.52 0.0 0 0 292.82 280.78"
/>
<path stroke="#969598" vector-effect="non-scaling-stroke" d="
  M 36.2063 19.5578
  A 0.54 0.54 0.0 0 0 35.6626 19.0215
  L 33.2026 19.0387
  A 0.54 0.54 0.0 0 0 32.6664 19.5825
  L 32.7337 29.2222
  A 0.54 0.54 0.0 0 0 33.2774 29.7585
  L 35.7374 29.7413
  A 0.54 0.54 0.0 0 0 36.2736 29.1975
  L 36.2063 19.5578"
/>
<path stroke="#8ad3ef" vector-effect="non-scaling-stroke" d="
  M 31.75 195.39
  A 1.41 1.41 0.0 0 0 30.34 193.98
  A 1.41 1.41 0.0 0 0 28.93 195.39
  A 1.41 1.41 0.0 0 0 30.34 196.80
  A 1.41 1.41 0.0 0 0 31.75 195.39"
/>
<path stroke="#8ad3ef" vector-effect="non-scaling-stroke" d="
  M 38.26 195.38
  A 1.43 1.43 0.0 0 0 36.83 193.95
  A 1.43 1.43 0.0 0 0 35.40 195.38
  A 1.43 1.43 0.0 0 0 36.83 196.81
  A 1.43 1.43 0.0 0 0 38.26 195.38"
/>
<path stroke="#8ad3ef" vector-effect="non-scaling-stroke" d="
  M 44.77 195.36
  A 1.41 1.41 0.0 0 0 43.36 193.95
  A 1.41 1.41 0.0 0 0 41.95 195.36
  A 1.41 1.41 0.0 0 0 43.36 196.77
  A 1.41 1.41 0.0 0 0 44.77 195.36"
/>
<path stroke="#8ad3ef" vector-effect="non-scaling-stroke" d="
  M 31.81 201.96
  A 1.45 1.45 0.0 0 0 30.36 200.51
  A 1.45 1.45 0.0 0 0 28.91 201.96
  A 1.45 1.45 0.0 0 0 30.36 203.41
  A 1.45 1.45 0.0 0 0 31.81 201.96"
/>
<path stroke="#8ad3ef" vector-effect="non-scaling-stroke" d="
  M 38.33 202.03
  A 1.46 1.46 0.0 0 0 36.87 200.57
  A 1.46 1.46 0.0 0 0 35.41 202.03
  A 1.46 1.46 0.0 0 0 36.87 203.49
  A 1.46 1.46 0.0 0 0 38.33 202.03"
/>
<path stroke="#8ad3ef" vector-effect="non-scaling-stroke" d="
  M 44.83 201.99
  A 1.41 1.41 0.0 0 0 43.42 200.58
  A 1.41 1.41 0.0 0 0 42.01 201.99
  A 1.41 1.41 0.0 0 0 43.42 203.40
  A 1.41 1.41 0.0 0 0 44.83 201.99"
/>
<path stroke="#8ad3ef" vector-effect="non-scaling-stroke" d="
  M 31.73 208.59
  A 1.41 1.41 0.0 0 0 30.32 207.18
  A 1.41 1.41 0.0 0 0 28.91 208.59
  A 1.41 1.41 0.0 0 0 30.32 210.00
  A 1.41 1.41 0.0 0 0 31.73 208.59"
/>
<path stroke="#8ad3ef" vector-effect="non-scaling-stroke" d="
  M 38.25 208.63
  A 1.41 1.41 0.0 0 0 36.84 207.22
  A 1.41 1.41 0.0 0 0 35.43 208.63
  A 1.41 1.41 0.0 0 0 36.84 210.04
  A 1.41 1.41 0.0 0 0 38.25 208.63"
/>
<path stroke="#8ad3ef" vector-effect="non-scaling-stroke" d="
  M 43.7631 210.0241
  A 1.46 1.27 75.6 0 0 44.6301 208.2942
  A 1.46 1.27 75.6 0 0 43.0369 207.1959
  A 1.46 1.27 75.6 0 0 42.1699 208.9258
  A 1.46 1.27 75.6 0 0 43.7631 210.0241"
/>
<path stroke="#8ad3ef" vector-effect="non-scaling-stroke" d="
  M 44.79 215.23
  A 1.42 1.42 0.0 0 0 43.37 213.81
  A 1.42 1.42 0.0 0 0 41.95 215.23
  A 1.42 1.42 0.0 0 0 43.37 216.65
  A 1.42 1.42 0.0 0 0 44.79 215.23"
/>
<path stroke="#8ad3ef" vector-effect="non-scaling-stroke" d="
  M 30.64 216.76
  L 31.89 215.41
  A 0.49 0.49 0.0 0 0 31.87 214.72
  L 31.67 214.54
  A 1.88 1.27 42.8 0 0 29.43 214.19
  L 29.24 214.40
  A 1.88 1.27 42.8 0 0 29.75 216.61
  L 29.95 216.79
  A 0.49 0.49 0.0 0 0 30.64 216.76"
/>
<path stroke="#8ad3ef" vector-effect="non-scaling-stroke" d="
  M 38.23 215.31
  A 1.41 1.41 0.0 0 0 36.82 213.90
  A 1.41 1.41 0.0 0 0 35.41 215.31
  A 1.41 1.41 0.0 0 0 36.82 216.72
  A 1.41 1.41 0.0 0 0 38.23 215.31"
/>
<path stroke="#8ad3ef" vector-effect="non-scaling-stroke" d="
  M 31.77 221.83
  A 1.44 1.44 0.0 0 0 30.33 220.39
  A 1.44 1.44 0.0 0 0 28.89 221.83
  A 1.44 1.44 0.0 0 0 30.33 223.27
  A 1.44 1.44 0.0 0 0 31.77 221.83"
/>
<path stroke="#8ad3ef" vector-effect="non-scaling-stroke" d="
  M 38.24 221.84
  A 1.42 1.42 0.0 0 0 36.82 220.42
  A 1.42 1.42 0.0 0 0 35.40 221.84
  A 1.42 1.42 0.0 0 0 36.82 223.26
  A 1.42 1.42 0.0 0 0 38.24 221.84"
/>
<path stroke="#8ad3ef" vector-effect="non-scaling-stroke" d="
  M 44.80 221.84
  A 1.39 1.39 0.0 0 0 43.41 220.45
  A 1.39 1.39 0.0 0 0 42.02 221.84
  A 1.39 1.39 0.0 0 0 43.41 223.23
  A 1.39 1.39 0.0 0 0 44.80 221.84"
/>
<path stroke="#8ad3ef" vector-effect="non-scaling-stroke" d="
  M 31.73 228.46
  A 1.41 1.41 0.0 0 0 30.32 227.05
  A 1.41 1.41 0.0 0 0 28.91 228.46
  A 1.41 1.41 0.0 0 0 30.32 229.87
  A 1.41 1.41 0.0 0 0 31.73 228.46"
/>
<path stroke="#8ad3ef" vector-effect="non-scaling-stroke" d="
  M 43.7803 229.8016
  A 1.44 1.37 75.1 0 0 44.7339 228.0577
  A 1.44 1.37 75.1 0 0 43.0397 227.0184
  A 1.44 1.37 75.1 0 0 42.0861 228.7623
  A 1.44 1.37 75.1 0 0 43.7803 229.8016"
/>
<path stroke="#8ad3ef" vector-effect="non-scaling-stroke" d="
  M 38.2720 228.8309
  A 1.46 1.34 13.1 0 0 37.1537 227.1949
  A 1.46 1.34 13.1 0 0 35.4280 228.1691
  A 1.46 1.34 13.1 0 0 36.5463 229.8051
  A 1.46 1.34 13.1 0 0 38.2720 228.8309"
/>
</g>
<path fill="#83cfb2" d="
  M 0.00 0.00
  L 1.11 0.00
  C 0.60 12.80 1.03 29.53 0.99 38.32
  C 0.91 60.69 0.59 83.06 0.99 105.43
  C 1.32 124.08 0.76 143.16 0.77 161.32
  C 0.79 205.78 1.38 250.29 0.83 294.75
  Q 0.81 296.67 0.99 298.76
  Q 1.03 299.28 1.55 299.28
  C 100.47 298.54 185.90 299.44 298.51 299.19
  Q 299.00 299.19 299.00 298.69
  L 299.01 0.00
  L 300.00 0.00
  L 300.00 300.00
  L 0.00 300.00
  L 0.00 0.00
  Z"
/>
<path fill="#43b78a" d="
  M 1.11 0.00
  L 299.01 0.00
  L 299.00 298.69
  Q 299.00 299.19 298.51 299.19
  C 185.90 299.44 100.47 298.54 1.55 299.28
  Q 1.03 299.28 0.99 298.76
  Q 0.81 296.67 0.83 294.75
  C 1.38 250.29 0.79 205.78 0.77 161.32
  C 0.76 143.16 1.32 124.08 0.99 105.43
  C 0.59 83.06 0.91 60.69 0.99 38.32
  C 1.03 29.53 0.60 12.80 1.11 0.00
  Z
  M 222.49 2.96
  A 1.52 1.52 0.0 0 0 220.97 1.44
  A 1.52 1.52 0.0 0 0 219.45 2.96
  A 1.52 1.52 0.0 0 0 220.97 4.48
  A 1.52 1.52 0.0 0 0 222.49 2.96
  Z
  M 212.86 3.01
  L 213.98 4.45
  A 0.49 0.49 0.0 0 0 214.67 4.54
  L 214.78 4.46
  A 1.97 1.26 -37.7 0 0 215.56 2.26
  L 215.39 2.03
  A 1.97 1.26 -37.7 0 0 213.06 2.24
  L 212.95 2.33
  A 0.49 0.49 0.0 0 0 212.86 3.01
  Z
  M 228.11 4.17
  L 228.30 2.58
  A 0.98 0.98 0.0 0 0 226.41 2.13
  Q 225.72 4.02 227.54 4.55
  A 0.45 0.45 0.0 0 0 228.11 4.17
  Z
  M 3.28 80.29
  L 3.26 122.47
  Q 3.26 122.98 3.61 123.35
  L 36.61 158.61
  Q 36.73 158.73 36.73 158.90
  Q 36.74 159.08 36.74 159.20
  C 25.32 170.42 14.57 182.33 3.77 193.96
  A 1.92 1.88 -24.0 0 0 3.26 195.25
  L 3.26 258.29
  L 3.26 295.97
  Q 3.26 296.99 4.27 296.99
  L 174.71 296.98
  L 295.81 296.99
  A 0.70 0.70 0.0 0 0 296.51 296.29
  C 297.21 198.44 296.36 117.51 296.55 3.30
  Q 296.55 2.75 296.00 2.75
  L 278.50 2.75
  A 1.69 1.63 -66.5 0 0 277.34 3.23
  L 241.98 38.39
  L 228.44 24.82
  Q 229.22 22.94 227.60 21.56
  Q 227.23 21.24 226.74 21.25
  L 224.98 21.28
  L 215.79 12.07
  C 217.03 8.45 214.41 8.13 211.66 8.05
  L 206.77 3.12
  Q 206.41 2.76 205.90 2.76
  L 100.00 2.79
  L 3.80 2.78
  Q 3.28 2.78 3.28 3.31
  L 3.28 80.29
  Z
  M 222.42 9.58
  A 1.45 1.45 0.0 0 0 220.97 8.13
  A 1.45 1.45 0.0 0 0 219.52 9.58
  A 1.45 1.45 0.0 0 0 220.97 11.03
  A 1.45 1.45 0.0 0 0 222.42 9.58
  Z
  M 227.8288 10.9389
  A 1.39 1.12 71.6 0 0 228.4527 9.2665
  A 1.39 1.12 71.6 0 0 226.9512 8.3011
  A 1.39 1.12 71.6 0 0 226.3273 9.9735
  A 1.39 1.12 71.6 0 0 227.8288 10.9389
  Z
  M 228.0655 17.3286
  A 1.37 1.17 64.7 0 0 228.5378 15.5900
  A 1.37 1.17 64.7 0 0 226.8945 14.8514
  A 1.37 1.17 64.7 0 0 226.4222 16.5900
  A 1.37 1.17 64.7 0 0 228.0655 17.3286
  Z"
/>
<circle fill="#2cbff3" cx="220.97" cy="2.96" r="1.52"/>
<path fill="#2cbff3" d="
  M 212.86 3.01
  A 0.49 0.49 0.0 0 1 212.95 2.33
  L 213.06 2.24
  A 1.97 1.26 -37.7 0 1 215.39 2.03
  L 215.56 2.26
  A 1.97 1.26 -37.7 0 1 214.78 4.46
  L 214.67 4.54
  A 0.49 0.49 0.0 0 1 213.98 4.45
  L 212.86 3.01
  Z"
/>
<path fill="#2cbff3" d="
  M 228.11 4.17
  A 0.45 0.45 0.0 0 1 227.54 4.55
  Q 225.72 4.02 226.41 2.13
  A 0.98 0.98 0.0 0 1 228.30 2.58
  L 228.11 4.17
  Z"
/>
<path fill="#e7e6eb" d="
  M 100.00 2.79
  Q 85.13 3.21 70.25 2.94
  Q 68.89 2.91 68.25 4.40
  Q 68.06 4.82 67.61 4.72
  C 64.99 4.18 62.42 3.96 60.08 5.60
  C 58.67 6.60 52.49 11.66 54.83 13.16
  Q 55.31 13.46 54.75 13.49
  L 53.81 13.54
  A 0.03 0.03 0.0 0 0 53.79 13.59
  L 54.00 13.78
  Q 54.27 14.01 53.91 13.99
  C 52.87 13.91 52.78 14.95 53.12 15.59
  L 56.52 24.00
  A 1.24 1.20 -44.1 0 1 56.49 24.98
  Q 54.67 28.79 53.38 32.81
  Q 53.26 33.17 53.62 33.30
  L 54.02 33.45
  L 51.67 33.35
  Q 52.25 31.52 51.96 30.31
  A 0.74 0.73 82.9 0 0 51.25 29.75
  L 41.80 29.75
  Q 41.10 29.75 41.08 30.45
  L 41.02 32.87
  Q 41.01 33.51 41.65 33.51
  L 47.49 33.51
  Q 47.08 34.09 47.84 34.58
  Q 48.62 35.10 47.99 35.02
  Q 47.48 34.95 46.94 35.67
  A 0.90 0.90 0.0 0 0 47.65 37.12
  L 62.91 37.31
  Q 63.60 37.32 63.34 37.96
  L 62.79 39.34
  Q 62.53 39.97 61.91 39.70
  Q 59.20 38.54 56.38 39.24
  Q 55.84 39.38 55.37 39.07
  Q 54.42 38.43 53.59 39.08
  Q 53.19 39.39 52.68 39.36
  Q 48.14 39.05 43.83 40.10
  A 1.18 1.17 -84.2 0 0 43.02 40.77
  L 41.24 44.78
  Q 41.11 45.06 40.84 45.21
  C 37.49 46.96 35.62 50.71 31.69 53.43
  Q 31.32 53.69 31.16 54.10
  Q 30.23 56.51 27.93 57.64
  Q 27.46 57.86 27.23 58.32
  C 24.30 64.04 19.54 66.06 15.74 70.43
  C 12.22 74.48 10.28 76.47 7.23 79.49
  Q 4.78 81.91 4.37 78.49
  Q 4.23 77.33 4.52 76.36
  Q 4.60 76.10 4.35 76.03
  Q 4.19 75.98 4.02 75.92
  Q 3.63 75.77 3.71 76.18
  Q 4.12 78.58 3.28 80.29
  L 3.28 3.31
  Q 3.28 2.78 3.80 2.78
  L 100.00 2.79
  Z
  M 16.21 11.12
  A 2.46 2.46 0.0 0 0 13.75 8.66
  A 2.46 2.46 0.0 0 0 11.29 11.12
  A 2.46 2.46 0.0 0 0 13.75 13.58
  A 2.46 2.46 0.0 0 0 16.21 11.12
  Z
  M 15.50 15.82
  A 0.31 0.31 0.0 0 0 15.19 15.51
  L 12.31 15.51
  A 0.31 0.31 0.0 0 0 12.00 15.82
  L 12.00 33.20
  A 0.31 0.31 0.0 0 0 12.31 33.51
  L 15.19 33.51
  A 0.31 0.31 0.0 0 0 15.50 33.20
  L 15.50 15.82
  Z
  M 24.24 22.22
  A 0.29 0.29 0.0 0 1 23.68 22.34
  L 20.78 16.05
  Q 20.53 15.50 19.92 15.50
  L 17.50 15.50
  Q 16.99 15.50 17.01 16.01
  Q 17.24 24.42 16.91 32.84
  Q 16.88 33.55 17.60 33.52
  L 19.95 33.44
  Q 20.50 33.42 20.50 32.87
  L 20.50 24.96
  A 0.30 0.30 0.0 0 1 21.06 24.81
  Q 23.28 28.73 24.47 33.06
  Q 24.59 33.50 25.04 33.50
  L 26.87 33.50
  Q 27.50 33.50 27.50 32.87
  L 27.50 16.00
  Q 27.50 15.50 27.00 15.50
  L 24.75 15.50
  Q 24.25 15.50 24.25 16.00
  L 24.24 22.22
  Z
  M 29.14 15.69
  L 29.14 33.27
  A 0.22 0.22 0.0 0 0 29.36 33.49
  L 36.26 33.49
  A 3.73 3.52 90.0 0 0 39.78 29.76
  L 39.78 19.20
  A 3.73 3.52 90.0 0 0 36.26 15.47
  L 29.36 15.47
  A 0.22 0.22 0.0 0 0 29.14 15.69
  Z
  M 51.7721 16.0294
  A 0.52 0.52 0.0 0 0 51.2530 15.5085
  L 41.5531 15.4915
  A 0.52 0.52 0.0 0 0 41.0322 16.0106
  L 41.0279 18.4706
  A 0.52 0.52 0.0 0 0 41.5470 18.9915
  L 51.2469 19.0085
  A 0.52 0.52 0.0 0 0 51.7678 18.4894
  L 51.7721 16.0294
  Z
  M 52.0150 23.5688
  A 1.02 1.02 0.0 0 0 51.0004 22.5435
  L 42.0405 22.4966
  A 1.02 1.02 0.0 0 0 41.0152 23.5112
  L 41.0050 25.4512
  A 1.02 1.02 0.0 0 0 42.0196 26.4765
  L 50.9795 26.5234
  A 1.02 1.02 0.0 0 0 52.0048 25.5088
  L 52.0150 23.5688
  Z"
/>
<path fill="#f0f0f3" d="
  M 100.00 2.79
  L 205.90 2.76
  Q 206.41 2.76 206.77 3.12
  L 211.66 8.05
  Q 213.29 10.42 215.79 12.07
  L 224.98 21.28
  L 228.44 24.82
  L 241.98 38.39
  L 221.14 59.33
  Q 191.61 59.80 162.47 59.27
  L 162.44 50.18
  Q 162.44 49.50 161.76 49.50
  L 70.25 49.50
  Q 69.75 49.50 69.75 50.00
  L 69.75 148.02
  A 0.61 0.60 3.2 0 0 70.29 148.62
  Q 74.62 149.11 79.01 148.50
  L 79.00 200.00
  L 78.44 200.00
  Q 77.95 199.99 77.60 199.65
  L 37.44 159.39
  Q 37.31 159.25 37.12 159.26
  Q 36.93 159.26 36.74 159.20
  Q 36.74 159.08 36.73 158.90
  Q 36.73 158.73 36.61 158.61
  L 3.61 123.35
  Q 3.26 122.98 3.26 122.47
  L 3.28 80.29
  Q 4.12 78.58 3.71 76.18
  Q 3.63 75.77 4.02 75.92
  Q 4.19 75.98 4.35 76.03
  Q 4.60 76.10 4.52 76.36
  Q 4.23 77.33 4.37 78.49
  Q 4.78 81.91 7.23 79.49
  C 10.28 76.47 12.22 74.48 15.74 70.43
  C 19.54 66.06 24.30 64.04 27.23 58.32
  Q 27.46 57.86 27.93 57.64
  Q 30.23 56.51 31.16 54.10
  Q 31.32 53.69 31.69 53.43
  C 35.62 50.71 37.49 46.96 40.84 45.21
  Q 41.11 45.06 41.24 44.78
  L 43.02 40.77
  A 1.18 1.17 -84.2 0 1 43.83 40.10
  Q 48.14 39.05 52.68 39.36
  Q 53.19 39.39 53.59 39.08
  Q 54.42 38.43 55.37 39.07
  Q 55.84 39.38 56.38 39.24
  Q 59.20 38.54 61.91 39.70
  Q 62.53 39.97 62.79 39.34
  L 63.34 37.96
  Q 63.60 37.32 62.91 37.31
  L 47.65 37.12
  A 0.90 0.90 0.0 0 1 46.94 35.67
  Q 47.48 34.95 47.99 35.02
  Q 48.62 35.10 47.84 34.58
  Q 47.08 34.09 47.49 33.51
  L 51.67 33.35
  L 54.02 33.45
  C 57.35 34.12 56.92 31.22 58.45 29.35
  L 60.04 32.92
  Q 60.25 33.37 60.74 33.40
  L 63.15 33.54
  Q 63.89 33.58 63.61 32.90
  L 60.41 24.98
  L 60.59 23.25
  L 63.59 15.88
  A 0.44 0.44 0.0 0 0 63.18 15.27
  L 60.80 15.33
  Q 60.19 15.35 59.95 15.91
  L 58.54 19.26
  L 56.56 15.68
  Q 56.27 15.16 55.69 15.24
  L 53.12 15.59
  C 52.78 14.95 52.87 13.91 53.91 13.99
  Q 54.27 14.01 54.00 13.78
  L 53.79 13.59
  A 0.03 0.03 0.0 0 1 53.81 13.54
  L 54.75 13.49
  Q 55.31 13.46 54.83 13.16
  C 52.49 11.66 58.67 6.60 60.08 5.60
  C 62.42 3.96 64.99 4.18 67.61 4.72
  Q 68.06 4.82 68.25 4.40
  Q 68.89 2.91 70.25 2.94
  Q 85.13 3.21 100.00 2.79
  Z
  M 215.3151 17.3210
  A 1.48 1.32 52.3 0 0 215.4544 15.3428
  A 1.48 1.32 52.3 0 0 213.5049 14.9790
  A 1.48 1.32 52.3 0 0 213.3656 16.9572
  A 1.48 1.32 52.3 0 0 215.3151 17.3210
  Z
  M 215.86 22.77
  A 1.44 1.44 0.0 0 0 214.42 21.33
  A 1.44 1.44 0.0 0 0 212.98 22.77
  A 1.44 1.44 0.0 0 0 214.42 24.21
  A 1.44 1.44 0.0 0 0 215.86 22.77
  Z
  M 222.1418 23.7159
  A 1.57 1.40 38.9 0 0 221.7991 21.6405
  A 1.57 1.40 38.9 0 0 219.6982 21.7441
  A 1.57 1.40 38.9 0 0 220.0409 23.8195
  A 1.57 1.40 38.9 0 0 222.1418 23.7159
  Z
  M 215.89 29.36
  A 1.44 1.44 0.0 0 0 214.45 27.92
  A 1.44 1.44 0.0 0 0 213.01 29.36
  A 1.44 1.44 0.0 0 0 214.45 30.80
  A 1.44 1.44 0.0 0 0 215.89 29.36
  Z
  M 222.40 29.39
  A 1.47 1.47 0.0 0 0 220.93 27.92
  A 1.47 1.47 0.0 0 0 219.46 29.39
  A 1.47 1.47 0.0 0 0 220.93 30.86
  A 1.47 1.47 0.0 0 0 222.40 29.39
  Z
  M 228.86 29.40
  A 1.38 1.38 0.0 0 0 227.48 28.02
  A 1.38 1.38 0.0 0 0 226.10 29.40
  A 1.38 1.38 0.0 0 0 227.48 30.78
  A 1.38 1.38 0.0 0 0 228.86 29.40
  Z
  M 215.95 36.00
  A 1.49 1.49 0.0 0 0 214.46 34.51
  A 1.49 1.49 0.0 0 0 212.97 36.00
  A 1.49 1.49 0.0 0 0 214.46 37.49
  A 1.49 1.49 0.0 0 0 215.95 36.00
  Z
  M 222.45 36.05
  A 1.47 1.47 0.0 0 0 220.98 34.58
  A 1.47 1.47 0.0 0 0 219.51 36.05
  A 1.47 1.47 0.0 0 0 220.98 37.52
  A 1.47 1.47 0.0 0 0 222.45 36.05
  Z
  M 228.87 36.08
  A 1.37 1.37 0.0 0 0 227.50 34.71
  A 1.37 1.37 0.0 0 0 226.13 36.08
  A 1.37 1.37 0.0 0 0 227.50 37.45
  A 1.37 1.37 0.0 0 0 228.87 36.08
  Z
  M 51.60 63.68
  A 0.61 0.60 44.1 0 0 50.72 63.69
  L 47.31 67.40
  Q 46.74 68.01 47.49 68.39
  L 48.13 68.71
  A 0.81 0.80 35.8 0 0 49.06 68.56
  L 50.84 66.79
  A 0.61 0.60 46.9 0 1 51.73 66.82
  L 52.98 68.24
  Q 53.28 68.58 53.71 68.71
  Q 54.84 69.05 55.11 67.97
  Q 55.26 67.40 54.84 66.98
  L 51.60 63.68
  Z
  M 50.56 69.81
  L 47.36 73.05
  Q 46.86 73.56 47.39 74.04
  L 48.04 74.62
  Q 48.40 74.95 48.76 74.60
  L 50.92 72.48
  A 0.56 0.56 0.0 0 1 51.80 72.60
  Q 52.46 73.72 53.52 74.60
  A 1.13 1.13 0.0 0 0 55.04 72.93
  L 51.94 69.81
  Q 51.25 69.11 50.56 69.81
  Z
  M 52.21 78.96
  Q 52.72 80.02 53.71 80.52
  A 1.07 1.06 -9.0 0 0 54.95 78.82
  L 51.62 75.49
  A 0.71 0.71 0.0 0 0 50.61 75.50
  L 47.36 78.82
  A 1.05 1.05 0.0 0 0 48.57 80.50
  Q 49.63 79.98 50.10 78.97
  A 1.17 1.17 0.0 0 1 52.21 78.96
  Z
  M 53.37 83.29
  L 51.72 81.31
  A 0.63 0.62 -42.4 0 0 50.79 81.27
  L 47.44 84.72
  A 1.04 1.04 0.0 0 0 48.84 86.26
  Q 49.74 85.53 50.23 84.62
  A 0.77 0.77 0.0 0 1 51.07 84.22
  Q 52.33 84.47 52.79 85.64
  A 1.15 1.14 -52.9 0 0 55.00 85.33
  Q 55.09 84.35 54.12 83.88
  Q 53.68 83.67 53.37 83.29
  Z
  M 50.57 87.29
  L 47.26 90.77
  A 0.88 0.87 11.3 0 0 48.21 92.19
  Q 49.82 91.59 50.74 89.94
  A 0.32 0.32 0.0 0 1 51.19 89.82
  C 52.31 90.50 53.85 93.56 55.01 91.51
  Q 55.30 90.99 54.89 90.55
  L 51.76 87.28
  Q 51.16 86.66 50.57 87.29
  Z
  M 56.9900 157.9697
  A 1.07 1.07 0.0 0 0 55.8058 157.0277
  L 55.4282 157.0708
  A 1.07 1.07 0.0 0 0 54.4862 158.2550
  L 54.5700 158.9903
  A 1.07 1.07 0.0 0 0 55.7542 159.9323
  L 56.1318 159.8892
  A 1.07 1.07 0.0 0 0 57.0738 158.7050
  L 56.9900 157.9697
  Z
  M 63.77 158.41
  A 1.49 1.49 0.0 0 0 62.28 156.92
  A 1.49 1.49 0.0 0 0 60.79 158.41
  A 1.49 1.49 0.0 0 0 62.28 159.90
  A 1.49 1.49 0.0 0 0 63.77 158.41
  Z
  M 70.31 158.44
  A 1.46 1.46 0.0 0 0 68.85 156.98
  A 1.46 1.46 0.0 0 0 67.39 158.44
  A 1.46 1.46 0.0 0 0 68.85 159.90
  A 1.46 1.46 0.0 0 0 70.31 158.44
  Z
  M 76.87 158.41
  A 1.51 1.51 0.0 0 0 75.36 156.90
  A 1.51 1.51 0.0 0 0 73.85 158.41
  A 1.51 1.51 0.0 0 0 75.36 159.92
  A 1.51 1.51 0.0 0 0 76.87 158.41
  Z
  M 57.24 165.05
  A 1.44 1.44 0.0 0 0 55.80 163.61
  A 1.44 1.44 0.0 0 0 54.36 165.05
  A 1.44 1.44 0.0 0 0 55.80 166.49
  A 1.44 1.44 0.0 0 0 57.24 165.05
  Z
  M 63.78 164.99
  A 1.47 1.47 0.0 0 0 62.31 163.52
  A 1.47 1.47 0.0 0 0 60.84 164.99
  A 1.47 1.47 0.0 0 0 62.31 166.46
  A 1.47 1.47 0.0 0 0 63.78 164.99
  Z
  M 70.33 165.01
  A 1.50 1.50 0.0 0 0 68.83 163.51
  A 1.50 1.50 0.0 0 0 67.33 165.01
  A 1.50 1.50 0.0 0 0 68.83 166.51
  A 1.50 1.50 0.0 0 0 70.33 165.01
  Z
  M 76.87 165.03
  A 1.44 1.44 0.0 0 0 75.43 163.59
  A 1.44 1.44 0.0 0 0 73.99 165.03
  A 1.44 1.44 0.0 0 0 75.43 166.47
  A 1.44 1.44 0.0 0 0 76.87 165.03
  Z
  M 57.15 171.63
  A 1.42 1.42 0.0 0 0 55.73 170.21
  A 1.42 1.42 0.0 0 0 54.31 171.63
  A 1.42 1.42 0.0 0 0 55.73 173.05
  A 1.42 1.42 0.0 0 0 57.15 171.63
  Z
  M 63.79 171.61
  A 1.46 1.46 0.0 0 0 62.33 170.15
  A 1.46 1.46 0.0 0 0 60.87 171.61
  A 1.46 1.46 0.0 0 0 62.33 173.07
  A 1.46 1.46 0.0 0 0 63.79 171.61
  Z
  M 70.31 171.65
  A 1.46 1.46 0.0 0 0 68.85 170.19
  A 1.46 1.46 0.0 0 0 67.39 171.65
  A 1.46 1.46 0.0 0 0 68.85 173.11
  A 1.46 1.46 0.0 0 0 70.31 171.65
  Z
  M 76.87 171.66
  A 1.44 1.44 0.0 0 0 75.43 170.22
  A 1.44 1.44 0.0 0 0 73.99 171.66
  A 1.44 1.44 0.0 0 0 75.43 173.10
  A 1.44 1.44 0.0 0 0 76.87 171.66
  Z"
/>
<path fill="#ffffff" d="
  M 174.71 296.98
  C 155.27 277.02 131.64 256.21 111.70 233.94
  L 81.85 203.85
  A 0.97 0.97 0.0 0 1 82.52 202.20
  L 91.76 202.03
  L 137.69 202.03
  L 137.55 211.79
  Q 137.54 212.25 138.01 212.25
  L 229.97 212.25
  A 0.54 0.53 0.0 0 0 230.51 211.72
  L 230.51 135.74
  Q 231.37 135.38 231.88 135.42
  A 1.15 1.15 0.0 0 0 232.57 133.29
  Q 231.64 132.73 230.56 133.28
  L 230.53 129.23
  L 232.45 128.76
  A 1.15 1.14 -51.9 0 0 232.18 126.50
  L 230.53 126.51
  L 230.53 122.48
  Q 232.27 122.69 232.93 121.64
  A 1.22 1.22 0.0 0 0 231.91 119.77
  L 230.54 119.76
  L 230.51 113.82
  A 0.87 0.87 0.0 0 0 229.65 112.95
  L 221.24 112.82
  L 221.14 59.33
  L 241.98 38.39
  L 277.34 3.23
  A 1.69 1.63 -66.5 0 1 278.50 2.75
  L 296.00 2.75
  Q 296.55 2.75 296.55 3.30
  C 296.36 117.51 297.21 198.44 296.51 296.29
  A 0.70 0.70 0.0 0 1 295.81 296.99
  L 174.71 296.98
  Z
  M 239.54 121.04
  A 1.42 1.42 0.0 0 0 238.12 119.62
  A 1.42 1.42 0.0 0 0 236.70 121.04
  A 1.42 1.42 0.0 0 0 238.12 122.46
  A 1.42 1.42 0.0 0 0 239.54 121.04
  Z
  M 239.63 127.67
  A 1.47 1.47 0.0 0 0 238.16 126.20
  A 1.47 1.47 0.0 0 0 236.69 127.67
  A 1.47 1.47 0.0 0 0 238.16 129.14
  A 1.47 1.47 0.0 0 0 239.63 127.67
  Z
  M 239.57 134.29
  A 1.41 1.41 0.0 0 0 238.16 132.88
  A 1.41 1.41 0.0 0 0 236.75 134.29
  A 1.41 1.41 0.0 0 0 238.16 135.70
  A 1.41 1.41 0.0 0 0 239.57 134.29
  Z
  M 274.17 221.04
  C 272.90 221.69 271.49 223.53 270.61 224.53
  Q 270.24 224.95 270.62 225.37
  L 273.45 228.54
  A 1.06 0.93 24.7 0 0 275.26 228.00
  L 275.24 227.68
  Q 275.20 227.25 274.89 226.95
  L 273.39 225.53
  A 0.69 0.69 0.0 0 1 273.37 224.55
  L 275.29 222.55
  A 0.95 0.95 0.0 0 0 274.17 221.04
  Z
  M 250.19 224.58
  L 252.08 222.48
  A 0.73 0.73 0.0 0 0 251.68 221.27
  C 250.33 221.02 248.08 223.65 247.42 224.72
  Q 247.11 225.24 247.54 225.66
  L 250.42 228.55
  A 1.05 1.04 -52.2 0 0 252.06 228.34
  L 252.22 228.08
  A 0.64 0.63 36.1 0 0 252.09 227.28
  L 250.24 225.64
  A 0.75 0.74 -48.0 0 1 250.19 224.58
  Z
  M 256.07 224.43
  L 257.83 222.49
  A 0.80 0.80 0.0 0 0 256.87 221.24
  Q 254.64 222.42 253.29 224.58
  A 0.71 0.71 0.0 0 0 253.37 225.44
  C 254.32 226.50 256.45 229.81 257.99 228.36
  Q 258.37 228.00 258.02 227.62
  L 256.07 225.50
  A 0.80 0.79 -45.3 0 1 256.07 224.43
  Z
  M 262.24 224.08
  L 263.68 222.32
  A 0.92 0.92 0.0 0 0 262.32 221.09
  L 259.01 224.40
  A 0.69 0.69 0.0 0 0 259.01 225.38
  L 262.19 228.56
  A 0.96 0.95 39.8 0 0 263.65 228.43
  C 264.38 227.39 262.26 226.25 262.00 225.09
  A 1.22 1.21 -31.9 0 1 262.24 224.08
  Z
  M 269.58 221.81
  C 268.50 219.82 265.57 223.69 264.78 224.47
  Q 264.31 224.94 264.78 225.41
  L 268.22 228.82
  A 0.80 0.80 0.0 0 0 269.55 228.03
  Q 269.08 226.46 267.61 225.59
  A 0.62 0.62 0.0 0 1 267.47 224.64
  L 269.50 222.46
  Q 269.77 222.17 269.58 221.81
  Z
  M 254.06 243.94
  Q 230.14 243.12 206.19 243.62
  Q 205.71 243.63 205.73 244.11
  L 205.81 246.40
  A 0.48 0.47 -1.2 0 0 206.30 246.86
  C 224.20 246.32 242.04 247.01 259.95 246.06
  Q 260.52 246.03 260.51 245.45
  L 260.47 244.15
  Q 260.46 243.63 259.94 243.67
  Q 255.91 244.00 254.06 243.94
  Z
  M 266.59 267.59
  A 1.50 1.50 0.0 0 0 265.09 266.09
  A 1.50 1.50 0.0 0 0 263.59 267.59
  A 1.50 1.50 0.0 0 0 265.09 269.09
  A 1.50 1.50 0.0 0 0 266.59 267.59
  Z
  M 292.79 267.53
  A 1.46 1.46 0.0 0 0 291.33 266.07
  A 1.46 1.46 0.0 0 0 289.87 267.53
  A 1.46 1.46 0.0 0 0 291.33 268.99
  A 1.46 1.46 0.0 0 0 292.79 267.53
  Z
  M 273.19 267.57
  A 1.47 1.47 0.0 0 0 271.72 266.10
  A 1.47 1.47 0.0 0 0 270.25 267.57
  A 1.47 1.47 0.0 0 0 271.72 269.04
  A 1.47 1.47 0.0 0 0 273.19 267.57
  Z
  M 279.70 267.54
  A 1.47 1.47 0.0 0 0 278.23 266.07
  A 1.47 1.47 0.0 0 0 276.76 267.54
  A 1.47 1.47 0.0 0 0 278.23 269.01
  A 1.47 1.47 0.0 0 0 279.70 267.54
  Z
  M 286.29 267.58
  A 1.47 1.47 0.0 0 0 284.82 266.11
  A 1.47 1.47 0.0 0 0 283.35 267.58
  A 1.47 1.47 0.0 0 0 284.82 269.05
  A 1.47 1.47 0.0 0 0 286.29 267.58
  Z
  M 286.37 274.17
  A 1.56 1.56 0.0 0 0 284.81 272.61
  A 1.56 1.56 0.0 0 0 283.25 274.17
  A 1.56 1.56 0.0 0 0 284.81 275.73
  A 1.56 1.56 0.0 0 0 286.37 274.17
  Z
  M 266.7293 274.2281
  A 1.62 1.48 1.7 0 0 265.1539 272.7007
  A 1.62 1.48 1.7 0 0 263.4907 274.1319
  A 1.62 1.48 1.7 0 0 265.0661 275.6593
  A 1.62 1.48 1.7 0 0 266.7293 274.2281
  Z
  M 273.25 274.14
  A 1.52 1.52 0.0 0 0 271.73 272.62
  A 1.52 1.52 0.0 0 0 270.21 274.14
  A 1.52 1.52 0.0 0 0 271.73 275.66
  A 1.52 1.52 0.0 0 0 273.25 274.14
  Z
  M 279.81 274.14
  A 1.55 1.55 0.0 0 0 278.26 272.59
  A 1.55 1.55 0.0 0 0 276.71 274.14
  A 1.55 1.55 0.0 0 0 278.26 275.69
  A 1.55 1.55 0.0 0 0 279.81 274.14
  Z
  M 292.83 274.16
  A 1.44 1.44 0.0 0 0 291.39 272.72
  A 1.44 1.44 0.0 0 0 289.95 274.16
  A 1.44 1.44 0.0 0 0 291.39 275.60
  A 1.44 1.44 0.0 0 0 292.83 274.16
  Z
  M 266.66 280.82
  A 1.55 1.55 0.0 0 0 265.11 279.27
  A 1.55 1.55 0.0 0 0 263.56 280.82
  A 1.55 1.55 0.0 0 0 265.11 282.37
  A 1.55 1.55 0.0 0 0 266.66 280.82
  Z
  M 273.23 280.83
  A 1.52 1.52 0.0 0 0 271.71 279.31
  A 1.52 1.52 0.0 0 0 270.19 280.83
  A 1.52 1.52 0.0 0 0 271.71 282.35
  A 1.52 1.52 0.0 0 0 273.23 280.83
  Z
  M 279.77 280.80
  A 1.52 1.52 0.0 0 0 278.25 279.28
  A 1.52 1.52 0.0 0 0 276.73 280.80
  A 1.52 1.52 0.0 0 0 278.25 282.32
  A 1.52 1.52 0.0 0 0 279.77 280.80
  Z
  M 286.33 280.81
  A 1.52 1.52 0.0 0 0 284.81 279.29
  A 1.52 1.52 0.0 0 0 283.29 280.81
  A 1.52 1.52 0.0 0 0 284.81 282.33
  A 1.52 1.52 0.0 0 0 286.33 280.81
  Z
  M 292.82 280.78
  A 1.52 1.52 0.0 0 0 291.30 279.26
  A 1.52 1.52 0.0 0 0 289.78 280.78
  A 1.52 1.52 0.0 0 0 291.30 282.30
  A 1.52 1.52 0.0 0 0 292.82 280.78
  Z"
/>
<path fill="#2cbff3" d="
  M 211.66 8.05
  C 214.41 8.13 217.03 8.45 215.79 12.07
  Q 213.29 10.42 211.66 8.05
  Z"
/>
<circle fill="#2cbff3" cx="220.97" cy="9.58" r="1.45"/>
<ellipse fill="#2cbff3" cx="0.00" cy="0.00" transform="translate(227.39,9.62) rotate(71.6)" rx="1.39" ry="1.12"/>
<circle fill="#43b78a" cx="13.75" cy="11.12" r="2.46"/>
<ellipse fill="#2cbff3" cx="0.00" cy="0.00" transform="translate(214.41,16.15) rotate(52.3)" rx="1.48" ry="1.32"/>
<ellipse fill="#2cbff3" cx="0.00" cy="0.00" transform="translate(227.48,16.09) rotate(64.7)" rx="1.37" ry="1.17"/>
<path fill="#43b78a" d="
  M 58.54 19.26
  Q 58.42 21.20 60.59 23.25
  L 60.41 24.98
  Q 58.83 27.12 58.45 29.35
  C 56.92 31.22 57.35 34.12 54.02 33.45
  L 53.62 33.30
  Q 53.26 33.17 53.38 32.81
  Q 54.67 28.79 56.49 24.98
  A 1.24 1.20 -44.1 0 0 56.52 24.00
  L 53.12 15.59
  L 55.69 15.24
  Q 56.27 15.16 56.56 15.68
  L 58.54 19.26
  Z"
/>
<path fill="#444444" d="
  M 60.59 23.25
  Q 58.42 21.20 58.54 19.26
  L 59.95 15.91
  Q 60.19 15.35 60.80 15.33
  L 63.18 15.27
  A 0.44 0.44 0.0 0 1 63.59 15.88
  L 60.59 23.25
  Z"
/>
<rect fill="#444444" x="12.00" y="15.51" width="3.50" height="18.00" rx="0.31"/>
<path fill="#444444" d="
  M 24.24 22.22
  L 24.25 16.00
  Q 24.25 15.50 24.75 15.50
  L 27.00 15.50
  Q 27.50 15.50 27.50 16.00
  L 27.50 32.87
  Q 27.50 33.50 26.87 33.50
  L 25.04 33.50
  Q 24.59 33.50 24.47 33.06
  Q 23.28 28.73 21.06 24.81
  A 0.30 0.30 0.0 0 0 20.50 24.96
  L 20.50 32.87
  Q 20.50 33.42 19.95 33.44
  L 17.60 33.52
  Q 16.88 33.55 16.91 32.84
  Q 17.24 24.42 17.01 16.01
  Q 16.99 15.50 17.50 15.50
  L 19.92 15.50
  Q 20.53 15.50 20.78 16.05
  L 23.68 22.34
  A 0.29 0.29 0.0 0 0 24.24 22.22
  Z"
/>
<path fill="#444444" d="
  M 29.14 15.69
  A 0.22 0.22 0.0 0 1 29.36 15.47
  L 36.26 15.47
  A 3.73 3.52 90.0 0 1 39.78 19.20
  L 39.78 29.76
  A 3.73 3.52 90.0 0 1 36.26 33.49
  L 29.36 33.49
  A 0.22 0.22 0.0 0 1 29.14 33.27
  L 29.14 15.69
  Z
  M 36.2063 19.5578
  A 0.54 0.54 0.0 0 0 35.6626 19.0215
  L 33.2026 19.0387
  A 0.54 0.54 0.0 0 0 32.6664 19.5825
  L 32.7337 29.2222
  A 0.54 0.54 0.0 0 0 33.2774 29.7585
  L 35.7374 29.7413
  A 0.54 0.54 0.0 0 0 36.2736 29.1975
  L 36.2063 19.5578
  Z"
/>
<rect fill="#444444" x="-5.37" y="-1.75" transform="translate(46.40,17.25) rotate(0.1)" width="10.74" height="3.50" rx="0.52"/>
<rect fill="#e7e6eb" x="-1.77" y="-5.36" transform="translate(34.47,24.39) rotate(-0.4)" width="3.54" height="10.72" rx="0.54"/>
<circle fill="#2cbff3" cx="214.42" cy="22.77" r="1.44"/>
<ellipse fill="#2cbff3" cx="0.00" cy="0.00" transform="translate(220.92,22.73) rotate(38.9)" rx="1.57" ry="1.40"/>
<path fill="#2cbff3" d="
  M 224.98 21.28
  L 226.74 21.25
  Q 227.23 21.24 227.60 21.56
  Q 229.22 22.94 228.44 24.82
  L 224.98 21.28
  Z"
/>
<rect fill="#43b78a" x="-5.50" y="-1.99" transform="translate(46.51,24.51) rotate(0.3)" width="11.00" height="3.98" rx="1.02"/>
<path fill="#444444" d="
  M 60.41 24.98
  L 63.61 32.90
  Q 63.89 33.58 63.15 33.54
  L 60.74 33.40
  Q 60.25 33.37 60.04 32.92
  L 58.45 29.35
  Q 58.83 27.12 60.41 24.98
  Z"
/>
<circle fill="#2cbff3" cx="214.45" cy="29.36" r="1.44"/>
<circle fill="#2cbff3" cx="220.93" cy="29.39" r="1.47"/>
<circle fill="#2cbff3" cx="227.48" cy="29.40" r="1.38"/>
<path fill="#444444" d="
  M 51.67 33.35
  L 47.49 33.51
  L 41.65 33.51
  Q 41.01 33.51 41.02 32.87
  L 41.08 30.45
  Q 41.10 29.75 41.80 29.75
  L 51.25 29.75
  A 0.74 0.73 82.9 0 1 51.96 30.31
  Q 52.25 31.52 51.67 33.35
  Z"
/>
<circle fill="#2cbff3" cx="214.46" cy="36.00" r="1.49"/>
<circle fill="#2cbff3" cx="220.98" cy="36.05" r="1.47"/>
<circle fill="#2cbff3" cx="227.50" cy="36.08" r="1.37"/>
<path fill="#43b78a" d="
  M 162.47 59.27
  L 79.49 59.51
  A 0.50 0.49 -90.0 0 0 79.00 60.01
  L 79.01 148.50
  Q 74.62 149.11 70.29 148.62
  A 0.61 0.60 3.2 0 1 69.75 148.02
  L 69.75 50.00
  Q 69.75 49.50 70.25 49.50
  L 161.76 49.50
  Q 162.44 49.50 162.44 50.18
  L 162.47 59.27
  Z"
/>
<path fill="#444444" d="
  M 162.47 59.27
  Q 191.61 59.80 221.14 59.33
  L 221.24 112.82
  L 221.25 201.43
  A 0.58 0.58 0.0 0 1 220.67 202.01
  L 137.69 202.03
  L 91.76 202.03
  L 79.73 201.98
  Q 79.18 201.98 79.03 201.45
  Q 78.87 200.85 79.00 200.00
  L 79.01 148.50
  L 79.00 60.01
  A 0.50 0.49 -90.0 0 1 79.49 59.51
  L 162.47 59.27
  Z"
/>
<path fill="#2cbff3" d="
  M 51.60 63.68
  L 54.84 66.98
  Q 55.26 67.40 55.11 67.97
  Q 54.84 69.05 53.71 68.71
  Q 53.28 68.58 52.98 68.24
  L 51.73 66.82
  A 0.61 0.60 46.9 0 0 50.84 66.79
  L 49.06 68.56
  A 0.81 0.80 35.8 0 1 48.13 68.71
  L 47.49 68.39
  Q 46.74 68.01 47.31 67.40
  L 50.72 63.69
  A 0.61 0.60 44.1 0 1 51.60 63.68
  Z"
/>
<path fill="#2cbff3" d="
  M 51.94 69.81
  L 55.04 72.93
  A 1.13 1.13 0.0 0 1 53.52 74.60
  Q 52.46 73.72 51.80 72.60
  A 0.56 0.56 0.0 0 0 50.92 72.48
  L 48.76 74.60
  Q 48.40 74.95 48.04 74.62
  L 47.39 74.04
  Q 46.86 73.56 47.36 73.05
  L 50.56 69.81
  Q 51.25 69.11 51.94 69.81
  Z"
/>
<path fill="#2cbff3" d="
  M 52.21 78.96
  A 1.17 1.17 0.0 0 0 50.10 78.97
  Q 49.63 79.98 48.57 80.50
  A 1.05 1.05 0.0 0 1 47.36 78.82
  L 50.61 75.50
  A 0.71 0.71 0.0 0 1 51.62 75.49
  L 54.95 78.82
  A 1.07 1.06 -9.0 0 1 53.71 80.52
  Q 52.72 80.02 52.21 78.96
  Z"
/>
<path fill="#2cbff3" d="
  M 54.12 83.88
  Q 55.09 84.35 55.00 85.33
  A 1.15 1.14 -52.9 0 1 52.79 85.64
  Q 52.33 84.47 51.07 84.22
  A 0.77 0.77 0.0 0 0 50.23 84.62
  Q 49.74 85.53 48.84 86.26
  A 1.04 1.04 0.0 0 1 47.44 84.72
  L 50.79 81.27
  A 0.63 0.62 -42.4 0 1 51.72 81.31
  L 53.37 83.29
  Q 53.68 83.67 54.12 83.88
  Z"
/>
<path fill="#2cbff3" d="
  M 51.76 87.28
  L 54.89 90.55
  Q 55.30 90.99 55.01 91.51
  C 53.85 93.56 52.31 90.50 51.19 89.82
  A 0.32 0.32 0.0 0 0 50.74 89.94
  Q 49.82 91.59 48.21 92.19
  A 0.88 0.87 11.3 0 1 47.26 90.77
  L 50.57 87.29
  Q 51.16 86.66 51.76 87.28
  Z"
/>
<path fill="#43b78a" d="
  M 221.24 112.82
  L 229.65 112.95
  A 0.87 0.87 0.0 0 1 230.51 113.82
  L 230.54 119.76
  Q 230.12 121.25 230.53 122.48
  L 230.53 126.51
  L 230.53 129.23
  L 230.56 133.28
  Q 230.10 134.72 230.51 135.74
  L 230.51 211.72
  A 0.54 0.53 0.0 0 1 229.97 212.25
  L 138.01 212.25
  Q 137.54 212.25 137.55 211.79
  L 137.69 202.03
  L 220.67 202.01
  A 0.58 0.58 0.0 0 0 221.25 201.43
  L 221.24 112.82
  Z"
/>
<circle fill="#2cbff3" cx="238.12" cy="121.04" r="1.42"/>
<path fill="#2cbff3" d="
  M 230.54 119.76
  L 231.91 119.77
  A 1.22 1.22 0.0 0 1 232.93 121.64
  Q 232.27 122.69 230.53 122.48
  Q 230.12 121.25 230.54 119.76
  Z"
/>
<circle fill="#2cbff3" cx="238.16" cy="127.67" r="1.47"/>
<path fill="#2cbff3" d="
  M 230.53 126.51
  L 232.18 126.50
  A 1.15 1.14 -51.9 0 1 232.45 128.76
  L 230.53 129.23
  L 230.53 126.51
  Z"
/>
<circle fill="#2cbff3" cx="238.16" cy="134.29" r="1.41"/>
<path fill="#2cbff3" d="
  M 230.51 135.74
  Q 230.10 134.72 230.56 133.28
  Q 231.64 132.73 232.57 133.29
  A 1.15 1.15 0.0 0 1 231.88 135.42
  Q 231.37 135.38 230.51 135.74
  Z"
/>
<rect fill="#2cbff3" x="-1.26" y="-1.44" transform="translate(55.78,158.48) rotate(-6.5)" width="2.52" height="2.88" rx="1.07"/>
<circle fill="#2cbff3" cx="62.28" cy="158.41" r="1.49"/>
<circle fill="#2cbff3" cx="68.85" cy="158.44" r="1.46"/>
<circle fill="#2cbff3" cx="75.36" cy="158.41" r="1.51"/>
<path fill="#e7e6eb" d="
  M 36.74 159.20
  Q 36.93 159.26 37.12 159.26
  Q 37.31 159.25 37.44 159.39
  L 77.60 199.65
  Q 77.95 199.99 78.44 200.00
  L 79.00 200.00
  Q 78.87 200.85 79.03 201.45
  Q 79.18 201.98 79.73 201.98
  L 91.76 202.03
  L 82.52 202.20
  A 0.97 0.97 0.0 0 0 81.85 203.85
  L 111.70 233.94
  L 107.96 235.91
  Q 107.45 236.18 107.00 235.82
  Q 102.98 232.64 97.76 232.00
  A 1.56 1.56 0.0 0 0 96.17 234.24
  C 98.39 238.77 102.66 243.04 101.12 248.31
  Q 100.96 248.88 100.50 248.50
  Q 97.83 246.22 95.23 247.92
  Q 94.70 248.27 94.62 247.64
  Q 94.51 246.73 94.01 246.63
  Q 94.42 245.24 94.22 244.26
  A 0.98 0.98 0.0 0 0 93.26 243.49
  L 40.15 243.51
  Q 39.57 243.51 39.57 244.09
  L 39.58 246.69
  Q 39.46 246.23 39.55 246.93
  A 0.02 0.02 0.0 0 0 39.57 246.95
  L 40.05 247.02
  Q 40.51 247.08 40.06 247.18
  Q 39.79 247.24 39.65 247.31
  Q 38.95 247.66 39.75 247.63
  L 44.06 247.46
  A 0.34 0.34 0.0 0 1 44.21 248.11
  Q 43.08 248.61 41.77 248.68
  A 1.68 1.68 0.0 0 0 40.93 248.97
  Q 33.31 254.23 24.58 251.55
  C 19.35 249.94 19.05 254.04 14.91 254.67
  C 10.75 255.29 7.68 252.11 4.02 255.24
  Q 3.63 255.57 3.72 256.07
  Q 4.00 257.71 3.26 258.29
  L 3.26 195.25
  A 1.92 1.88 -24.0 0 1 3.77 193.96
  C 14.57 182.33 25.32 170.42 36.74 159.20
  Z
  M 31.75 195.39
  A 1.41 1.41 0.0 0 0 30.34 193.98
  A 1.41 1.41 0.0 0 0 28.93 195.39
  A 1.41 1.41 0.0 0 0 30.34 196.80
  A 1.41 1.41 0.0 0 0 31.75 195.39
  Z
  M 38.26 195.38
  A 1.43 1.43 0.0 0 0 36.83 193.95
  A 1.43 1.43 0.0 0 0 35.40 195.38
  A 1.43 1.43 0.0 0 0 36.83 196.81
  A 1.43 1.43 0.0 0 0 38.26 195.38
  Z
  M 44.77 195.36
  A 1.41 1.41 0.0 0 0 43.36 193.95
  A 1.41 1.41 0.0 0 0 41.95 195.36
  A 1.41 1.41 0.0 0 0 43.36 196.77
  A 1.41 1.41 0.0 0 0 44.77 195.36
  Z
  M 31.81 201.96
  A 1.45 1.45 0.0 0 0 30.36 200.51
  A 1.45 1.45 0.0 0 0 28.91 201.96
  A 1.45 1.45 0.0 0 0 30.36 203.41
  A 1.45 1.45 0.0 0 0 31.81 201.96
  Z
  M 38.33 202.03
  A 1.46 1.46 0.0 0 0 36.87 200.57
  A 1.46 1.46 0.0 0 0 35.41 202.03
  A 1.46 1.46 0.0 0 0 36.87 203.49
  A 1.46 1.46 0.0 0 0 38.33 202.03
  Z
  M 44.83 201.99
  A 1.41 1.41 0.0 0 0 43.42 200.58
  A 1.41 1.41 0.0 0 0 42.01 201.99
  A 1.41 1.41 0.0 0 0 43.42 203.40
  A 1.41 1.41 0.0 0 0 44.83 201.99
  Z
  M 31.73 208.59
  A 1.41 1.41 0.0 0 0 30.32 207.18
  A 1.41 1.41 0.0 0 0 28.91 208.59
  A 1.41 1.41 0.0 0 0 30.32 210.00
  A 1.41 1.41 0.0 0 0 31.73 208.59
  Z
  M 38.25 208.63
  A 1.41 1.41 0.0 0 0 36.84 207.22
  A 1.41 1.41 0.0 0 0 35.43 208.63
  A 1.41 1.41 0.0 0 0 36.84 210.04
  A 1.41 1.41 0.0 0 0 38.25 208.63
  Z
  M 43.7631 210.0241
  A 1.46 1.27 75.6 0 0 44.6301 208.2942
  A 1.46 1.27 75.6 0 0 43.0369 207.1959
  A 1.46 1.27 75.6 0 0 42.1699 208.9258
  A 1.46 1.27 75.6 0 0 43.7631 210.0241
  Z
  M 44.79 215.23
  A 1.42 1.42 0.0 0 0 43.37 213.81
  A 1.42 1.42 0.0 0 0 41.95 215.23
  A 1.42 1.42 0.0 0 0 43.37 216.65
  A 1.42 1.42 0.0 0 0 44.79 215.23
  Z
  M 30.64 216.76
  L 31.89 215.41
  A 0.49 0.49 0.0 0 0 31.87 214.72
  L 31.67 214.54
  A 1.88 1.27 42.8 0 0 29.43 214.19
  L 29.24 214.40
  A 1.88 1.27 42.8 0 0 29.75 216.61
  L 29.95 216.79
  A 0.49 0.49 0.0 0 0 30.64 216.76
  Z
  M 38.23 215.31
  A 1.41 1.41 0.0 0 0 36.82 213.90
  A 1.41 1.41 0.0 0 0 35.41 215.31
  A 1.41 1.41 0.0 0 0 36.82 216.72
  A 1.41 1.41 0.0 0 0 38.23 215.31
  Z
  M 31.77 221.83
  A 1.44 1.44 0.0 0 0 30.33 220.39
  A 1.44 1.44 0.0 0 0 28.89 221.83
  A 1.44 1.44 0.0 0 0 30.33 223.27
  A 1.44 1.44 0.0 0 0 31.77 221.83
  Z
  M 38.24 221.84
  A 1.42 1.42 0.0 0 0 36.82 220.42
  A 1.42 1.42 0.0 0 0 35.40 221.84
  A 1.42 1.42 0.0 0 0 36.82 223.26
  A 1.42 1.42 0.0 0 0 38.24 221.84
  Z
  M 44.80 221.84
  A 1.39 1.39 0.0 0 0 43.41 220.45
  A 1.39 1.39 0.0 0 0 42.02 221.84
  A 1.39 1.39 0.0 0 0 43.41 223.23
  A 1.39 1.39 0.0 0 0 44.80 221.84
  Z
  M 31.73 228.46
  A 1.41 1.41 0.0 0 0 30.32 227.05
  A 1.41 1.41 0.0 0 0 28.91 228.46
  A 1.41 1.41 0.0 0 0 30.32 229.87
  A 1.41 1.41 0.0 0 0 31.73 228.46
  Z
  M 43.7803 229.8016
  A 1.44 1.37 75.1 0 0 44.7339 228.0577
  A 1.44 1.37 75.1 0 0 43.0397 227.0184
  A 1.44 1.37 75.1 0 0 42.0861 228.7623
  A 1.44 1.37 75.1 0 0 43.7803 229.8016
  Z
  M 38.2720 228.8309
  A 1.46 1.34 13.1 0 0 37.1537 227.1949
  A 1.46 1.34 13.1 0 0 35.4280 228.1691
  A 1.46 1.34 13.1 0 0 36.5463 229.8051
  A 1.46 1.34 13.1 0 0 38.2720 228.8309
  Z"
/>
<circle fill="#2cbff3" cx="55.80" cy="165.05" r="1.44"/>
<circle fill="#2cbff3" cx="62.31" cy="164.99" r="1.47"/>
<circle fill="#2cbff3" cx="68.83" cy="165.01" r="1.50"/>
<circle fill="#2cbff3" cx="75.43" cy="165.03" r="1.44"/>
<circle fill="#2cbff3" cx="55.73" cy="171.63" r="1.42"/>
<circle fill="#2cbff3" cx="62.33" cy="171.61" r="1.46"/>
<circle fill="#2cbff3" cx="68.85" cy="171.65" r="1.46"/>
<circle fill="#2cbff3" cx="75.43" cy="171.66" r="1.44"/>
<circle fill="#2cbff3" cx="30.34" cy="195.39" r="1.41"/>
<circle fill="#2cbff3" cx="36.83" cy="195.38" r="1.43"/>
<circle fill="#2cbff3" cx="43.36" cy="195.36" r="1.41"/>
<circle fill="#2cbff3" cx="30.36" cy="201.96" r="1.45"/>
<circle fill="#2cbff3" cx="36.87" cy="202.03" r="1.46"/>
<circle fill="#2cbff3" cx="43.42" cy="201.99" r="1.41"/>
<circle fill="#2cbff3" cx="30.32" cy="208.59" r="1.41"/>
<circle fill="#2cbff3" cx="36.84" cy="208.63" r="1.41"/>
<ellipse fill="#2cbff3" cx="0.00" cy="0.00" transform="translate(43.40,208.61) rotate(75.6)" rx="1.46" ry="1.27"/>
<circle fill="#2cbff3" cx="43.37" cy="215.23" r="1.42"/>
<path fill="#2cbff3" d="
  M 30.64 216.76
  A 0.49 0.49 0.0 0 1 29.95 216.79
  L 29.75 216.61
  A 1.88 1.27 42.8 0 1 29.24 214.40
  L 29.43 214.19
  A 1.88 1.27 42.8 0 1 31.67 214.54
  L 31.87 214.72
  A 0.49 0.49 0.0 0 1 31.89 215.41
  L 30.64 216.76
  Z"
/>
<circle fill="#2cbff3" cx="36.82" cy="215.31" r="1.41"/>
<circle fill="#2cbff3" cx="30.33" cy="221.83" r="1.44"/>
<circle fill="#2cbff3" cx="36.82" cy="221.84" r="1.42"/>
<circle fill="#2cbff3" cx="43.41" cy="221.84" r="1.39"/>
<path fill="#2cbff3" d="
  M 270.61 224.53
  C 271.49 223.53 272.90 221.69 274.17 221.04
  A 0.95 0.95 0.0 0 1 275.29 222.55
  L 273.37 224.55
  A 0.69 0.69 0.0 0 0 273.39 225.53
  L 274.89 226.95
  Q 275.20 227.25 275.24 227.68
  L 275.26 228.00
  A 1.06 0.93 24.7 0 1 273.45 228.54
  L 270.62 225.37
  Q 270.24 224.95 270.61 224.53
  Z"
/>
<path fill="#2cbff3" d="
  M 250.24 225.64
  L 252.09 227.28
  A 0.64 0.63 36.1 0 1 252.22 228.08
  L 252.06 228.34
  A 1.05 1.04 -52.2 0 1 250.42 228.55
  L 247.54 225.66
  Q 247.11 225.24 247.42 224.72
  C 248.08 223.65 250.33 221.02 251.68 221.27
  A 0.73 0.73 0.0 0 1 252.08 222.48
  L 250.19 224.58
  A 0.75 0.74 -48.0 0 0 250.24 225.64
  Z"
/>
<path fill="#2cbff3" d="
  M 256.07 225.50
  L 258.02 227.62
  Q 258.37 228.00 257.99 228.36
  C 256.45 229.81 254.32 226.50 253.37 225.44
  A 0.71 0.71 0.0 0 1 253.29 224.58
  Q 254.64 222.42 256.87 221.24
  A 0.80 0.80 0.0 0 1 257.83 222.49
  L 256.07 224.43
  A 0.80 0.79 -45.3 0 0 256.07 225.50
  Z"
/>
<path fill="#2cbff3" d="
  M 262.00 225.09
  C 262.26 226.25 264.38 227.39 263.65 228.43
  A 0.96 0.95 39.8 0 1 262.19 228.56
  L 259.01 225.38
  A 0.69 0.69 0.0 0 1 259.01 224.40
  L 262.32 221.09
  A 0.92 0.92 0.0 0 1 263.68 222.32
  L 262.24 224.08
  A 1.22 1.21 -31.9 0 0 262.00 225.09
  Z"
/>
<path fill="#2cbff3" d="
  M 264.78 224.47
  C 265.57 223.69 268.50 219.82 269.58 221.81
  Q 269.77 222.17 269.50 222.46
  L 267.47 224.64
  A 0.62 0.62 0.0 0 0 267.61 225.59
  Q 269.08 226.46 269.55 228.03
  A 0.80 0.80 0.0 0 1 268.22 228.82
  L 264.78 225.41
  Q 264.31 224.94 264.78 224.47
  Z"
/>
<circle fill="#2cbff3" cx="30.32" cy="228.46" r="1.41"/>
<ellipse fill="#2cbff3" cx="0.00" cy="0.00" transform="translate(43.41,228.41) rotate(75.1)" rx="1.44" ry="1.37"/>
<ellipse fill="#2cbff3" cx="0.00" cy="0.00" transform="translate(36.85,228.50) rotate(13.1)" rx="1.46" ry="1.34"/>
<path fill="#f0f0f3" d="
  M 111.70 233.94
  C 131.64 256.21 155.27 277.02 174.71 296.98
  L 4.27 296.99
  Q 3.26 296.99 3.26 295.97
  L 3.26 258.29
  Q 4.00 257.71 3.72 256.07
  Q 3.63 255.57 4.02 255.24
  C 7.68 252.11 10.75 255.29 14.91 254.67
  C 19.05 254.04 19.35 249.94 24.58 251.55
  Q 33.31 254.23 40.93 248.97
  A 1.68 1.68 0.0 0 1 41.77 248.68
  Q 43.08 248.61 44.21 248.11
  A 0.34 0.34 0.0 0 0 44.06 247.46
  L 39.75 247.63
  Q 38.95 247.66 39.65 247.31
  Q 39.79 247.24 40.06 247.18
  Q 40.51 247.08 40.05 247.02
  L 39.57 246.95
  A 0.02 0.02 0.0 0 1 39.55 246.93
  Q 39.46 246.23 39.58 246.69
  L 94.01 246.63
  Q 94.51 246.73 94.62 247.64
  Q 94.70 248.27 95.23 247.92
  Q 97.83 246.22 100.50 248.50
  Q 100.96 248.88 101.12 248.31
  C 102.66 243.04 98.39 238.77 96.17 234.24
  A 1.56 1.56 0.0 0 1 97.76 232.00
  Q 102.98 232.64 107.00 235.82
  Q 107.45 236.18 107.96 235.91
  L 111.70 233.94
  Z"
/>
<path fill="#2cbff3" d="
  M 94.01 246.63
  L 39.58 246.69
  L 39.57 244.09
  Q 39.57 243.51 40.15 243.51
  L 93.26 243.49
  A 0.98 0.98 0.0 0 1 94.22 244.26
  Q 94.42 245.24 94.01 246.63
  Z"
/>
<path fill="#2cbff3" d="
  M 254.06 243.94
  Q 255.91 244.00 259.94 243.67
  Q 260.46 243.63 260.47 244.15
  L 260.51 245.45
  Q 260.52 246.03 259.95 246.06
  C 242.04 247.01 224.20 246.32 206.30 246.86
  A 0.48 0.47 -1.2 0 1 205.81 246.40
  L 205.73 244.11
  Q 205.71 243.63 206.19 243.62
  Q 230.14 243.12 254.06 243.94
  Z"
/>
<circle fill="#2cbff3" cx="265.09" cy="267.59" r="1.50"/>
<circle fill="#2cbff3" cx="291.33" cy="267.53" r="1.46"/>
<circle fill="#2cbff3" cx="271.72" cy="267.57" r="1.47"/>
<circle fill="#2cbff3" cx="278.23" cy="267.54" r="1.47"/>
<circle fill="#2cbff3" cx="284.82" cy="267.58" r="1.47"/>
<circle fill="#2cbff3" cx="284.81" cy="274.17" r="1.56"/>
<ellipse fill="#2cbff3" cx="0.00" cy="0.00" transform="translate(265.11,274.18) rotate(1.7)" rx="1.62" ry="1.48"/>
<circle fill="#2cbff3" cx="271.73" cy="274.14" r="1.52"/>
<circle fill="#2cbff3" cx="278.26" cy="274.14" r="1.55"/>
<circle fill="#2cbff3" cx="291.39" cy="274.16" r="1.44"/>
<circle fill="#2cbff3" cx="265.11" cy="280.82" r="1.55"/>
<circle fill="#2cbff3" cx="271.71" cy="280.83" r="1.52"/>
<circle fill="#2cbff3" cx="278.25" cy="280.80" r="1.52"/>
<circle fill="#2cbff3" cx="284.81" cy="280.81" r="1.52"/>
<circle fill="#2cbff3" cx="291.30" cy="280.78" r="1.52"/>
</svg>
