<?xml version="1.0" encoding="UTF-8" standalone="no"?>
<svg xmlns="http://www.w3.org/2000/svg" version="1.2" baseProfile="tiny" viewBox="0.00 0.00 220.00 220.00">
<g stroke-width="0.00" fill="none" stroke-linecap="butt">
</g>
<path fill="#ffffff" d="
  M 109.21 98.85
  L 65.50 76.29
  A 1.59 1.58 16.3 0 1 64.65 74.75
  Q 64.75 73.57 65.96 72.95
  Q 86.03 62.65 106.10 52.36
  Q 109.87 50.43 113.36 52.19
  Q 133.84 62.55 154.72 73.32
  A 1.72 1.71 45.0 0 1 154.72 76.37
  L 110.82 98.85
  A 1.75 1.73 -44.7 0 1 109.21 98.85
  Z"
/>
<path fill="#ffffff" d="
  M 63.35 79.34
  L 107.05 101.89
  A 2.03 2.01 13.9 0 1 108.15 103.70
  L 108.04 158.83
  A 1.84 1.84 0.0 0 1 105.70 160.60
  Q 105.10 160.43 104.26 159.99
  Q 84.41 149.69 64.51 139.46
  Q 60.56 137.43 60.55 132.50
  Q 60.51 107.13 60.47 81.75
  Q 60.46 80.01 61.61 79.37
  A 1.85 1.84 43.9 0 1 63.35 79.34
  Z"
/>
<path fill="#ffffff" d="
  M 112.73 102.01
  L 156.75 79.46
  A 1.81 1.81 0.0 0 1 159.39 81.06
  Q 159.50 106.88 159.40 132.25
  Q 159.38 137.18 155.41 139.27
  Q 135.05 149.99 114.61 160.52
  A 1.90 1.83 32.9 0 1 113.58 160.72
  Q 111.96 160.56 111.97 158.88
  Q 112.15 131.08 111.75 103.64
  A 1.82 1.81 76.2 0 1 112.73 102.01
  Z"
/>
</svg>
