<?xml version="1.0" encoding="UTF-8" standalone="no"?>
<svg xmlns="http://www.w3.org/2000/svg" version="1.2" baseProfile="tiny" viewBox="0.00 0.00 210.00 210.00">
<path fill="#ffffff" d="
  M 61.18 56.10
  A 1.53 1.41 -53.2 0 1 61.71 56.00
  L 148.00 56.00
  A 3.00 3.00 0.0 0 1 151.00 59.00
  L 151.00 120.49
  A 0.24 0.24 0.0 0 1 150.76 120.73
  L 59.26 120.74
  A 0.29 0.29 0.0 0 1 58.97 120.45
  Q 58.98 89.51 59.25 58.50
  Q 59.26 56.87 61.18 56.10
  Z
  M 112.42 72.33
  C 110.14 70.53 104.10 65.33 101.46 64.93
  C 99.27 64.60 96.83 66.50 96.77 69.00
  Q 96.71 72.37 96.79 82.84
  C 96.82 87.64 100.42 89.14 104.32 86.36
  Q 108.41 83.45 112.40 80.41
  C 115.76 77.85 115.69 74.92 112.42 72.33
  Z
  M 119.67 105.93
  C 117.71 100.59 113.96 95.67 108.13 94.63
  C 100.20 93.22 95.58 98.30 92.13 104.98
  Q 91.68 105.87 91.33 104.93
  C 88.88 98.27 83.16 93.55 75.85 94.54
  C 67.12 95.72 62.85 106.12 62.30 114.10
  Q 62.19 115.80 63.89 115.74
  L 64.32 115.72
  A 1.26 1.26 0.0 0 0 65.53 114.55
  C 67.13 92.59 88.52 92.02 90.18 114.28
  A 1.56 1.56 0.0 0 0 91.69 115.72
  Q 93.33 115.77 93.48 114.26
  C 94.17 107.36 97.21 98.17 105.62 97.66
  C 114.21 97.15 117.34 107.86 118.16 114.40
  Q 118.23 114.93 118.64 115.28
  Q 119.09 115.66 119.65 115.75
  A 1.55 1.53 7.7 0 0 121.40 114.43
  C 122.29 107.62 125.12 100.64 132.07 97.89
  A 1.11 1.11 0.0 0 1 133.53 98.57
  C 134.95 102.80 140.61 103.85 143.83 101.01
  C 151.63 94.15 138.21 83.17 133.30 93.97
  Q 133.09 94.43 132.60 94.52
  C 125.81 95.77 122.97 100.16 120.16 105.95
  Q 119.88 106.52 119.67 105.93
  Z"
/>
<path fill="#ffffff" d="
  M 101.53 68.36
  L 111.35 75.61
  A 0.93 0.93 0.0 0 1 111.35 77.11
  L 101.53 84.36
  A 0.93 0.93 0.0 0 1 100.04 83.61
  L 100.04 69.11
  A 0.93 0.93 0.0 0 1 101.53 68.36
  Z"
/>
<circle fill="#ffffff" cx="139.49" cy="96.07" r="3.28"/>
<rect fill="#ffffff" x="59.01" y="124.00" width="91.98" height="6.54" rx="0.95"/>
<path fill="#ffffff" d="
  M 119.92 140.44
  L 90.07 140.44
  A 0.30 0.30 0.0 0 1 89.81 140.01
  L 92.79 134.01
  A 0.30 0.30 0.0 0 1 93.06 133.84
  L 116.96 133.84
  A 0.30 0.30 0.0 0 1 117.23 134.01
  L 120.19 140.01
  A 0.30 0.30 0.0 0 1 119.92 140.44
  Z"
/>
<rect fill="#ffffff" x="78.74" y="143.74" width="52.50" height="2.26" rx="1.07"/>
</svg>
