<?xml version="1.0" encoding="UTF-8" standalone="no"?>
<svg xmlns="http://www.w3.org/2000/svg" version="1.2" baseProfile="tiny" viewBox="0.00 0.00 210.00 210.00">
<path fill="#ffffff" d="
  M 85.47 65.24
  L 76.29 65.24
  Q 75.43 65.24 75.45 66.10
  C 75.55 69.72 74.71 70.65 71.08 70.63
  Q 66.33 70.62 61.42 70.62
  A 2.41 2.41 0.0 0 1 59.00 68.21
  L 59.00 56.75
  A 1.75 1.75 0.0 0 1 60.75 55.00
  L 73.78 55.00
  A 1.41 1.40 82.4 0 1 75.13 56.04
  Q 75.56 57.65 75.27 59.26
  Q 75.16 59.84 75.76 59.84
  L 96.99 59.86
  Q 97.49 59.86 97.68 59.40
  C 99.46 55.10 102.23 54.92 106.49 54.99
  C 109.27 55.03 111.21 56.89 112.32 59.35
  A 0.88 0.87 -11.9 0 0 113.12 59.87
  L 133.76 59.85
  Q 134.74 59.85 134.62 58.87
  Q 134.41 57.15 135.13 55.55
  A 0.92 0.92 0.0 0 1 135.97 55.00
  L 149.25 55.00
  A 1.75 1.74 90.0 0 1 150.99 56.75
  L 151.00 68.23
  A 2.41 2.41 0.0 0 1 148.58 70.65
  Q 142.60 70.65 137.01 70.37
  C 134.20 70.23 134.58 67.67 134.67 65.71
  Q 134.69 65.25 134.23 65.25
  L 124.69 65.24
  Q 123.69 65.24 124.50 65.81
  Q 138.10 75.46 139.82 92.25
  A 0.92 0.90 11.6 0 0 140.29 92.95
  C 150.48 98.49 143.60 111.74 134.25 108.00
  C 127.73 105.40 127.61 96.24 133.97 93.21
  Q 134.58 92.92 134.48 92.25
  Q 131.61 72.58 112.85 66.32
  A 0.70 0.68 -62.8 0 0 112.07 66.58
  C 108.38 71.72 101.74 72.31 98.03 66.61
  Q 97.73 66.15 97.22 66.32
  Q 78.32 72.52 75.50 92.36
  Q 75.43 92.87 75.88 93.11
  C 81.70 96.19 82.70 104.56 76.58 107.62
  C 66.73 112.53 59.17 98.25 69.72 92.94
  Q 70.15 92.72 70.20 92.25
  Q 71.87 75.39 85.62 65.71
  Q 86.29 65.24 85.47 65.24
  Z"
/>
<path fill="#ffffff" d="
  M 111.00 116.72
  C 114.77 112.31 113.29 106.45 108.11 103.79
  Q 107.75 103.61 107.75 103.20
  L 107.75 78.97
  Q 107.75 78.19 108.18 78.84
  L 128.96 110.01
  A 2.31 2.30 -39.6 0 1 128.68 112.91
  Q 121.30 120.39 119.25 130.76
  Q 119.15 131.27 118.65 131.11
  Q 115.60 130.16 113.00 130.14
  C 103.43 130.07 96.77 129.59 91.35 131.09
  Q 90.87 131.22 90.77 130.74
  Q 88.67 120.47 81.40 113.00
  A 2.46 2.46 0.0 0 1 81.11 109.92
  L 101.77 78.93
  Q 102.25 78.21 102.25 79.08
  L 102.25 103.20
  Q 102.25 103.61 101.89 103.81
  Q 96.07 106.92 97.13 112.65
  C 98.35 119.17 106.59 121.85 111.00 116.72
  Z"
/>
<circle fill="#ffffff" cx="104.99" cy="111.29" r="2.69"/>
<path fill="#ffffff" d="
  M 87.07 145.53
  C 84.94 142.27 90.15 137.71 92.52 136.58
  C 96.61 134.61 105.20 135.47 110.17 135.51
  C 116.83 135.56 121.24 136.99 123.42 143.36
  A 2.00 2.00 0.0 0 1 121.53 146.00
  L 87.94 146.00
  Q 87.37 146.00 87.07 145.53
  Z"
/>
</svg>
