<?xml version="1.0" encoding="UTF-8" standalone="no"?>
<svg xmlns="http://www.w3.org/2000/svg" version="1.2" baseProfile="tiny" viewBox="0.00 0.00 210.00 210.00">
<path fill="#ffffff" d="
  M 126.04 56.34
  L 110.75 74.64
  A 1.37 1.37 0.0 0 1 109.69 75.14
  L 55.33 75.14
  Q 55.04 75.14 55.03 74.84
  C 54.95 69.94 53.93 60.30 56.58 56.15
  Q 56.82 55.78 57.26 55.78
  L 125.77 55.78
  A 0.35 0.34 19.9 0 1 126.04 56.34
  Z
  M 72.7253 62.6848
  A 0.33 0.33 0.0 0 0 72.3947 62.3554
  L 67.0947 62.3646
  A 0.33 0.33 0.0 0 0 66.7653 62.6952
  L 66.7747 68.0952
  A 0.33 0.33 0.0 0 0 67.1053 68.4246
  L 72.4053 68.4154
  A 0.33 0.33 0.0 0 0 72.7347 68.0848
  L 72.7253 62.6848
  Z
  M 85.4753 62.6848
  A 0.33 0.33 0.0 0 0 85.1447 62.3554
  L 79.8247 62.3646
  A 0.33 0.33 0.0 0 0 79.4953 62.6952
  L 79.5047 68.0952
  A 0.33 0.33 0.0 0 0 79.8353 68.4246
  L 85.1553 68.4154
  A 0.33 0.33 0.0 0 0 85.4847 68.0848
  L 85.4753 62.6848
  Z
  M 98.2094 62.6905
  A 0.32 0.32 0.0 0 0 97.8906 62.3693
  L 92.5506 62.3507
  A 0.32 0.32 0.0 0 0 92.2295 62.6696
  L 92.2106 68.0895
  A 0.32 0.32 0.0 0 0 92.5294 68.4107
  L 97.8694 68.4293
  A 0.32 0.32 0.0 0 0 98.1905 68.1104
  L 98.2094 62.6905
  Z"
/>
<path fill="#ffffff" d="
  M 112.58 81.05
  Q 113.14 81.05 113.49 80.62
  L 133.87 56.17
  Q 134.20 55.78 134.71 55.78
  L 152.95 55.77
  Q 153.35 55.77 153.53 56.13
  Q 154.97 59.00 154.98 61.00
  Q 155.04 99.75 154.93 138.50
  Q 154.92 141.74 153.73 144.56
  A 1.06 1.05 11.2 0 1 152.75 145.21
  L 57.23 145.22
  Q 56.63 145.22 56.37 144.69
  Q 55.05 142.07 55.03 140.00
  Q 54.88 125.35 55.05 81.50
  Q 55.05 81.04 55.51 81.04
  L 112.58 81.05
  Z
  M 103.86 116.00
  C 103.72 123.00 94.32 122.73 94.18 116.74
  Q 93.95 107.36 93.93 98.23
  Q 93.93 97.74 93.45 97.74
  L 88.52 97.75
  Q 88.03 97.75 88.02 98.24
  Q 87.92 107.32 88.00 116.50
  C 88.12 130.19 109.66 130.75 109.81 116.25
  Q 109.91 106.97 109.77 98.05
  Q 109.77 97.74 109.45 97.74
  L 104.30 97.75
  Q 103.98 97.75 103.99 98.06
  Q 104.04 106.83 103.86 116.00
  Z
  M 122.0246 98.2552
  A 0.51 0.51 0.0 0 0 121.5155 97.7443
  L 116.6155 97.7357
  A 0.51 0.51 0.0 0 0 116.1046 98.2449
  L 116.0554 126.4648
  A 0.51 0.51 0.0 0 0 116.5645 126.9757
  L 121.4645 126.9843
  A 0.51 0.51 0.0 0 0 121.9754 126.4751
  L 122.0246 98.2552
  Z"
/>
</svg>
