<?xml version="1.0" encoding="UTF-8" standalone="no"?>
<!DOCTYPE svg PUBLIC "-//W3C//DTD SVG 1.1//EN" "http://www.w3.org/Graphics/SVG/1.1/DTD/svg11.dtd">
<svg xmlns="http://www.w3.org/2000/svg" version="1.1" viewBox="0.00 0.00 2100.00 998.00">
<g stroke-width="0.00" fill="none" stroke-linecap="butt">
<path stroke="#447e67" vector-effect="non-scaling-stroke" d="
  M 1882.30 444.37
  L 1962.96 611.50"
/>
<path stroke="#447e67" vector-effect="non-scaling-stroke" d="
  M 1959.46 642.25
  Q 1958.99 642.87 1958.28 644.51
  Q 1932.26 705.18 1883.73 816.95
  Q 1883.39 817.73 1883.50 818.21"
/>
</g>
<path fill="#43b789" d="
  M 94.06 0.00
  L 107.81 0.00
  Q 149.16 3.69 175.80 33.20
  C 213.99 75.51 209.24 142.31 164.99 178.60
  C 100.93 231.14 6.43 189.09 0.00 107.44
  L 0.00 94.19
  C 3.98 42.40 42.65 5.06 94.06 0.00
  Z"
/>
<path fill="#43b789" d="
  M 1882.30 444.37
  L 1962.96 611.50
  L 1967.63 621.79
  Q 1967.86 622.29 1967.64 622.80
  L 1959.46 642.25
  Q 1958.99 642.87 1958.28 644.51
  Q 1932.26 705.18 1883.73 816.95
  Q 1883.39 817.73 1883.50 818.21
  Q 1883.03 818.45 1882.70 819.19
  C 1869.68 848.58 1856.30 878.01 1844.30 907.83
  Q 1821.00 965.69 1812.09 988.32
  C 1810.97 991.17 1809.67 992.00 1806.49 992.00
  Q 1739.78 992.00 1673.07 992.00
  C 1668.86 992.00 1667.00 989.25 1668.53 985.43
  Q 1739.18 808.79 1809.90 632.17
  Q 1810.46 630.78 1809.55 628.52
  Q 1739.03 452.86 1668.75 277.12
  C 1667.28 273.44 1668.38 270.00 1672.72 270.00
  Q 1739.72 270.00 1806.73 270.00
  C 1810.28 270.00 1811.28 271.60 1812.45 274.56
  Q 1840.28 344.43 1868.21 414.27
  Q 1871.65 422.89 1882.30 444.37
  Z"
/>
<path fill="#444444" d="
  M 1962.96 611.50
  L 1882.30 444.37
  C 1884.30 443.81 1885.77 442.96 1886.60 440.90
  Q 1920.08 357.11 1953.46 273.27
  Q 1954.16 271.50 1955.60 270.32
  Q 1955.99 270.00 1956.50 270.00
  Q 2024.03 270.00 2091.56 270.00
  C 2095.90 270.00 2098.55 272.35 2096.78 276.76
  Q 2029.71 444.07 1962.96 611.50
  Z"
/>
<rect fill="#444444" x="28.00" y="273.00" width="144.50" height="722.00" rx="3.81"/>
<path fill="#444444" d="
  M 512.01 568.85
  A 1.57 1.55 68.7 0 0 512.50 567.71
  Q 512.50 422.19 512.50 276.46
  C 512.50 274.46 513.90 273.01 515.84 273.01
  Q 585.17 272.99 654.59 273.00
  A 2.41 2.41 0.0 0 1 657.00 275.41
  Q 657.00 633.28 657.00 991.75
  C 657.00 993.59 654.64 994.99 652.75 994.99
  Q 584.84 995.01 516.92 995.00
  C 514.42 995.00 512.49 993.48 512.49 990.95
  Q 512.55 949.85 512.44 908.73
  Q 512.44 906.32 511.42 904.12
  Q 443.73 758.06 376.07 611.98
  C 373.96 607.42 368.50 607.74 368.50 613.00
  Q 368.50 802.25 368.50 991.50
  C 368.50 993.51 366.27 994.99 364.20 994.99
  Q 296.28 995.01 228.37 995.00
  C 226.30 995.00 223.75 993.37 223.75 991.44
  Q 223.75 633.72 223.75 276.00
  C 223.75 273.75 225.81 273.00 227.86 273.00
  Q 297.53 272.99 367.20 273.00
  Q 367.70 273.00 368.10 273.30
  Q 369.15 274.06 369.56 274.94
  Q 437.13 420.84 504.70 566.74
  C 506.34 570.27 508.61 572.10 512.01 568.85
  Z"
/>
<path fill="#444444" d="
  M 708.75 582.17
  C 708.75 484.46 708.92 384.60 708.72 277.00
  Q 708.72 274.81 710.32 273.34
  Q 710.68 273.00 711.18 273.00
  Q 856.22 273.00 1001.25 273.00
  Q 1014.26 273.00 1021.21 273.83
  C 1083.22 281.22 1132.00 329.95 1140.02 391.61
  Q 1140.99 399.04 1140.99 411.57
  Q 1141.01 632.91 1141.00 854.25
  Q 1141.00 867.34 1140.24 874.23
  C 1133.40 936.36 1084.72 985.67 1022.89 993.99
  Q 1015.48 994.99 1002.95 994.99
  Q 857.74 995.01 712.54 995.00
  C 710.02 995.00 708.75 993.58 708.75 991.19
  Q 708.75 786.68 708.75 582.17
  Z
  M 854.02 418.55
  C 852.80 563.75 853.52 703.19 853.49 845.42
  C 853.49 848.59 853.79 851.01 857.50 851.01
  Q 905.97 851.03 954.44 850.98
  Q 969.07 850.97 974.30 849.46
  C 986.11 846.06 997.50 834.03 997.50 821.00
  Q 997.50 636.88 997.50 452.76
  Q 997.50 444.35 996.12 440.02
  C 991.58 425.67 978.07 417.99 963.49 417.98
  Q 909.06 417.94 854.54 418.03
  Q 854.02 418.03 854.02 418.55
  Z"
/>
<path fill="#444444" d="
  M 1197.25 273.24
  Q 1197.38 273.26 1197.48 273.15
  Q 1197.60 273.00 1197.79 273.00
  Q 1409.24 273.00 1620.70 273.00
  C 1622.80 273.00 1625.24 274.60 1625.24 276.56
  Q 1625.26 344.65 1625.25 412.75
  C 1625.25 415.40 1623.12 417.00 1620.44 417.00
  Q 1407.97 417.00 1195.50 417.00
  C 1193.41 417.00 1192.01 414.80 1192.01 412.69
  Q 1191.99 345.35 1192.00 278.00
  Q 1192.00 276.34 1192.61 274.41
  Q 1192.77 273.92 1193.25 273.75
  Q 1195.20 273.03 1197.25 273.24
  Z"
/>
<path fill="#43b789" d="
  M 1195.75 560.50
  Q 1411.13 560.50 1626.50 560.50
  Q 1627.00 560.50 1627.00 561.00
  L 1627.00 713.00
  A 2.00 2.00 0.0 0 1 1625.00 715.00
  L 1194.02 715.00
  Q 1193.54 715.00 1193.17 714.69
  C 1190.66 712.55 1189.26 710.11 1189.26 706.57
  Q 1189.23 633.60 1189.26 560.63
  Q 1189.26 559.98 1189.91 559.99
  C 1191.92 560.02 1194.03 560.50 1195.75 560.50
  Z"
/>
<path fill="#444444" d="
  M 1959.46 642.25
  Q 2028.20 813.89 2096.87 985.56
  C 2098.05 988.49 2096.94 991.99 2093.41 992.00
  Q 2024.83 992.00 1956.43 992.00
  A 2.31 2.31 0.0 0 1 1954.28 990.54
  Q 1920.17 905.41 1886.22 820.30
  Q 1885.80 819.22 1883.50 818.21
  Q 1883.39 817.73 1883.73 816.95
  Q 1932.26 705.18 1958.28 644.51
  Q 1958.99 642.87 1959.46 642.25
  Z"
/>
<rect fill="#444444" x="1192.00" y="851.00" width="433.24" height="144.00" rx="4.07"/>
</svg>
