<?xml version="1.0" encoding="UTF-8" standalone="no"?>
<!DOCTYPE svg PUBLIC "-//W3C//DTD SVG 1.1//EN" "http://www.w3.org/Graphics/SVG/1.1/DTD/svg11.dtd">
<svg xmlns="http://www.w3.org/2000/svg" version="1.1" viewBox="0.00 0.00 393.00 394.00">
<g stroke-width="0.00" fill="none" stroke-linecap="butt">
<path stroke="#6d6d6c" vector-effect="non-scaling-stroke" d="
  M 1.30 0.00
  Q 0.62 1.06 1.27 1.91"
/>
<path stroke="#6ca78f" vector-effect="non-scaling-stroke" d="
  M 1.27 1.91
  L 1.26 3.50"
/>
<path stroke="#6d6d6c" vector-effect="non-scaling-stroke" d="
  M 1.26 3.50
  Q 0.66 5.14 1.20 6.76"
/>
<path stroke="#6ca78f" vector-effect="non-scaling-stroke" d="
  M 1.20 6.76
  L 1.03 10.77"
/>
<path stroke="#6d6d6c" vector-effect="non-scaling-stroke" d="
  M 1.03 10.77
  Q 0.58 13.13 1.22 14.40"
/>
<path stroke="#6ca78f" vector-effect="non-scaling-stroke" d="
  M 1.22 14.40
  L 1.25 15.74"
/>
<path stroke="#6d6d6c" vector-effect="non-scaling-stroke" d="
  M 1.25 15.74
  C 0.35 16.13 0.83 76.39 0.83 82.50
  C 0.76 180.93 0.35 279.45 1.07 377.81"
/>
<path stroke="#6ca78f" vector-effect="non-scaling-stroke" d="
  M 1.07 377.81
  Q 1.41 378.61 1.23 379.58"
/>
<path stroke="#6d6d6c" vector-effect="non-scaling-stroke" d="
  M 1.23 379.58
  Q 0.66 381.32 1.22 382.80"
/>
<path stroke="#6ca78f" vector-effect="non-scaling-stroke" d="
  M 1.22 382.80
  L 1.09 386.75"
/>
<path stroke="#6d6d6c" vector-effect="non-scaling-stroke" d="
  M 1.09 386.75
  Q 0.65 389.38 1.21 390.30"
/>
<path stroke="#6ca78f" vector-effect="non-scaling-stroke" d="
  M 1.21 390.30
  L 0.77 392.49"
/>
<path stroke="#6d6d6c" vector-effect="non-scaling-stroke" d="
  M 0.77 392.49
  Q 24.65 393.83 48.27 393.20
  C 80.23 392.36 112.38 393.17 144.37 393.29
  Q 144.69 393.29 144.85 393.02
  L 145.01 392.76"
/>
<path stroke="#6ca78f" vector-effect="non-scaling-stroke" d="
  M 145.01 392.76
  Q 145.47 392.63 145.88 392.87"
/>
<path stroke="#6d6d6c" vector-effect="non-scaling-stroke" d="
  M 145.88 392.87
  L 152.63 393.05"
/>
<path stroke="#6ca78f" vector-effect="non-scaling-stroke" d="
  M 152.63 393.05
  Q 153.16 392.36 153.74 392.95"
/>
<path stroke="#6d6d6c" vector-effect="non-scaling-stroke" d="
  M 153.74 392.95
  L 160.50 393.04"
/>
<path stroke="#6ca78f" vector-effect="non-scaling-stroke" d="
  M 160.50 393.04
  L 161.69 393.05"
/>
<path stroke="#6d6d6c" vector-effect="non-scaling-stroke" d="
  M 161.69 393.05
  Q 165.00 393.55 168.29 393.05"
/>
<path stroke="#6ca78f" vector-effect="non-scaling-stroke" d="
  M 168.29 393.05
  L 169.47 393.01"
/>
<path stroke="#6d6d6c" vector-effect="non-scaling-stroke" d="
  M 169.47 393.01
  Q 172.88 393.57 176.29 393.05"
/>
<path stroke="#6ca78f" vector-effect="non-scaling-stroke" d="
  M 176.29 393.05
  L 177.21 393.02"
/>
<path stroke="#6d6d6c" vector-effect="non-scaling-stroke" d="
  M 177.21 393.02
  L 184.14 393.08"
/>
<path stroke="#6ca78f" vector-effect="non-scaling-stroke" d="
  M 184.14 393.08
  L 185.31 392.73"
/>
<path stroke="#6d6d6c" vector-effect="non-scaling-stroke" d="
  M 185.31 392.73
  C 187.27 394.08 203.77 393.08 207.37 393.16
  Q 207.68 393.16 207.90 392.96
  Q 208.01 392.86 208.13 392.75"
/>
<path stroke="#6ca78f" vector-effect="non-scaling-stroke" d="
  M 208.13 392.75
  Q 208.64 392.56 209.13 392.99"
/>
<path stroke="#6d6d6c" vector-effect="non-scaling-stroke" d="
  M 209.13 392.99
  Q 212.46 393.65 215.99 392.98"
/>
<path stroke="#6ca78f" vector-effect="non-scaling-stroke" d="
  M 215.99 392.98
  Q 216.89 392.36 216.94 393.00"
/>
<path stroke="#6d6d6c" vector-effect="non-scaling-stroke" d="
  M 216.94 393.00
  Q 220.61 393.64 224.03 392.98"
/>
<path stroke="#6ca78f" vector-effect="non-scaling-stroke" d="
  M 224.03 392.98
  Q 224.06 392.43 224.89 392.92"
/>
<path stroke="#6d6d6c" vector-effect="non-scaling-stroke" d="
  M 224.89 392.92
  Q 228.11 393.67 231.70 393.02"
/>
<path stroke="#6ca78f" vector-effect="non-scaling-stroke" d="
  M 231.70 393.02
  Q 231.98 392.41 232.96 392.92"
/>
<path stroke="#6d6d6c" vector-effect="non-scaling-stroke" d="
  M 232.96 392.92
  Q 236.03 393.71 239.77 392.96"
/>
<path stroke="#6ca78f" vector-effect="non-scaling-stroke" d="
  M 239.77 392.96
  Q 240.20 392.40 240.74 392.93"
/>
<path stroke="#6d6d6c" vector-effect="non-scaling-stroke" d="
  M 240.74 392.93
  L 247.56 393.01"
/>
<path stroke="#6ca78f" vector-effect="non-scaling-stroke" d="
  M 247.56 393.01
  Q 247.90 392.62 248.66 392.78"
/>
<path stroke="#6d6d6c" vector-effect="non-scaling-stroke" d="
  M 248.66 392.78
  Q 249.47 393.32 251.75 393.30
  C 298.70 393.03 345.92 393.63 393.00 392.94"
/>
<path stroke="#6d6d6c" vector-effect="non-scaling-stroke" d="
  M 2.30 0.00
  Q 26.69 0.56 51.07 0.00"
/>
<path stroke="#447e67" vector-effect="non-scaling-stroke" d="
  M 144.94 0.00
  C 144.98 4.10 144.03 26.22 145.35 28.28
  A 0.36 0.36 0.0 0 0 146.01 28.09
  L 146.01 0.00"
/>
<path stroke="#447e67" vector-effect="non-scaling-stroke" d="
  M 152.70 0.00
  C 152.77 7.89 152.28 27.44 153.08 28.33
  Q 153.59 28.90 153.62 28.13
  C 154.04 18.74 153.65 9.41 154.17 0.00"
/>
<path stroke="#447e67" vector-effect="non-scaling-stroke" d="
  M 160.45 0.00
  L 160.71 27.90
  Q 160.72 28.31 161.11 28.20
  C 162.07 27.93 161.80 2.76 161.80 0.00"
/>
<path stroke="#447e67" vector-effect="non-scaling-stroke" d="
  M 168.41 0.00
  L 168.51 27.80
  A 0.44 0.43 75.2 0 0 169.16 28.18
  C 170.10 27.64 169.71 3.04 169.71 0.00"
/>
<path stroke="#447e67" vector-effect="non-scaling-stroke" d="
  M 176.33 0.00
  L 176.43 27.93
  Q 176.43 28.30 176.81 28.25
  L 177.09 28.21
  Q 177.51 28.16 177.51 27.74
  L 177.51 0.00"
/>
<path stroke="#447e67" vector-effect="non-scaling-stroke" d="
  M 184.06 0.00
  L 184.26 27.77
  Q 184.26 28.16 184.65 28.21
  L 184.93 28.25
  Q 185.38 28.31 185.40 27.86
  C 185.98 18.57 185.49 9.31 185.82 0.00"
/>
<path stroke="#447e67" vector-effect="non-scaling-stroke" d="
  M 208.20 0.00
  L 207.89 27.31
  A 0.79 0.79 0.0 0 0 209.23 27.89
  C 210.02 27.13 209.29 3.06 209.24 0.00"
/>
<path stroke="#447e67" vector-effect="non-scaling-stroke" d="
  M 216.15 0.00
  C 216.10 3.43 215.29 26.83 216.45 28.09
  A 0.47 0.46 23.8 0 0 217.26 27.78
  L 217.26 0.00"
/>
<path stroke="#447e67" vector-effect="non-scaling-stroke" d="
  M 224.02 0.00
  L 224.02 27.83
  A 0.45 0.45 0.0 0 0 224.89 27.98
  Q 225.04 27.57 225.05 26.99
  Q 225.36 13.50 224.96 0.00"
/>
<path stroke="#447e67" vector-effect="non-scaling-stroke" d="
  M 232.05 0.00
  L 232.01 27.83
  A 0.43 0.42 -26.0 0 0 232.77 28.09
  C 234.21 26.25 233.05 3.90 232.94 0.00"
/>
<path stroke="#447e67" vector-effect="non-scaling-stroke" d="
  M 239.96 0.00
  L 239.75 27.56
  A 0.65 0.65 0.0 0 0 240.72 28.13
  C 241.35 27.77 240.81 2.81 240.76 0.00"
/>
<path stroke="#447e67" vector-effect="non-scaling-stroke" d="
  M 247.77 0.00
  L 247.78 27.90
  A 0.37 0.36 72.0 0 0 248.36 28.20
  L 248.61 28.02
  Q 248.80 27.87 248.81 27.63
  L 248.86 0.00"
/>
<path stroke="#6d6d6c" vector-effect="non-scaling-stroke" d="
  M 345.05 0.00
  Q 351.29 0.58 357.59 0.00"
/>
<path stroke="#6d6d6c" vector-effect="non-scaling-stroke" d="
  M 359.05 0.00
  C 365.85 0.15 392.08 -0.22 393.00 0.55"
/>
<path stroke="#447e67" vector-effect="non-scaling-stroke" d="
  M 393.00 1.85
  L 346.21 1.77
  A 2.03 1.91 -32.0 0 1 345.45 1.62
  Q 344.45 1.20 343.94 2.43
  A 0.75 0.75 0.0 0 0 344.63 3.47
  L 393.00 3.79"
/>
<path stroke="#447e67" vector-effect="non-scaling-stroke" d="
  M 393.00 7.83
  L 392.65 7.16
  Q 392.44 6.75 391.99 6.75
  L 344.50 6.75
  Q 344.00 6.75 344.00 7.25
  L 344.00 10.24
  Q 344.00 10.77 344.53 10.77
  L 393.00 10.87"
/>
<path stroke="#447e67" vector-effect="non-scaling-stroke" d="
  M 393.00 14.14
  L 344.54 14.20
  Q 344.02 14.20 344.02 14.72
  L 344.02 15.55
  Q 344.02 16.01 344.48 16.01
  L 393.00 16.03"
/>
<path stroke="#447e67" vector-effect="non-scaling-stroke" d="
  M 393.00 377.80
  L 344.63 377.56
  Q 344.06 377.56 344.06 378.13
  L 344.06 379.06
  Q 344.06 379.75 344.76 379.75
  L 393.00 379.78"
/>
<path stroke="#447e67" vector-effect="non-scaling-stroke" d="
  M 393.00 382.89
  L 344.55 382.78
  Q 344.00 382.78 344.00 383.33
  L 344.00 386.20
  Q 344.00 386.77 344.57 386.77
  L 393.00 386.83"
/>
<path stroke="#447e67" vector-effect="non-scaling-stroke" d="
  M 393.00 390.23
  L 344.57 390.26
  Q 344.00 390.26 344.00 390.83
  L 344.00 391.24
  A 0.51 0.51 0.0 0 0 344.51 391.75
  L 393.00 391.88"
/>
<path stroke="#447e67" vector-effect="non-scaling-stroke" d="
  M 248.66 392.78
  Q 248.44 378.55 248.49 364.50
  Q 248.50 363.98 247.86 364.54
  A 0.54 0.53 -20.9 0 0 247.68 364.94
  L 247.56 393.01"
/>
<path stroke="#447e67" vector-effect="non-scaling-stroke" d="
  M 240.74 392.93
  L 240.61 364.64
  Q 240.61 364.47 240.44 364.50
  L 240.15 364.54
  Q 239.77 364.59 239.77 364.97
  L 239.77 392.96"
/>
<path stroke="#447e67" vector-effect="non-scaling-stroke" d="
  M 232.96 392.92
  L 232.66 364.61
  Q 232.66 364.56 232.60 364.54
  Q 232.47 364.48 232.33 364.49
  A 0.27 0.27 0.0 0 0 232.08 364.76
  L 231.70 393.02"
/>
<path stroke="#447e67" vector-effect="non-scaling-stroke" d="
  M 224.89 392.92
  L 224.90 364.80
  Q 224.90 364.64 224.75 364.59
  Q 224.61 364.54 224.48 364.49
  A 0.32 0.32 0.0 0 0 224.06 364.79
  L 224.03 392.98"
/>
<path stroke="#447e67" vector-effect="non-scaling-stroke" d="
  M 216.94 393.00
  C 217.30 383.65 217.08 374.40 217.15 365.05
  C 217.16 364.62 216.92 364.43 216.51 364.50
  A 0.34 0.33 -3.1 0 0 216.22 364.82
  L 215.99 392.98"
/>
<path stroke="#447e67" vector-effect="non-scaling-stroke" d="
  M 209.13 392.99
  L 209.17 364.60
  A 0.36 0.36 0.0 0 0 208.53 364.36
  C 207.76 365.25 208.19 389.47 208.13 392.75"
/>
<path stroke="#447e67" vector-effect="non-scaling-stroke" d="
  M 185.31 392.73
  L 185.25 364.62
  A 0.41 0.41 0.0 0 0 184.46 364.45
  Q 183.88 365.73 183.88 367.25
  Q 183.85 380.02 184.14 393.08"
/>
<path stroke="#447e67" vector-effect="non-scaling-stroke" d="
  M 177.21 393.02
  L 177.24 364.72
  Q 177.24 364.50 177.02 364.50
  Q 176.89 364.50 176.76 364.50
  Q 176.34 364.50 176.34 364.92
  L 176.29 393.05"
/>
<path stroke="#447e67" vector-effect="non-scaling-stroke" d="
  M 169.47 393.01
  L 169.28 364.85
  A 0.36 0.36 0.0 0 0 168.95 364.49
  C 167.95 364.38 168.25 390.45 168.29 393.05"
/>
<path stroke="#447e67" vector-effect="non-scaling-stroke" d="
  M 161.69 393.05
  Q 161.84 378.76 161.49 364.69
  Q 161.47 364.12 160.87 364.26
  A 0.48 0.48 0.0 0 0 160.50 364.73
  L 160.50 393.04"
/>
<path stroke="#447e67" vector-effect="non-scaling-stroke" d="
  M 153.74 392.95
  L 153.73 364.77
  A 0.48 0.48 0.0 0 0 153.05 364.33
  C 152.03 364.77 152.57 389.89 152.63 393.05"
/>
<path stroke="#447e67" vector-effect="non-scaling-stroke" d="
  M 145.88 392.87
  L 145.89 368.89
  A 0.40 0.39 -44.9 0 0 145.10 368.89
  L 145.01 392.76"
/>
<path stroke="#447e67" vector-effect="non-scaling-stroke" d="
  M 0.77 392.49
  Q 26.75 391.21 52.17 391.74
  Q 52.75 391.75 52.75 391.17
  L 52.75 390.76
  Q 52.75 390.33 52.32 390.33
  L 1.21 390.30"
/>
<path stroke="#447e67" vector-effect="non-scaling-stroke" d="
  M 1.09 386.75
  L 52.07 386.75
  A 0.61 0.60 87.4 0 0 52.67 386.09
  L 52.43 383.22
  Q 52.40 382.79 51.97 382.79
  L 1.22 382.80"
/>
<path stroke="#447e67" vector-effect="non-scaling-stroke" d="
  M 1.23 379.58
  C 18.08 379.40 34.89 379.76 51.65 379.44
  Q 52.15 379.43 52.52 379.08
  Q 53.02 378.62 52.51 378.16
  Q 52.15 377.83 51.66 377.83
  L 1.07 377.81"
/>
<path stroke="#447e67" vector-effect="non-scaling-stroke" d="
  M 1.25 15.74
  Q 24.56 15.77 47.86 15.73
  C 49.05 15.73 51.18 16.46 52.45 15.56
  A 0.74 0.74 0.0 0 0 52.02 14.21
  L 1.22 14.40"
/>
<path stroke="#447e67" vector-effect="non-scaling-stroke" d="
  M 1.03 10.77
  L 52.17 10.74
  Q 52.63 10.74 52.61 10.28
  L 52.45 7.22
  Q 52.43 6.76 51.98 6.76
  L 1.20 6.76"
/>
<path stroke="#447e67" vector-effect="non-scaling-stroke" d="
  M 1.26 3.50
  L 51.73 3.50
  Q 52.15 3.50 52.44 3.20
  Q 53.21 2.44 52.18 1.92
  Q 51.81 1.72 51.39 1.73
  C 34.72 1.78 17.89 1.16 1.27 1.91"
/>
<path stroke="#4a9a7a" vector-effect="non-scaling-stroke" d="
  M 23.70 28.80
  A 2.74 2.74 0.0 0 0 20.96 26.06
  A 2.74 2.74 0.0 0 0 18.22 28.80
  A 2.74 2.74 0.0 0 0 20.96 31.54
  A 2.74 2.74 0.0 0 0 23.70 28.80"
/>
<path stroke="#a2a2a2" vector-effect="non-scaling-stroke" d="
  M 32.06 41.32
  Q 30.43 37.77 28.74 34.23
  Q 28.53 33.79 28.05 33.78
  L 25.13 33.69
  Q 24.50 33.67 24.50 34.30
  L 24.50 53.12
  Q 24.50 53.75 25.12 53.75
  L 27.87 53.75
  Q 28.50 53.75 28.50 53.12
  L 28.50 43.78
  Q 28.50 42.95 28.93 43.66
  Q 31.68 48.21 32.83 53.36
  Q 32.92 53.75 33.32 53.75
  L 36.15 53.75
  Q 36.55 53.75 36.55 53.35
  L 36.48 34.24
  Q 36.48 33.75 35.99 33.75
  L 33.00 33.75
  Q 32.50 33.75 32.50 34.25
  L 32.50 41.22
  Q 32.50 42.27 32.06 41.32"
/>
<path stroke="#a2a2a2" vector-effect="non-scaling-stroke" d="
  M 38.27 33.95
  L 38.21 53.43
  A 0.33 0.33 0.0 0 0 38.53 53.76
  L 46.19 53.79
  A 4.03 3.96 0.2 0 0 50.24 49.84
  L 50.28 37.62
  A 4.03 3.96 0.2 0 0 46.27 33.65
  L 38.61 33.62
  A 0.33 0.33 0.0 0 0 38.27 33.95"
/>
<path stroke="#a2a2a2" vector-effect="non-scaling-stroke" d="
  M 63.8514 33.9583
  A 0.27 0.27 0.0 0 0 63.5800 33.6898
  L 52.0202 33.7503
  A 0.27 0.27 0.0 0 0 51.7516 34.0217
  L 51.7686 37.2617
  A 0.27 0.27 0.0 0 0 52.0400 37.5302
  L 63.5998 37.4697
  A 0.27 0.27 0.0 0 0 63.8684 37.1983
  L 63.8514 33.9583"
/>
<path stroke="#a2a2a2" vector-effect="non-scaling-stroke" d="
  M 71.25 49.07
  L 72.96 53.31
  Q 73.14 53.75 73.62 53.75
  L 76.50 53.75
  Q 77.23 53.75 76.95 53.07
  L 73.45 44.66"
/>
<path stroke="#4a9a7a" vector-effect="non-scaling-stroke" d="
  M 73.45 44.66
  Q 73.04 44.04 73.38 42.90"
/>
<path stroke="#a2a2a2" vector-effect="non-scaling-stroke" d="
  M 73.38 42.90
  L 76.94 34.17
  Q 77.21 33.50 76.49 33.50
  L 73.81 33.50
  Q 73.27 33.50 73.05 34.00
  L 71.18 38.20"
/>
<path stroke="#4a9a7a" vector-effect="non-scaling-stroke" d="
  M 71.18 38.20
  L 69.25 33.92
  Q 69.06 33.49 68.59 33.49
  L 65.67 33.51
  A 0.45 0.44 78.0 0 0 65.27 34.13
  L 69.00 43.07
  Q 69.20 43.57 69.00 44.07
  L 65.35 53.01
  Q 65.05 53.75 65.85 53.75
  L 68.73 53.75
  Q 69.28 53.75 69.39 53.21
  Q 69.86 50.98 71.25 49.07"
/>
<path stroke="#a7f7d8" vector-effect="non-scaling-stroke" d="
  M 71.18 38.20
  L 73.38 42.90"
/>
<path stroke="#a7f7d8" vector-effect="non-scaling-stroke" d="
  M 73.45 44.66
  Q 71.69 46.83 71.25 49.07"
/>
<path stroke="#a2a2a2" vector-effect="non-scaling-stroke" d="
  M 22.7870 34.0333
  A 0.27 0.27 0.0 0 0 22.5174 33.7629
  L 19.2574 33.7572
  A 0.27 0.27 0.0 0 0 18.9870 34.0267
  L 18.9530 53.4667
  A 0.27 0.27 0.0 0 0 19.2226 53.7371
  L 22.4826 53.7428
  A 0.27 0.27 0.0 0 0 22.7530 53.4733
  L 22.7870 34.0333"
/>
<path stroke="#4a9a7a" vector-effect="non-scaling-stroke" d="
  M 63.9949 42.0834
  A 0.39 0.39 0.0 0 0 63.6083 41.6900
  L 52.1687 41.5902
  A 0.39 0.39 0.0 0 0 51.7753 41.9767
  L 51.7451 45.4366
  A 0.39 0.39 0.0 0 0 52.1317 45.8300
  L 63.5713 45.9298
  A 0.39 0.39 0.0 0 0 63.9647 45.5433
  L 63.9949 42.0834"
/>
<path stroke="#a2a2a2" vector-effect="non-scaling-stroke" d="
  M 63.88 50.01
  A 0.26 0.26 0.0 0 0 63.62 49.75
  L 52.02 49.75
  A 0.26 0.26 0.0 0 0 51.76 50.01
  L 51.76 53.49
  A 0.26 0.26 0.0 0 0 52.02 53.75
  L 63.62 53.75
  A 0.26 0.26 0.0 0 0 63.88 53.49
  L 63.88 50.01"
/>
<path stroke="#6d6d6c" vector-effect="non-scaling-stroke" d="
  M 47.39 60.18
  A 0.27 0.26 -1.0 0 1 47.70 60.47
  Q 47.59 61.20 48.05 61.62
  A 0.76 0.75 -47.4 0 0 49.13 61.57
  L 51.48 58.88
  Q 52.04 58.24 51.20 58.14
  L 49.54 57.95
  A 0.55 0.55 0.0 0 0 48.95 58.67
  Q 49.26 59.61 48.44 60.16
  A 0.34 0.34 0.0 0 1 47.94 59.76
  L 48.34 58.73
  Q 48.55 58.16 47.95 58.15
  Q 45.56 58.10 43.15 58.14
  A 1.32 1.31 -23.6 0 1 42.22 57.78
  Q 41.22 56.85 39.82 57.30
  Q 39.33 57.45 39.25 57.95
  Q 39.00 59.38 39.81 60.48
  A 0.56 0.56 0.0 0 0 40.64 60.56
  Q 41.82 59.47 43.22 60.50
  Q 43.62 60.79 44.10 60.71
  L 47.39 60.18"
/>
<path stroke="#6d6d6c" vector-effect="non-scaling-stroke" d="
  M 21.75 59.34
  L 22.72 60.30
  A 0.38 0.37 -48.3 0 0 23.29 60.26
  L 23.87 59.48
  Q 24.22 59.02 24.59 59.46
  Q 25.24 60.24 26.22 60.68
  A 0.30 0.29 -8.0 0 0 26.57 60.22
  L 25.96 59.52
  A 0.49 0.48 -20.3 0 1 26.33 58.72
  Q 27.24 58.73 27.41 59.58
  Q 27.51 60.05 28.00 60.09
  L 34.47 60.68
  A 1.24 1.24 0.0 0 0 35.22 58.38
  Q 33.52 57.36 31.10 58.26
  Q 30.66 58.42 30.20 58.37
  C 28.14 58.17 20.95 58.63 19.77 57.57
  Q 19.32 57.16 19.18 57.76
  Q 18.90 59.00 19.39 60.21
  Q 19.57 60.67 19.94 60.35
  L 21.18 59.31
  Q 21.48 59.07 21.75 59.34"
/>
<path stroke="#6d6d6c" vector-effect="non-scaling-stroke" d="
  M 37.3394 61.5492
  A 2.17 0.41 91.6 0 0 37.8098 59.3914
  A 2.17 0.41 91.6 0 0 37.4606 57.2108
  A 2.17 0.41 91.6 0 0 36.9902 59.3686
  A 2.17 0.41 91.6 0 0 37.3394 61.5492"
/>
<path stroke="#6d6d6c" vector-effect="non-scaling-stroke" d="
  M 54.15 60.23
  Q 53.80 60.71 54.13 61.22
  Q 54.50 61.78 54.70 61.14
  Q 55.28 59.32 54.86 57.42
  A 0.43 0.41 -50.1 0 0 54.04 57.51
  Q 53.97 58.45 54.28 59.33
  Q 54.45 59.81 54.15 60.23"
/>
<path stroke="#6d6d6c" vector-effect="non-scaling-stroke" d="
  M 56.95 59.06
  L 57.69 57.94
  A 0.72 0.62 -15.2 0 0 56.48 57.36
  C 55.87 58.26 55.80 61.70 57.48 60.68
  Q 57.78 60.49 57.50 60.28
  L 57.12 60.00
  Q 56.59 59.61 56.95 59.06"
/>
<path stroke="#6d6d6c" vector-effect="non-scaling-stroke" d="
  M 69.95 59.37
  Q 70.40 60.03 71.11 59.51
  Q 71.45 59.27 71.79 59.51
  L 73.10 60.42
  Q 73.55 60.74 74.03 60.45
  Q 74.72 60.03 75.36 60.75
  A 0.53 0.53 0.0 0 0 76.28 60.50
  L 76.66 58.59
  Q 76.74 58.17 76.32 58.17
  L 67.78 58.13
  Q 67.33 58.13 67.16 58.54
  Q 66.60 59.90 68.14 60.55
  Q 68.75 60.81 68.98 60.19
  L 69.25 59.46
  Q 69.51 58.73 69.95 59.37"
/>
<path stroke="#6d6d6c" vector-effect="non-scaling-stroke" d="
  M 60.67 59.43
  L 60.90 58.96
  A 0.55 0.55 0.0 0 1 61.88 58.93
  Q 62.47 59.96 63.50 60.56
  A 1.25 1.24 -37.3 0 0 64.41 60.68
  Q 65.99 60.27 66.24 58.49
  Q 66.32 57.94 65.76 57.96
  L 58.89 58.31
  A 0.54 0.54 0.0 0 0 58.46 59.13
  Q 59.50 60.82 61.26 61.05
  A 0.53 0.48 59.6 0 0 61.46 60.07
  Q 61.29 59.99 61.13 59.99
  Q 60.40 60.01 60.67 59.43"
/>
<path stroke="#447e67" vector-effect="non-scaling-stroke" d="
  M 196.28 122.48
  C 183.16 134.02 162.43 137.80 147.05 128.73
  C 132.48 120.13 114.55 127.92 112.35 144.86
  Q 111.51 151.26 114.52 157.01
  Q 129.33 185.39 109.60 209.30
  A 0.69 0.69 0.0 0 0 109.56 210.13
  C 110.27 211.18 111.46 212.31 111.98 213.03
  Q 125.93 232.06 118.13 254.50
  C 116.73 258.54 114.03 262.14 112.98 266.16
  C 107.91 285.62 128.46 300.65 146.35 290.94
  C 163.31 281.73 181.84 284.59 196.37 296.80
  Q 196.77 297.14 197.16 296.80
  C 211.01 285.10 229.87 281.56 246.29 290.45
  C 256.32 295.87 267.75 295.36 275.36 287.11
  C 283.19 278.60 282.42 268.71 277.44 258.94
  C 269.29 242.94 271.77 223.36 284.20 210.11
  Q 284.54 209.75 284.21 209.37
  C 271.99 195.25 268.72 176.38 277.91 159.54
  C 284.49 147.47 281.04 134.28 269.76 127.75
  C 261.76 123.12 254.59 125.01 246.32 128.90
  Q 220.20 141.21 197.09 122.47
  Q 196.68 122.13 196.28 122.48"
/>
<path stroke="#447e67" vector-effect="non-scaling-stroke" d="
  M 88.64 186.32
  A 10.10 10.10 0.0 0 0 78.54 176.22
  A 10.10 10.10 0.0 0 0 68.44 186.32
  A 10.10 10.10 0.0 0 0 78.54 196.42
  A 10.10 10.10 0.0 0 0 88.64 186.32"
/>
<path stroke="#447e67" vector-effect="non-scaling-stroke" d="
  M 324.98 186.32
  A 10.11 10.11 0.0 0 0 314.87 176.21
  A 10.11 10.11 0.0 0 0 304.76 186.32
  A 10.11 10.11 0.0 0 0 314.87 196.43
  A 10.11 10.11 0.0 0 0 324.98 186.32"
/>
<path stroke="#447e67" vector-effect="non-scaling-stroke" d="
  M 88.65 216.93
  A 10.11 10.11 0.0 0 0 78.54 206.82
  A 10.11 10.11 0.0 0 0 68.43 216.93
  A 10.11 10.11 0.0 0 0 78.54 227.04
  A 10.11 10.11 0.0 0 0 88.65 216.93"
/>
<path stroke="#447e67" vector-effect="non-scaling-stroke" d="
  M 324.99 216.93
  A 10.12 10.12 0.0 0 0 314.87 206.81
  A 10.12 10.12 0.0 0 0 304.75 216.93
  A 10.12 10.12 0.0 0 0 314.87 227.05
  A 10.12 10.12 0.0 0 0 324.99 216.93"
/>
<path stroke="#447e67" vector-effect="non-scaling-stroke" d="
  M 88.65 247.54
  A 10.10 10.10 0.0 0 0 78.55 237.44
  A 10.10 10.10 0.0 0 0 68.45 247.54
  A 10.10 10.10 0.0 0 0 78.55 257.64
  A 10.10 10.10 0.0 0 0 88.65 247.54"
/>
<path stroke="#447e67" vector-effect="non-scaling-stroke" d="
  M 324.99 247.53
  A 10.11 10.11 0.0 0 0 314.88 237.42
  A 10.11 10.11 0.0 0 0 304.77 247.53
  A 10.11 10.11 0.0 0 0 314.88 257.64
  A 10.11 10.11 0.0 0 0 324.99 247.53"
/>
<path stroke="#a2a2a2" vector-effect="non-scaling-stroke" d="
  M 46.2597 38.1835
  A 0.43 0.43 0.0 0 0 45.8305 37.7527
  L 42.6905 37.7473
  A 0.43 0.43 0.0 0 0 42.2597 38.1765
  L 42.2403 49.3165
  A 0.43 0.43 0.0 0 0 42.6695 49.7473
  L 45.8095 49.7527
  A 0.43 0.43 0.0 0 0 46.2403 49.3235
  L 46.2597 38.1835"
/>
<path stroke="#6d6d6c" vector-effect="non-scaling-stroke" d="
  M 40.24 57.77
  A 0.13 0.13 0.0 0 0 40.08 57.82
  Q 39.38 58.83 40.20 59.83
  Q 40.76 60.50 41.14 59.72
  L 41.58 58.82
  Q 41.82 58.34 41.32 58.16
  L 40.24 57.77"
/>
</g>
<path fill="#959694" d="
  M 0.00 0.00
  L 1.30 0.00
  Q 0.62 1.06 1.27 1.91
  L 1.26 3.50
  Q 0.66 5.14 1.20 6.76
  L 1.03 10.77
  Q 0.58 13.13 1.22 14.40
  L 1.25 15.74
  C 0.35 16.13 0.83 76.39 0.83 82.50
  C 0.76 180.93 0.35 279.45 1.07 377.81
  Q 1.41 378.61 1.23 379.58
  Q 0.66 381.32 1.22 382.80
  L 1.09 386.75
  Q 0.65 389.38 1.21 390.30
  L 0.77 392.49
  Q 24.65 393.83 48.27 393.20
  C 80.23 392.36 112.38 393.17 144.37 393.29
  Q 144.69 393.29 144.85 393.02
  L 145.01 392.76
  Q 145.47 392.63 145.88 392.87
  L 152.63 393.05
  Q 153.16 392.36 153.74 392.95
  L 160.50 393.04
  L 161.69 393.05
  Q 165.00 393.55 168.29 393.05
  L 169.47 393.01
  Q 172.88 393.57 176.29 393.05
  L 177.21 393.02
  L 184.14 393.08
  L 185.31 392.73
  C 187.27 394.08 203.77 393.08 207.37 393.16
  Q 207.68 393.16 207.90 392.96
  Q 208.01 392.86 208.13 392.75
  Q 208.64 392.56 209.13 392.99
  Q 212.46 393.65 215.99 392.98
  Q 216.89 392.36 216.94 393.00
  Q 220.61 393.64 224.03 392.98
  Q 224.06 392.43 224.89 392.92
  Q 228.11 393.67 231.70 393.02
  Q 231.98 392.41 232.96 392.92
  Q 236.03 393.71 239.77 392.96
  Q 240.20 392.40 240.74 392.93
  L 247.56 393.01
  Q 247.90 392.62 248.66 392.78
  Q 249.47 393.32 251.75 393.30
  C 298.70 393.03 345.92 393.63 393.00 392.94
  L 393.00 394.00
  L 0.00 394.00
  L 0.00 0.00
  Z"
/>
<path fill="#444444" d="
  M 1.30 0.00
  L 2.30 0.00
  Q 26.69 0.56 51.07 0.00
  L 144.94 0.00
  C 144.98 4.10 144.03 26.22 145.35 28.28
  A 0.36 0.36 0.0 0 0 146.01 28.09
  L 146.01 0.00
  L 152.70 0.00
  C 152.77 7.89 152.28 27.44 153.08 28.33
  Q 153.59 28.90 153.62 28.13
  C 154.04 18.74 153.65 9.41 154.17 0.00
  L 160.45 0.00
  L 160.71 27.90
  Q 160.72 28.31 161.11 28.20
  C 162.07 27.93 161.80 2.76 161.80 0.00
  L 168.41 0.00
  L 168.51 27.80
  A 0.44 0.43 75.2 0 0 169.16 28.18
  C 170.10 27.64 169.71 3.04 169.71 0.00
  L 176.33 0.00
  L 176.43 27.93
  Q 176.43 28.30 176.81 28.25
  L 177.09 28.21
  Q 177.51 28.16 177.51 27.74
  L 177.51 0.00
  L 184.06 0.00
  L 184.26 27.77
  Q 184.26 28.16 184.65 28.21
  L 184.93 28.25
  Q 185.38 28.31 185.40 27.86
  C 185.98 18.57 185.49 9.31 185.82 0.00
  L 208.20 0.00
  L 207.89 27.31
  A 0.79 0.79 0.0 0 0 209.23 27.89
  C 210.02 27.13 209.29 3.06 209.24 0.00
  L 216.15 0.00
  C 216.10 3.43 215.29 26.83 216.45 28.09
  A 0.47 0.46 23.8 0 0 217.26 27.78
  L 217.26 0.00
  L 224.02 0.00
  L 224.02 27.83
  A 0.45 0.45 0.0 0 0 224.89 27.98
  Q 225.04 27.57 225.05 26.99
  Q 225.36 13.50 224.96 0.00
  L 232.05 0.00
  L 232.01 27.83
  A 0.43 0.42 -26.0 0 0 232.77 28.09
  C 234.21 26.25 233.05 3.90 232.94 0.00
  L 239.96 0.00
  L 239.75 27.56
  A 0.65 0.65 0.0 0 0 240.72 28.13
  C 241.35 27.77 240.81 2.81 240.76 0.00
  L 247.77 0.00
  L 247.78 27.90
  A 0.37 0.36 72.0 0 0 248.36 28.20
  L 248.61 28.02
  Q 248.80 27.87 248.81 27.63
  L 248.86 0.00
  L 345.05 0.00
  Q 351.29 0.58 357.59 0.00
  L 359.05 0.00
  C 365.85 0.15 392.08 -0.22 393.00 0.55
  L 393.00 1.85
  L 346.21 1.77
  A 2.03 1.91 -32.0 0 1 345.45 1.62
  Q 344.45 1.20 343.94 2.43
  A 0.75 0.75 0.0 0 0 344.63 3.47
  L 393.00 3.79
  L 393.00 7.83
  L 392.65 7.16
  Q 392.44 6.75 391.99 6.75
  L 344.50 6.75
  Q 344.00 6.75 344.00 7.25
  L 344.00 10.24
  Q 344.00 10.77 344.53 10.77
  L 393.00 10.87
  L 393.00 14.14
  L 344.54 14.20
  Q 344.02 14.20 344.02 14.72
  L 344.02 15.55
  Q 344.02 16.01 344.48 16.01
  L 393.00 16.03
  L 393.00 377.80
  L 344.63 377.56
  Q 344.06 377.56 344.06 378.13
  L 344.06 379.06
  Q 344.06 379.75 344.76 379.75
  L 393.00 379.78
  L 393.00 382.89
  L 344.55 382.78
  Q 344.00 382.78 344.00 383.33
  L 344.00 386.20
  Q 344.00 386.77 344.57 386.77
  L 393.00 386.83
  L 393.00 390.23
  L 344.57 390.26
  Q 344.00 390.26 344.00 390.83
  L 344.00 391.24
  A 0.51 0.51 0.0 0 0 344.51 391.75
  L 393.00 391.88
  L 393.00 392.94
  C 345.92 393.63 298.70 393.03 251.75 393.30
  Q 249.47 393.32 248.66 392.78
  Q 248.44 378.55 248.49 364.50
  Q 248.50 363.98 247.86 364.54
  A 0.54 0.53 -20.9 0 0 247.68 364.94
  L 247.56 393.01
  L 240.74 392.93
  L 240.61 364.64
  Q 240.61 364.47 240.44 364.50
  L 240.15 364.54
  Q 239.77 364.59 239.77 364.97
  L 239.77 392.96
  Q 236.03 393.71 232.96 392.92
  L 232.66 364.61
  Q 232.66 364.56 232.60 364.54
  Q 232.47 364.48 232.33 364.49
  A 0.27 0.27 0.0 0 0 232.08 364.76
  L 231.70 393.02
  Q 228.11 393.67 224.89 392.92
  L 224.90 364.80
  Q 224.90 364.64 224.75 364.59
  Q 224.61 364.54 224.48 364.49
  A 0.32 0.32 0.0 0 0 224.06 364.79
  L 224.03 392.98
  Q 220.61 393.64 216.94 393.00
  C 217.30 383.65 217.08 374.40 217.15 365.05
  C 217.16 364.62 216.92 364.43 216.51 364.50
  A 0.34 0.33 -3.1 0 0 216.22 364.82
  L 215.99 392.98
  Q 212.46 393.65 209.13 392.99
  L 209.17 364.60
  A 0.36 0.36 0.0 0 0 208.53 364.36
  C 207.76 365.25 208.19 389.47 208.13 392.75
  Q 208.01 392.86 207.90 392.96
  Q 207.68 393.16 207.37 393.16
  C 203.77 393.08 187.27 394.08 185.31 392.73
  L 185.25 364.62
  A 0.41 0.41 0.0 0 0 184.46 364.45
  Q 183.88 365.73 183.88 367.25
  Q 183.85 380.02 184.14 393.08
  L 177.21 393.02
  L 177.24 364.72
  Q 177.24 364.50 177.02 364.50
  Q 176.89 364.50 176.76 364.50
  Q 176.34 364.50 176.34 364.92
  L 176.29 393.05
  Q 172.88 393.57 169.47 393.01
  L 169.28 364.85
  A 0.36 0.36 0.0 0 0 168.95 364.49
  C 167.95 364.38 168.25 390.45 168.29 393.05
  Q 165.00 393.55 161.69 393.05
  Q 161.84 378.76 161.49 364.69
  Q 161.47 364.12 160.87 364.26
  A 0.48 0.48 0.0 0 0 160.50 364.73
  L 160.50 393.04
  L 153.74 392.95
  L 153.73 364.77
  A 0.48 0.48 0.0 0 0 153.05 364.33
  C 152.03 364.77 152.57 389.89 152.63 393.05
  L 145.88 392.87
  L 145.89 368.89
  A 0.40 0.39 -44.9 0 0 145.10 368.89
  L 145.01 392.76
  L 144.85 393.02
  Q 144.69 393.29 144.37 393.29
  C 112.38 393.17 80.23 392.36 48.27 393.20
  Q 24.65 393.83 0.77 392.49
  Q 26.75 391.21 52.17 391.74
  Q 52.75 391.75 52.75 391.17
  L 52.75 390.76
  Q 52.75 390.33 52.32 390.33
  L 1.21 390.30
  Q 0.65 389.38 1.09 386.75
  L 52.07 386.75
  A 0.61 0.60 87.4 0 0 52.67 386.09
  L 52.43 383.22
  Q 52.40 382.79 51.97 382.79
  L 1.22 382.80
  Q 0.66 381.32 1.23 379.58
  C 18.08 379.40 34.89 379.76 51.65 379.44
  Q 52.15 379.43 52.52 379.08
  Q 53.02 378.62 52.51 378.16
  Q 52.15 377.83 51.66 377.83
  L 1.07 377.81
  C 0.35 279.45 0.76 180.93 0.83 82.50
  C 0.83 76.39 0.35 16.13 1.25 15.74
  Q 24.56 15.77 47.86 15.73
  C 49.05 15.73 51.18 16.46 52.45 15.56
  A 0.74 0.74 0.0 0 0 52.02 14.21
  L 1.22 14.40
  Q 0.58 13.13 1.03 10.77
  L 52.17 10.74
  Q 52.63 10.74 52.61 10.28
  L 52.45 7.22
  Q 52.43 6.76 51.98 6.76
  L 1.20 6.76
  Q 0.66 5.14 1.26 3.50
  L 51.73 3.50
  Q 52.15 3.50 52.44 3.20
  Q 53.21 2.44 52.18 1.92
  Q 51.81 1.72 51.39 1.73
  C 34.72 1.78 17.89 1.16 1.27 1.91
  Q 0.62 1.06 1.30 0.00
  Z
  M 23.70 28.80
  A 2.74 2.74 0.0 0 0 20.96 26.06
  A 2.74 2.74 0.0 0 0 18.22 28.80
  A 2.74 2.74 0.0 0 0 20.96 31.54
  A 2.74 2.74 0.0 0 0 23.70 28.80
  Z
  M 32.06 41.32
  Q 30.43 37.77 28.74 34.23
  Q 28.53 33.79 28.05 33.78
  L 25.13 33.69
  Q 24.50 33.67 24.50 34.30
  L 24.50 53.12
  Q 24.50 53.75 25.12 53.75
  L 27.87 53.75
  Q 28.50 53.75 28.50 53.12
  L 28.50 43.78
  Q 28.50 42.95 28.93 43.66
  Q 31.68 48.21 32.83 53.36
  Q 32.92 53.75 33.32 53.75
  L 36.15 53.75
  Q 36.55 53.75 36.55 53.35
  L 36.48 34.24
  Q 36.48 33.75 35.99 33.75
  L 33.00 33.75
  Q 32.50 33.75 32.50 34.25
  L 32.50 41.22
  Q 32.50 42.27 32.06 41.32
  Z
  M 38.27 33.95
  L 38.21 53.43
  A 0.33 0.33 0.0 0 0 38.53 53.76
  L 46.19 53.79
  A 4.03 3.96 0.2 0 0 50.24 49.84
  L 50.28 37.62
  A 4.03 3.96 0.2 0 0 46.27 33.65
  L 38.61 33.62
  A 0.33 0.33 0.0 0 0 38.27 33.95
  Z
  M 63.8514 33.9583
  A 0.27 0.27 0.0 0 0 63.5800 33.6898
  L 52.0202 33.7503
  A 0.27 0.27 0.0 0 0 51.7516 34.0217
  L 51.7686 37.2617
  A 0.27 0.27 0.0 0 0 52.0400 37.5302
  L 63.5998 37.4697
  A 0.27 0.27 0.0 0 0 63.8684 37.1983
  L 63.8514 33.9583
  Z
  M 71.25 49.07
  L 72.96 53.31
  Q 73.14 53.75 73.62 53.75
  L 76.50 53.75
  Q 77.23 53.75 76.95 53.07
  L 73.45 44.66
  Q 73.04 44.04 73.38 42.90
  L 76.94 34.17
  Q 77.21 33.50 76.49 33.50
  L 73.81 33.50
  Q 73.27 33.50 73.05 34.00
  L 71.18 38.20
  L 69.25 33.92
  Q 69.06 33.49 68.59 33.49
  L 65.67 33.51
  A 0.45 0.44 78.0 0 0 65.27 34.13
  L 69.00 43.07
  Q 69.20 43.57 69.00 44.07
  L 65.35 53.01
  Q 65.05 53.75 65.85 53.75
  L 68.73 53.75
  Q 69.28 53.75 69.39 53.21
  Q 69.86 50.98 71.25 49.07
  Z
  M 22.7870 34.0333
  A 0.27 0.27 0.0 0 0 22.5174 33.7629
  L 19.2574 33.7572
  A 0.27 0.27 0.0 0 0 18.9870 34.0267
  L 18.9530 53.4667
  A 0.27 0.27 0.0 0 0 19.2226 53.7371
  L 22.4826 53.7428
  A 0.27 0.27 0.0 0 0 22.7530 53.4733
  L 22.7870 34.0333
  Z
  M 63.9949 42.0834
  A 0.39 0.39 0.0 0 0 63.6083 41.6900
  L 52.1687 41.5902
  A 0.39 0.39 0.0 0 0 51.7753 41.9767
  L 51.7451 45.4366
  A 0.39 0.39 0.0 0 0 52.1317 45.8300
  L 63.5713 45.9298
  A 0.39 0.39 0.0 0 0 63.9647 45.5433
  L 63.9949 42.0834
  Z
  M 63.88 50.01
  A 0.26 0.26 0.0 0 0 63.62 49.75
  L 52.02 49.75
  A 0.26 0.26 0.0 0 0 51.76 50.01
  L 51.76 53.49
  A 0.26 0.26 0.0 0 0 52.02 53.75
  L 63.62 53.75
  A 0.26 0.26 0.0 0 0 63.88 53.49
  L 63.88 50.01
  Z
  M 47.39 60.18
  A 0.27 0.26 -1.0 0 1 47.70 60.47
  Q 47.59 61.20 48.05 61.62
  A 0.76 0.75 -47.4 0 0 49.13 61.57
  L 51.48 58.88
  Q 52.04 58.24 51.20 58.14
  L 49.54 57.95
  A 0.55 0.55 0.0 0 0 48.95 58.67
  Q 49.26 59.61 48.44 60.16
  A 0.34 0.34 0.0 0 1 47.94 59.76
  L 48.34 58.73
  Q 48.55 58.16 47.95 58.15
  Q 45.56 58.10 43.15 58.14
  A 1.32 1.31 -23.6 0 1 42.22 57.78
  Q 41.22 56.85 39.82 57.30
  Q 39.33 57.45 39.25 57.95
  Q 39.00 59.38 39.81 60.48
  A 0.56 0.56 0.0 0 0 40.64 60.56
  Q 41.82 59.47 43.22 60.50
  Q 43.62 60.79 44.10 60.71
  L 47.39 60.18
  Z
  M 21.75 59.34
  L 22.72 60.30
  A 0.38 0.37 -48.3 0 0 23.29 60.26
  L 23.87 59.48
  Q 24.22 59.02 24.59 59.46
  Q 25.24 60.24 26.22 60.68
  A 0.30 0.29 -8.0 0 0 26.57 60.22
  L 25.96 59.52
  A 0.49 0.48 -20.3 0 1 26.33 58.72
  Q 27.24 58.73 27.41 59.58
  Q 27.51 60.05 28.00 60.09
  L 34.47 60.68
  A 1.24 1.24 0.0 0 0 35.22 58.38
  Q 33.52 57.36 31.10 58.26
  Q 30.66 58.42 30.20 58.37
  C 28.14 58.17 20.95 58.63 19.77 57.57
  Q 19.32 57.16 19.18 57.76
  Q 18.90 59.00 19.39 60.21
  Q 19.57 60.67 19.94 60.35
  L 21.18 59.31
  Q 21.48 59.07 21.75 59.34
  Z
  M 37.3394 61.5492
  A 2.17 0.41 91.6 0 0 37.8098 59.3914
  A 2.17 0.41 91.6 0 0 37.4606 57.2108
  A 2.17 0.41 91.6 0 0 36.9902 59.3686
  A 2.17 0.41 91.6 0 0 37.3394 61.5492
  Z
  M 54.15 60.23
  Q 53.80 60.71 54.13 61.22
  Q 54.50 61.78 54.70 61.14
  Q 55.28 59.32 54.86 57.42
  A 0.43 0.41 -50.1 0 0 54.04 57.51
  Q 53.97 58.45 54.28 59.33
  Q 54.45 59.81 54.15 60.23
  Z
  M 56.95 59.06
  L 57.69 57.94
  A 0.72 0.62 -15.2 0 0 56.48 57.36
  C 55.87 58.26 55.80 61.70 57.48 60.68
  Q 57.78 60.49 57.50 60.28
  L 57.12 60.00
  Q 56.59 59.61 56.95 59.06
  Z
  M 69.95 59.37
  Q 70.40 60.03 71.11 59.51
  Q 71.45 59.27 71.79 59.51
  L 73.10 60.42
  Q 73.55 60.74 74.03 60.45
  Q 74.72 60.03 75.36 60.75
  A 0.53 0.53 0.0 0 0 76.28 60.50
  L 76.66 58.59
  Q 76.74 58.17 76.32 58.17
  L 67.78 58.13
  Q 67.33 58.13 67.16 58.54
  Q 66.60 59.90 68.14 60.55
  Q 68.75 60.81 68.98 60.19
  L 69.25 59.46
  Q 69.51 58.73 69.95 59.37
  Z
  M 60.67 59.43
  L 60.90 58.96
  A 0.55 0.55 0.0 0 1 61.88 58.93
  Q 62.47 59.96 63.50 60.56
  A 1.25 1.24 -37.3 0 0 64.41 60.68
  Q 65.99 60.27 66.24 58.49
  Q 66.32 57.94 65.76 57.96
  L 58.89 58.31
  A 0.54 0.54 0.0 0 0 58.46 59.13
  Q 59.50 60.82 61.26 61.05
  A 0.53 0.48 59.6 0 0 61.46 60.07
  Q 61.29 59.99 61.13 59.99
  Q 60.40 60.01 60.67 59.43
  Z
  M 196.28 122.48
  C 183.16 134.02 162.43 137.80 147.05 128.73
  C 132.48 120.13 114.55 127.92 112.35 144.86
  Q 111.51 151.26 114.52 157.01
  Q 129.33 185.39 109.60 209.30
  A 0.69 0.69 0.0 0 0 109.56 210.13
  C 110.27 211.18 111.46 212.31 111.98 213.03
  Q 125.93 232.06 118.13 254.50
  C 116.73 258.54 114.03 262.14 112.98 266.16
  C 107.91 285.62 128.46 300.65 146.35 290.94
  C 163.31 281.73 181.84 284.59 196.37 296.80
  Q 196.77 297.14 197.16 296.80
  C 211.01 285.10 229.87 281.56 246.29 290.45
  C 256.32 295.87 267.75 295.36 275.36 287.11
  C 283.19 278.60 282.42 268.71 277.44 258.94
  C 269.29 242.94 271.77 223.36 284.20 210.11
  Q 284.54 209.75 284.21 209.37
  C 271.99 195.25 268.72 176.38 277.91 159.54
  C 284.49 147.47 281.04 134.28 269.76 127.75
  C 261.76 123.12 254.59 125.01 246.32 128.90
  Q 220.20 141.21 197.09 122.47
  Q 196.68 122.13 196.28 122.48
  Z
  M 88.64 186.32
  A 10.10 10.10 0.0 0 0 78.54 176.22
  A 10.10 10.10 0.0 0 0 68.44 186.32
  A 10.10 10.10 0.0 0 0 78.54 196.42
  A 10.10 10.10 0.0 0 0 88.64 186.32
  Z
  M 324.98 186.32
  A 10.11 10.11 0.0 0 0 314.87 176.21
  A 10.11 10.11 0.0 0 0 304.76 186.32
  A 10.11 10.11 0.0 0 0 314.87 196.43
  A 10.11 10.11 0.0 0 0 324.98 186.32
  Z
  M 88.65 216.93
  A 10.11 10.11 0.0 0 0 78.54 206.82
  A 10.11 10.11 0.0 0 0 68.43 216.93
  A 10.11 10.11 0.0 0 0 78.54 227.04
  A 10.11 10.11 0.0 0 0 88.65 216.93
  Z
  M 324.99 216.93
  A 10.12 10.12 0.0 0 0 314.87 206.81
  A 10.12 10.12 0.0 0 0 304.75 216.93
  A 10.12 10.12 0.0 0 0 314.87 227.05
  A 10.12 10.12 0.0 0 0 324.99 216.93
  Z
  M 88.65 247.54
  A 10.10 10.10 0.0 0 0 78.55 237.44
  A 10.10 10.10 0.0 0 0 68.45 247.54
  A 10.10 10.10 0.0 0 0 78.55 257.64
  A 10.10 10.10 0.0 0 0 88.65 247.54
  Z
  M 324.99 247.53
  A 10.11 10.11 0.0 0 0 314.88 237.42
  A 10.11 10.11 0.0 0 0 304.77 247.53
  A 10.11 10.11 0.0 0 0 314.88 257.64
  A 10.11 10.11 0.0 0 0 324.99 247.53
  Z"
/>
<path fill="#959694" d="
  M 2.30 0.00
  L 51.07 0.00
  Q 26.69 0.56 2.30 0.00
  Z"
/>
<path fill="#ffffff" d="
  M 144.94 0.00
  L 146.01 0.00
  L 146.01 28.09
  A 0.36 0.36 0.0 0 1 145.35 28.28
  C 144.03 26.22 144.98 4.10 144.94 0.00
  Z"
/>
<path fill="#43b789" d="
  M 152.70 0.00
  L 154.17 0.00
  C 153.65 9.41 154.04 18.74 153.62 28.13
  Q 153.59 28.90 153.08 28.33
  C 152.28 27.44 152.77 7.89 152.70 0.00
  Z"
/>
<path fill="#43b789" d="
  M 160.45 0.00
  L 161.80 0.00
  C 161.80 2.76 162.07 27.93 161.11 28.20
  Q 160.72 28.31 160.71 27.90
  L 160.45 0.00
  Z"
/>
<path fill="#43b789" d="
  M 168.41 0.00
  L 169.71 0.00
  C 169.71 3.04 170.10 27.64 169.16 28.18
  A 0.44 0.43 75.2 0 1 168.51 27.80
  L 168.41 0.00
  Z"
/>
<path fill="#43b789" d="
  M 176.33 0.00
  L 177.51 0.00
  L 177.51 27.74
  Q 177.51 28.16 177.09 28.21
  L 176.81 28.25
  Q 176.43 28.30 176.43 27.93
  L 176.33 0.00
  Z"
/>
<path fill="#43b789" d="
  M 184.06 0.00
  L 185.82 0.00
  C 185.49 9.31 185.98 18.57 185.40 27.86
  Q 185.38 28.31 184.93 28.25
  L 184.65 28.21
  Q 184.26 28.16 184.26 27.77
  L 184.06 0.00
  Z"
/>
<path fill="#43b789" d="
  M 208.20 0.00
  L 209.24 0.00
  C 209.29 3.06 210.02 27.13 209.23 27.89
  A 0.79 0.79 0.0 0 1 207.89 27.31
  L 208.20 0.00
  Z"
/>
<path fill="#43b789" d="
  M 216.15 0.00
  L 217.26 0.00
  L 217.26 27.78
  A 0.47 0.46 23.8 0 1 216.45 28.09
  C 215.29 26.83 216.10 3.43 216.15 0.00
  Z"
/>
<path fill="#43b789" d="
  M 224.02 0.00
  L 224.96 0.00
  Q 225.36 13.50 225.05 26.99
  Q 225.04 27.57 224.89 27.98
  A 0.45 0.45 0.0 0 1 224.02 27.83
  L 224.02 0.00
  Z"
/>
<path fill="#43b789" d="
  M 232.05 0.00
  L 232.94 0.00
  C 233.05 3.90 234.21 26.25 232.77 28.09
  A 0.43 0.42 -26.0 0 1 232.01 27.83
  L 232.05 0.00
  Z"
/>
<path fill="#43b789" d="
  M 239.96 0.00
  L 240.76 0.00
  C 240.81 2.81 241.35 27.77 240.72 28.13
  A 0.65 0.65 0.0 0 1 239.75 27.56
  L 239.96 0.00
  Z"
/>
<path fill="#43b789" d="
  M 247.77 0.00
  L 248.86 0.00
  L 248.81 27.63
  Q 248.80 27.87 248.61 28.02
  L 248.36 28.20
  A 0.37 0.36 72.0 0 1 247.78 27.90
  L 247.77 0.00
  Z"
/>
<path fill="#959694" d="
  M 345.05 0.00
  L 357.59 0.00
  Q 351.29 0.58 345.05 0.00
  Z"
/>
<path fill="#959694" d="
  M 359.05 0.00
  L 393.00 0.00
  L 393.00 0.55
  C 392.08 -0.22 365.85 0.15 359.05 0.00
  Z"
/>
<path fill="#43b789" d="
  M 1.26 3.50
  L 1.27 1.91
  C 17.89 1.16 34.72 1.78 51.39 1.73
  Q 51.81 1.72 52.18 1.92
  Q 53.21 2.44 52.44 3.20
  Q 52.15 3.50 51.73 3.50
  L 1.26 3.50
  Z"
/>
<path fill="#43b789" d="
  M 393.00 1.85
  L 393.00 3.79
  L 344.63 3.47
  A 0.75 0.75 0.0 0 1 343.94 2.43
  Q 344.45 1.20 345.45 1.62
  A 2.03 1.91 -32.0 0 0 346.21 1.77
  L 393.00 1.85
  Z"
/>
<path fill="#43b789" d="
  M 1.20 6.76
  L 51.98 6.76
  Q 52.43 6.76 52.45 7.22
  L 52.61 10.28
  Q 52.63 10.74 52.17 10.74
  L 1.03 10.77
  L 1.20 6.76
  Z"
/>
<path fill="#43b789" d="
  M 393.00 7.83
  L 393.00 10.87
  L 344.53 10.77
  Q 344.00 10.77 344.00 10.24
  L 344.00 7.25
  Q 344.00 6.75 344.50 6.75
  L 391.99 6.75
  Q 392.44 6.75 392.65 7.16
  L 393.00 7.83
  Z"
/>
<path fill="#43b789" d="
  M 393.00 14.14
  L 393.00 16.03
  L 344.48 16.01
  Q 344.02 16.01 344.02 15.55
  L 344.02 14.72
  Q 344.02 14.20 344.54 14.20
  L 393.00 14.14
  Z"
/>
<path fill="#43b789" d="
  M 1.25 15.74
  L 1.22 14.40
  L 52.02 14.21
  A 0.74 0.74 0.0 0 1 52.45 15.56
  C 51.18 16.46 49.05 15.73 47.86 15.73
  Q 24.56 15.77 1.25 15.74
  Z"
/>
<circle fill="#4fefb0" cx="20.96" cy="28.80" r="2.74"/>
<path fill="#ffffff" d="
  M 32.50 41.22
  L 32.50 34.25
  Q 32.50 33.75 33.00 33.75
  L 35.99 33.75
  Q 36.48 33.75 36.48 34.24
  L 36.55 53.35
  Q 36.55 53.75 36.15 53.75
  L 33.32 53.75
  Q 32.92 53.75 32.83 53.36
  Q 31.68 48.21 28.93 43.66
  Q 28.50 42.95 28.50 43.78
  L 28.50 53.12
  Q 28.50 53.75 27.87 53.75
  L 25.12 53.75
  Q 24.50 53.75 24.50 53.12
  L 24.50 34.30
  Q 24.50 33.67 25.13 33.69
  L 28.05 33.78
  Q 28.53 33.79 28.74 34.23
  Q 30.43 37.77 32.06 41.32
  Q 32.50 42.27 32.50 41.22
  Z"
/>
<path fill="#ffffff" d="
  M 38.27 33.95
  A 0.33 0.33 0.0 0 1 38.61 33.62
  L 46.27 33.65
  A 4.03 3.96 0.2 0 1 50.28 37.62
  L 50.24 49.84
  A 4.03 3.96 0.2 0 1 46.19 53.79
  L 38.53 53.76
  A 0.33 0.33 0.0 0 1 38.21 53.43
  L 38.27 33.95
  Z
  M 46.2597 38.1835
  A 0.43 0.43 0.0 0 0 45.8305 37.7527
  L 42.6905 37.7473
  A 0.43 0.43 0.0 0 0 42.2597 38.1765
  L 42.2403 49.3165
  A 0.43 0.43 0.0 0 0 42.6695 49.7473
  L 45.8095 49.7527
  A 0.43 0.43 0.0 0 0 46.2403 49.3235
  L 46.2597 38.1835
  Z"
/>
<rect fill="#ffffff" x="-6.05" y="-1.89" transform="translate(57.81,35.61) rotate(-0.3)" width="12.10" height="3.78" rx="0.27"/>
<path fill="#4fefb0" d="
  M 71.18 38.20
  L 73.38 42.90
  Q 73.04 44.04 73.45 44.66
  Q 71.69 46.83 71.25 49.07
  Q 69.86 50.98 69.39 53.21
  Q 69.28 53.75 68.73 53.75
  L 65.85 53.75
  Q 65.05 53.75 65.35 53.01
  L 69.00 44.07
  Q 69.20 43.57 69.00 43.07
  L 65.27 34.13
  A 0.45 0.44 78.0 0 1 65.67 33.51
  L 68.59 33.49
  Q 69.06 33.49 69.25 33.92
  L 71.18 38.20
  Z"
/>
<path fill="#ffffff" d="
  M 73.38 42.90
  L 71.18 38.20
  L 73.05 34.00
  Q 73.27 33.50 73.81 33.50
  L 76.49 33.50
  Q 77.21 33.50 76.94 34.17
  L 73.38 42.90
  Z"
/>
<rect fill="#ffffff" x="-1.90" y="-9.99" transform="translate(20.87,43.75) rotate(0.1)" width="3.80" height="19.98" rx="0.27"/>
<rect fill="#444444" x="-2.00" y="-6.00" transform="translate(44.25,43.75) rotate(0.1)" width="4.00" height="12.00" rx="0.43"/>
<rect fill="#4fefb0" x="-6.11" y="-2.12" transform="translate(57.87,43.76) rotate(0.5)" width="12.22" height="4.24" rx="0.39"/>
<path fill="#ffffff" d="
  M 73.45 44.66
  L 76.95 53.07
  Q 77.23 53.75 76.50 53.75
  L 73.62 53.75
  Q 73.14 53.75 72.96 53.31
  L 71.25 49.07
  Q 71.69 46.83 73.45 44.66
  Z"
/>
<rect fill="#ffffff" x="51.76" y="49.75" width="12.12" height="4.00" rx="0.26"/>
<path fill="#959694" d="
  M 47.39 60.18
  L 44.10 60.71
  Q 43.62 60.79 43.22 60.50
  Q 41.82 59.47 40.64 60.56
  A 0.56 0.56 0.0 0 1 39.81 60.48
  Q 39.00 59.38 39.25 57.95
  Q 39.33 57.45 39.82 57.30
  Q 41.22 56.85 42.22 57.78
  A 1.32 1.31 -23.6 0 0 43.15 58.14
  Q 45.56 58.10 47.95 58.15
  Q 48.55 58.16 48.34 58.73
  L 47.94 59.76
  A 0.34 0.34 0.0 0 0 48.44 60.16
  Q 49.26 59.61 48.95 58.67
  A 0.55 0.55 0.0 0 1 49.54 57.95
  L 51.20 58.14
  Q 52.04 58.24 51.48 58.88
  L 49.13 61.57
  A 0.76 0.75 -47.4 0 1 48.05 61.62
  Q 47.59 61.20 47.70 60.47
  A 0.27 0.26 -1.0 0 0 47.39 60.18
  Z
  M 40.24 57.77
  A 0.13 0.13 0.0 0 0 40.08 57.82
  Q 39.38 58.83 40.20 59.83
  Q 40.76 60.50 41.14 59.72
  L 41.58 58.82
  Q 41.82 58.34 41.32 58.16
  L 40.24 57.77
  Z"
/>
<path fill="#959694" d="
  M 21.18 59.31
  L 19.94 60.35
  Q 19.57 60.67 19.39 60.21
  Q 18.90 59.00 19.18 57.76
  Q 19.32 57.16 19.77 57.57
  C 20.95 58.63 28.14 58.17 30.20 58.37
  Q 30.66 58.42 31.10 58.26
  Q 33.52 57.36 35.22 58.38
  A 1.24 1.24 0.0 0 1 34.47 60.68
  L 28.00 60.09
  Q 27.51 60.05 27.41 59.58
  Q 27.24 58.73 26.33 58.72
  A 0.49 0.48 -20.3 0 0 25.96 59.52
  L 26.57 60.22
  A 0.30 0.29 -8.0 0 1 26.22 60.68
  Q 25.24 60.24 24.59 59.46
  Q 24.22 59.02 23.87 59.48
  L 23.29 60.26
  A 0.38 0.37 -48.3 0 1 22.72 60.30
  L 21.75 59.34
  Q 21.48 59.07 21.18 59.31
  Z"
/>
<ellipse fill="#959694" cx="0.00" cy="0.00" transform="translate(37.40,59.38) rotate(91.6)" rx="2.17" ry="0.41"/>
<path fill="#959694" d="
  M 54.28 59.33
  Q 53.97 58.45 54.04 57.51
  A 0.43 0.41 -50.1 0 1 54.86 57.42
  Q 55.28 59.32 54.70 61.14
  Q 54.50 61.78 54.13 61.22
  Q 53.80 60.71 54.15 60.23
  Q 54.45 59.81 54.28 59.33
  Z"
/>
<path fill="#959694" d="
  M 57.12 60.00
  L 57.50 60.28
  Q 57.78 60.49 57.48 60.68
  C 55.80 61.70 55.87 58.26 56.48 57.36
  A 0.72 0.62 -15.2 0 1 57.69 57.94
  L 56.95 59.06
  Q 56.59 59.61 57.12 60.00
  Z"
/>
<path fill="#444444" d="
  M 40.24 57.77
  L 41.32 58.16
  Q 41.82 58.34 41.58 58.82
  L 41.14 59.72
  Q 40.76 60.50 40.20 59.83
  Q 39.38 58.83 40.08 57.82
  A 0.13 0.13 0.0 0 1 40.24 57.77
  Z"
/>
<path fill="#959694" d="
  M 69.25 59.46
  L 68.98 60.19
  Q 68.75 60.81 68.14 60.55
  Q 66.60 59.90 67.16 58.54
  Q 67.33 58.13 67.78 58.13
  L 76.32 58.17
  Q 76.74 58.17 76.66 58.59
  L 76.28 60.50
  A 0.53 0.53 0.0 0 1 75.36 60.75
  Q 74.72 60.03 74.03 60.45
  Q 73.55 60.74 73.10 60.42
  L 71.79 59.51
  Q 71.45 59.27 71.11 59.51
  Q 70.40 60.03 69.95 59.37
  Q 69.51 58.73 69.25 59.46
  Z"
/>
<path fill="#959694" d="
  M 61.13 59.99
  Q 61.29 59.99 61.46 60.07
  A 0.53 0.48 59.6 0 1 61.26 61.05
  Q 59.50 60.82 58.46 59.13
  A 0.54 0.54 0.0 0 1 58.89 58.31
  L 65.76 57.96
  Q 66.32 57.94 66.24 58.49
  Q 65.99 60.27 64.41 60.68
  A 1.25 1.24 -37.3 0 1 63.50 60.56
  Q 62.47 59.96 61.88 58.93
  A 0.55 0.55 0.0 0 0 60.90 58.96
  L 60.67 59.43
  Q 60.40 60.01 61.13 59.99
  Z"
/>
<circle fill="#43b789" cx="78.54" cy="186.32" r="10.10"/>
<circle fill="#43b789" cx="314.87" cy="186.32" r="10.11"/>
<circle fill="#43b789" cx="78.54" cy="216.93" r="10.11"/>
<circle fill="#43b789" cx="314.87" cy="216.93" r="10.12"/>
<circle fill="#43b789" cx="78.55" cy="247.54" r="10.10"/>
<circle fill="#43b789" cx="314.88" cy="247.53" r="10.11"/>
<path fill="#43b789" d="
  M 145.88 392.87
  Q 145.47 392.63 145.01 392.76
  L 145.10 368.89
  A 0.40 0.39 -44.9 0 1 145.89 368.89
  L 145.88 392.87
  Z"
/>
<path fill="#43b789" d="
  M 153.74 392.95
  Q 153.16 392.36 152.63 393.05
  C 152.57 389.89 152.03 364.77 153.05 364.33
  A 0.48 0.48 0.0 0 1 153.73 364.77
  L 153.74 392.95
  Z"
/>
<path fill="#43b789" d="
  M 161.69 393.05
  L 160.50 393.04
  L 160.50 364.73
  A 0.48 0.48 0.0 0 1 160.87 364.26
  Q 161.47 364.12 161.49 364.69
  Q 161.84 378.76 161.69 393.05
  Z"
/>
<path fill="#43b789" d="
  M 185.31 392.73
  L 184.14 393.08
  Q 183.85 380.02 183.88 367.25
  Q 183.88 365.73 184.46 364.45
  A 0.41 0.41 0.0 0 1 185.25 364.62
  L 185.31 392.73
  Z"
/>
<path fill="#43b789" d="
  M 209.13 392.99
  Q 208.64 392.56 208.13 392.75
  C 208.19 389.47 207.76 365.25 208.53 364.36
  A 0.36 0.36 0.0 0 1 209.17 364.60
  L 209.13 392.99
  Z"
/>
<path fill="#43b789" d="
  M 248.66 392.78
  Q 247.90 392.62 247.56 393.01
  L 247.68 364.94
  A 0.54 0.53 -20.9 0 1 247.86 364.54
  Q 248.50 363.98 248.49 364.50
  Q 248.44 378.55 248.66 392.78
  Z"
/>
<path fill="#43b789" d="
  M 169.47 393.01
  L 168.29 393.05
  C 168.25 390.45 167.95 364.38 168.95 364.49
  A 0.36 0.36 0.0 0 1 169.28 364.85
  L 169.47 393.01
  Z"
/>
<path fill="#43b789" d="
  M 177.21 393.02
  L 176.29 393.05
  L 176.34 364.92
  Q 176.34 364.50 176.76 364.50
  Q 176.89 364.50 177.02 364.50
  Q 177.24 364.50 177.24 364.72
  L 177.21 393.02
  Z"
/>
<path fill="#43b789" d="
  M 216.94 393.00
  Q 216.89 392.36 215.99 392.98
  L 216.22 364.82
  A 0.34 0.33 -3.1 0 1 216.51 364.50
  C 216.92 364.43 217.16 364.62 217.15 365.05
  C 217.08 374.40 217.30 383.65 216.94 393.00
  Z"
/>
<path fill="#43b789" d="
  M 224.89 392.92
  Q 224.06 392.43 224.03 392.98
  L 224.06 364.79
  A 0.32 0.32 0.0 0 1 224.48 364.49
  Q 224.61 364.54 224.75 364.59
  Q 224.90 364.64 224.90 364.80
  L 224.89 392.92
  Z"
/>
<path fill="#43b789" d="
  M 232.96 392.92
  Q 231.98 392.41 231.70 393.02
  L 232.08 364.76
  A 0.27 0.27 0.0 0 1 232.33 364.49
  Q 232.47 364.48 232.60 364.54
  Q 232.66 364.56 232.66 364.61
  L 232.96 392.92
  Z"
/>
<path fill="#43b789" d="
  M 240.74 392.93
  Q 240.20 392.40 239.77 392.96
  L 239.77 364.97
  Q 239.77 364.59 240.15 364.54
  L 240.44 364.50
  Q 240.61 364.47 240.61 364.64
  L 240.74 392.93
  Z"
/>
<path fill="#43b789" d="
  M 393.00 377.80
  L 393.00 379.78
  L 344.76 379.75
  Q 344.06 379.75 344.06 379.06
  L 344.06 378.13
  Q 344.06 377.56 344.63 377.56
  L 393.00 377.80
  Z"
/>
<path fill="#43b789" d="
  M 1.23 379.58
  Q 1.41 378.61 1.07 377.81
  L 51.66 377.83
  Q 52.15 377.83 52.51 378.16
  Q 53.02 378.62 52.52 379.08
  Q 52.15 379.43 51.65 379.44
  C 34.89 379.76 18.08 379.40 1.23 379.58
  Z"
/>
<path fill="#43b789" d="
  M 1.09 386.75
  L 1.22 382.80
  L 51.97 382.79
  Q 52.40 382.79 52.43 383.22
  L 52.67 386.09
  A 0.61 0.60 87.4 0 1 52.07 386.75
  L 1.09 386.75
  Z"
/>
<path fill="#43b789" d="
  M 393.00 382.89
  L 393.00 386.83
  L 344.57 386.77
  Q 344.00 386.77 344.00 386.20
  L 344.00 383.33
  Q 344.00 382.78 344.55 382.78
  L 393.00 382.89
  Z"
/>
<path fill="#43b789" d="
  M 393.00 390.23
  L 393.00 391.88
  L 344.51 391.75
  A 0.51 0.51 0.0 0 1 344.00 391.24
  L 344.00 390.83
  Q 344.00 390.26 344.57 390.26
  L 393.00 390.23
  Z"
/>
<path fill="#43b789" d="
  M 0.77 392.49
  L 1.21 390.30
  L 52.32 390.33
  Q 52.75 390.33 52.75 390.76
  L 52.75 391.17
  Q 52.75 391.75 52.17 391.74
  Q 26.75 391.21 0.77 392.49
  Z"
/>
</svg>
